<svg xmlns="http://www.w3.org/2000/svg" xmlns:xlink="http://www.w3.org/1999/xlink" width="500" zoomAndPan="magnify" viewBox="0 0 375 374.999991" height="500" preserveAspectRatio="xMidYMid meet" version="1.0"><defs><clipPath id="04c66c664c"><path d="M 114.117188 98.535156 L 264.117188 98.535156 L 264.117188 248.535156 L 114.117188 248.535156 Z M 114.117188 98.535156 " clip-rule="nonzero"/></clipPath></defs><g clip-path="url(#04c66c664c)"><path fill="#000000" d="M 189.117188 98.535156 C 147.757812 98.535156 114.117188 132.175781 114.117188 173.535156 C 114.117188 214.898438 147.757812 248.535156 189.117188 248.535156 C 230.480469 248.535156 264.117188 214.898438 264.117188 173.535156 C 264.117188 132.175781 230.480469 98.535156 189.117188 98.535156 Z M 189.117188 243.277344 C 150.609375 243.277344 119.378906 212.042969 119.378906 173.535156 C 119.378906 135.03125 150.609375 103.796875 189.117188 103.796875 C 227.625 103.796875 258.855469 135.03125 258.855469 173.535156 C 258.855469 212.042969 227.625 243.277344 189.117188 243.277344 Z M 189.117188 243.277344 " fill-opacity="1" fill-rule="nonzero"/></g><path fill="#000000" d="M 189.117188 137.773438 C 189.117188 137.773438 159.957031 137.976562 166.394531 168.964844 C 168.296875 178.144531 189.117188 199.488281 189.117188 199.488281 C 189.117188 199.488281 209.9375 178.144531 211.84375 168.964844 C 218.277344 137.976562 189.117188 137.773438 189.117188 137.773438 Z M 189.117188 167.417969 C 188.585938 167.417969 188.058594 167.367188 187.539062 167.261719 C 187.015625 167.15625 186.507812 167.003906 186.019531 166.800781 C 185.527344 166.597656 185.058594 166.347656 184.617188 166.050781 C 184.175781 165.757812 183.765625 165.421875 183.390625 165.042969 C 183.015625 164.667969 182.679688 164.257812 182.382812 163.816406 C 182.089844 163.375 181.839844 162.90625 181.636719 162.414062 C 181.433594 161.921875 181.277344 161.417969 181.175781 160.894531 C 181.074219 160.371094 181.019531 159.847656 181.019531 159.3125 C 181.023438 158.78125 181.074219 158.253906 181.179688 157.734375 C 181.28125 157.210938 181.4375 156.707031 181.640625 156.214844 C 181.84375 155.722656 182.09375 155.257812 182.390625 154.816406 C 182.6875 154.371094 183.023438 153.964844 183.398438 153.589844 C 183.777344 153.210938 184.1875 152.878906 184.628906 152.582031 C 185.070312 152.289062 185.539062 152.039062 186.03125 151.835938 C 186.523438 151.632812 187.027344 151.480469 187.550781 151.375 C 188.070312 151.273438 188.597656 151.222656 189.128906 151.222656 C 189.664062 151.222656 190.1875 151.277344 190.710938 151.382812 C 191.234375 151.484375 191.738281 151.640625 192.230469 151.84375 C 192.722656 152.050781 193.1875 152.300781 193.628906 152.597656 C 194.070312 152.894531 194.480469 153.230469 194.855469 153.605469 C 195.230469 153.984375 195.566406 154.394531 195.859375 154.835938 C 196.15625 155.277344 196.402344 155.746094 196.605469 156.238281 C 196.808594 156.730469 196.960938 157.238281 197.0625 157.757812 C 197.164062 158.28125 197.214844 158.808594 197.214844 159.339844 C 197.214844 159.871094 197.160156 160.394531 197.054688 160.917969 C 196.953125 161.4375 196.796875 161.941406 196.59375 162.433594 C 196.390625 162.921875 196.140625 163.386719 195.84375 163.828125 C 195.546875 164.269531 195.214844 164.675781 194.835938 165.050781 C 194.460938 165.425781 194.050781 165.761719 193.609375 166.058594 C 193.167969 166.351562 192.703125 166.601562 192.210938 166.804688 C 191.722656 167.003906 191.214844 167.160156 190.695312 167.261719 C 190.175781 167.367188 189.648438 167.417969 189.117188 167.417969 Z M 189.117188 167.417969 " fill-opacity="1" fill-rule="nonzero"/><path fill="#000000" d="M 205.890625 184.28125 C 205.332031 185.03125 204.753906 185.757812 204.15625 186.484375 C 211.1875 188.480469 215.796875 191.820312 215.796875 195.609375 C 215.796875 201.726562 203.855469 206.671875 189.117188 206.671875 C 174.378906 206.671875 162.4375 201.726562 162.4375 195.609375 C 162.4375 191.820312 167.046875 188.480469 174.082031 186.484375 C 173.484375 185.757812 172.90625 185.03125 172.347656 184.28125 C 165.089844 186.539062 159.808594 190.367188 159.808594 195.609375 C 159.808594 204.507812 174.921875 209.300781 189.117188 209.300781 C 203.316406 209.300781 218.429688 204.507812 218.429688 195.609375 C 218.429688 190.367188 213.148438 186.539062 205.890625 184.28125 Z M 205.890625 184.28125 " fill-opacity="1" fill-rule="nonzero"/></svg>