<svg xmlns="http://www.w3.org/2000/svg" xmlns:xlink="http://www.w3.org/1999/xlink" width="500" zoomAndPan="magnify" viewBox="0 0 375 374.999991" height="500" preserveAspectRatio="xMidYMid meet" version="1.0"><defs><g/></defs><g fill="#000000" fill-opacity="1"><g transform="translate(13.778095, 210.880652)"><g><path d="M 8.515625 -5.140625 C 8.359375 -6.941406 8.234375 -8.75 8.140625 -10.5625 C 8.046875 -12.375 8.019531 -14.160156 8.0625 -15.921875 C 8.0625 -17.773438 8.0625 -19.617188 8.0625 -21.453125 C 8.0625 -23.285156 8.0625 -25.082031 8.0625 -26.84375 C 8.0625 -27.875 7.953125 -28.460938 7.734375 -28.609375 C 7.515625 -28.753906 6.914062 -28.65625 5.9375 -28.3125 C 5.25 -28.019531 4.5625 -27.785156 3.875 -27.609375 C 3.195312 -27.441406 2.492188 -27.40625 1.765625 -27.5 C 1.515625 -27.5 1.265625 -27.523438 1.015625 -27.578125 C 0.773438 -27.628906 0.609375 -27.800781 0.515625 -28.09375 C 0.460938 -28.382812 0.519531 -28.613281 0.6875 -28.78125 C 0.863281 -28.957031 1.050781 -29.117188 1.25 -29.265625 C 1.976562 -29.847656 2.769531 -30.3125 3.625 -30.65625 C 4.476562 -31 5.375 -31.269531 6.3125 -31.46875 C 7.289062 -31.664062 7.863281 -31.859375 8.03125 -32.046875 C 8.195312 -32.242188 8.304688 -32.832031 8.359375 -33.8125 C 8.503906 -36.0625 8.6875 -38.273438 8.90625 -40.453125 C 9.125 -42.628906 9.503906 -44.816406 10.046875 -47.015625 C 10.734375 -49.753906 11.894531 -51.816406 13.53125 -53.203125 C 15.164062 -54.597656 17.40625 -55.367188 20.25 -55.515625 C 22.789062 -55.710938 25.269531 -55.566406 27.6875 -55.078125 C 30.101562 -54.585938 32.507812 -54.023438 34.90625 -53.390625 C 35.644531 -53.191406 35.988281 -52.65625 35.9375 -51.78125 C 35.882812 -51.34375 35.722656 -51.0625 35.453125 -50.9375 C 35.191406 -50.8125 34.863281 -50.726562 34.46875 -50.6875 C 33.144531 -50.632812 31.835938 -50.691406 30.546875 -50.859375 C 29.253906 -51.035156 27.945312 -51.21875 26.625 -51.40625 C 25.84375 -51.507812 25.0625 -51.609375 24.28125 -51.703125 C 23.5 -51.804688 22.71875 -51.90625 21.9375 -52 C 21.25 -52.09375 20.671875 -51.992188 20.203125 -51.703125 C 19.742188 -51.410156 19.363281 -50.972656 19.0625 -50.390625 C 18.726562 -49.703125 18.472656 -49.015625 18.296875 -48.328125 C 18.128906 -47.648438 17.992188 -46.941406 17.890625 -46.203125 C 17.546875 -43.953125 17.300781 -41.691406 17.15625 -39.421875 C 17.007812 -37.148438 16.914062 -34.863281 16.875 -32.5625 C 16.875 -31.832031 16.945312 -31.394531 17.09375 -31.25 C 17.238281 -31.101562 17.65625 -31.03125 18.34375 -31.03125 C 20.144531 -30.976562 21.910156 -31.023438 23.640625 -31.171875 C 25.378906 -31.316406 27.109375 -31.679688 28.828125 -32.265625 C 29.171875 -32.367188 29.5 -32.457031 29.8125 -32.53125 C 30.132812 -32.601562 30.460938 -32.613281 30.796875 -32.5625 C 31.441406 -32.414062 31.785156 -32.097656 31.828125 -31.609375 C 31.878906 -31.222656 31.6875 -30.878906 31.25 -30.578125 C 30.851562 -30.335938 30.445312 -30.144531 30.03125 -30 C 29.613281 -29.851562 29.1875 -29.726562 28.75 -29.625 C 27.082031 -29.1875 25.40625 -28.878906 23.71875 -28.703125 C 22.039062 -28.535156 20.367188 -28.429688 18.703125 -28.390625 C 17.773438 -28.335938 17.238281 -28.238281 17.09375 -28.09375 C 16.945312 -27.945312 16.875 -27.410156 16.875 -26.484375 C 16.820312 -22.367188 16.890625 -18.257812 17.078125 -14.15625 C 17.273438 -10.050781 17.5 -5.941406 17.75 -1.828125 C 17.800781 -1.390625 17.828125 -0.9375 17.828125 -0.46875 C 17.828125 -0.0078125 17.828125 0.4375 17.828125 0.875 C 17.773438 1.507812 17.613281 1.960938 17.34375 2.234375 C 17.070312 2.503906 16.617188 2.664062 15.984375 2.71875 C 15.253906 2.757812 14.507812 2.789062 13.75 2.8125 C 12.988281 2.84375 12.21875 2.859375 11.4375 2.859375 C 10.65625 2.859375 10.101562 2.734375 9.78125 2.484375 C 9.46875 2.242188 9.238281 1.707031 9.09375 0.875 C 8.945312 -0.101562 8.820312 -1.09375 8.71875 -2.09375 C 8.625 -3.09375 8.554688 -4.109375 8.515625 -5.140625 Z M 8.515625 -5.140625 "/></g></g></g><g fill="#000000" fill-opacity="1"><g transform="translate(48.176369, 210.880652)"><g><path d="M -2.5625 -24.421875 C -2.613281 -25.398438 -2.660156 -26.363281 -2.703125 -27.3125 C -2.753906 -28.269531 -2.804688 -29.09375 -2.859375 -29.78125 C -2.765625 -33.59375 -2.484375 -37.222656 -2.015625 -40.671875 C -1.546875 -44.117188 -0.753906 -47.503906 0.359375 -50.828125 C 0.898438 -52.441406 1.550781 -54.003906 2.3125 -55.515625 C 3.070312 -57.035156 3.988281 -58.457031 5.0625 -59.78125 C 5.9375 -60.945312 6.9375 -61.929688 8.0625 -62.734375 C 9.1875 -63.546875 10.507812 -64.097656 12.03125 -64.390625 C 13.832031 -64.734375 15.492188 -64.5 17.015625 -63.6875 C 18.535156 -62.882812 19.660156 -61.628906 20.390625 -59.921875 C 20.929688 -58.648438 21.273438 -57.363281 21.421875 -56.0625 C 21.566406 -54.769531 21.585938 -53.460938 21.484375 -52.140625 C 21.191406 -48.429688 20.363281 -44.816406 19 -41.296875 C 17.4375 -37.378906 15.734375 -33.550781 13.890625 -29.8125 C 12.054688 -26.070312 9.867188 -22.515625 7.328125 -19.140625 C 6.835938 -18.453125 6.617188 -17.742188 6.671875 -17.015625 C 6.816406 -14.617188 7.132812 -12.257812 7.625 -9.9375 C 8.113281 -7.613281 8.800781 -5.328125 9.6875 -3.078125 C 9.6875 -2.984375 9.707031 -2.882812 9.75 -2.78125 C 9.800781 -2.6875 9.851562 -2.59375 9.90625 -2.5 C 11.21875 0.0390625 12.953125 0.335938 15.109375 -1.609375 C 15.648438 -2.148438 16.140625 -2.738281 16.578125 -3.375 C 17.015625 -4.007812 17.429688 -4.644531 17.828125 -5.28125 C 19.046875 -7.4375 20.117188 -9.648438 21.046875 -11.921875 C 21.972656 -14.191406 22.953125 -16.425781 23.984375 -18.625 C 24.078125 -18.820312 24.160156 -19.019531 24.234375 -19.21875 C 24.304688 -19.414062 24.394531 -19.609375 24.5 -19.796875 C 24.789062 -20.429688 25.21875 -20.820312 25.78125 -20.96875 C 26.34375 -21.125 26.914062 -21.003906 27.5 -20.609375 C 27.75 -20.460938 27.875 -20.242188 27.875 -19.953125 C 27.820312 -19.703125 27.769531 -19.503906 27.71875 -19.359375 C 26.695312 -16.671875 25.679688 -13.984375 24.671875 -11.296875 C 23.671875 -8.609375 22.414062 -6.039062 20.90625 -3.59375 C 20.613281 -3.15625 20.304688 -2.726562 19.984375 -2.3125 C 19.671875 -1.894531 19.363281 -1.488281 19.0625 -1.09375 C 17.9375 0.320312 16.65625 1.296875 15.21875 1.828125 C 13.78125 2.367188 12.179688 2.539062 10.421875 2.34375 C 8.171875 2.144531 6.332031 1.164062 4.90625 -0.59375 C 3.976562 -1.757812 3.171875 -3.003906 2.484375 -4.328125 C 1.804688 -5.648438 1.222656 -7.019531 0.734375 -8.4375 C -0.191406 -11.03125 -0.910156 -13.65625 -1.421875 -16.3125 C -1.941406 -18.976562 -2.320312 -21.679688 -2.5625 -24.421875 Z M 5.9375 -24.859375 C 5.9375 -24.710938 5.960938 -24.539062 6.015625 -24.34375 C 6.066406 -24.15625 6.238281 -23.960938 6.53125 -23.765625 C 6.769531 -24.148438 6.988281 -24.523438 7.1875 -24.890625 C 7.382812 -25.265625 7.582031 -25.625 7.78125 -25.96875 C 8.75 -27.726562 9.648438 -29.507812 10.484375 -31.3125 C 11.316406 -33.125 12.125 -34.957031 12.90625 -36.8125 C 13.882812 -39.257812 14.675781 -41.753906 15.28125 -44.296875 C 15.894531 -46.835938 16.273438 -49.429688 16.421875 -52.078125 C 16.472656 -53.347656 16.398438 -54.582031 16.203125 -55.78125 C 16.015625 -56.976562 15.625 -58.160156 15.03125 -59.328125 C 14.101562 -61.191406 13.050781 -61.269531 11.875 -59.5625 C 11.488281 -58.96875 11.148438 -58.363281 10.859375 -57.75 C 10.566406 -57.144531 10.296875 -56.523438 10.046875 -55.890625 C 8.191406 -50.847656 6.96875 -45.75 6.375 -40.59375 C 5.789062 -35.4375 5.644531 -30.191406 5.9375 -24.859375 Z M 5.9375 -24.859375 "/></g></g></g><g fill="#000000" fill-opacity="1"><g transform="translate(72.379845, 210.880652)"><g><path d="M 18.046875 -20.90625 C 18.046875 -20.90625 17.921875 -20.851562 17.671875 -20.75 C 17.671875 -20.601562 17.671875 -20.457031 17.671875 -20.3125 C 17.671875 -20.164062 17.695312 -20.019531 17.75 -19.875 C 18.382812 -17.476562 18.566406 -15.117188 18.296875 -12.796875 C 18.023438 -10.472656 17.425781 -8.1875 16.5 -5.9375 C 15.476562 -3.445312 14 -1.710938 12.0625 -0.734375 C 10.132812 0.242188 7.875 0.441406 5.28125 -0.140625 C 3.914062 -0.484375 2.765625 -1.054688 1.828125 -1.859375 C 0.898438 -2.671875 0.144531 -3.664062 -0.4375 -4.84375 C -1.125 -6.164062 -1.578125 -7.519531 -1.796875 -8.90625 C -2.015625 -10.300781 -2.078125 -11.707031 -1.984375 -13.125 C -1.734375 -15.71875 -1.226562 -18.222656 -0.46875 -20.640625 C 0.28125 -23.066406 1.363281 -25.351562 2.78125 -27.5 C 3.226562 -28.1875 3.707031 -28.832031 4.21875 -29.4375 C 4.726562 -30.050781 5.300781 -30.601562 5.9375 -31.09375 C 7.0625 -31.925781 8.078125 -32.34375 8.984375 -32.34375 C 9.890625 -32.34375 10.878906 -31.953125 11.953125 -31.171875 C 12.390625 -30.828125 12.816406 -30.472656 13.234375 -30.109375 C 13.648438 -29.742188 14.054688 -29.363281 14.453125 -28.96875 C 14.742188 -28.675781 15.035156 -28.382812 15.328125 -28.09375 C 15.617188 -27.800781 15.910156 -27.503906 16.203125 -27.203125 C 17.960938 -25.398438 19.894531 -24.117188 22 -23.359375 C 24.101562 -22.597656 26.425781 -22.5625 28.96875 -23.25 C 29.363281 -23.34375 29.765625 -23.425781 30.171875 -23.5 C 30.585938 -23.570312 30.992188 -23.632812 31.390625 -23.6875 C 31.734375 -23.789062 32.039062 -23.789062 32.3125 -23.6875 C 32.582031 -23.59375 32.765625 -23.347656 32.859375 -22.953125 C 33.054688 -22.171875 32.738281 -21.660156 31.90625 -21.421875 C 29.851562 -20.929688 27.785156 -20.550781 25.703125 -20.28125 C 23.628906 -20.007812 21.539062 -20.117188 19.4375 -20.609375 C 19.1875 -20.703125 18.953125 -20.757812 18.734375 -20.78125 C 18.515625 -20.8125 18.285156 -20.851562 18.046875 -20.90625 Z M 10.5625 -25.671875 C 10.414062 -25.867188 10.269531 -26.0625 10.125 -26.25 C 9.976562 -26.445312 9.757812 -26.597656 9.46875 -26.703125 C 9.070312 -26.253906 8.75 -25.773438 8.5 -25.265625 C 8.257812 -24.753906 8.039062 -24.226562 7.84375 -23.6875 C 7.40625 -22.269531 7.039062 -20.828125 6.75 -19.359375 C 6.457031 -17.890625 6.210938 -16.425781 6.015625 -14.96875 C 5.765625 -13.394531 5.648438 -11.828125 5.671875 -10.265625 C 5.703125 -8.703125 5.960938 -7.140625 6.453125 -5.578125 C 6.546875 -5.179688 6.664062 -4.785156 6.8125 -4.390625 C 6.96875 -4.003906 7.191406 -3.640625 7.484375 -3.296875 C 8.265625 -2.273438 9.144531 -2.203125 10.125 -3.078125 C 10.800781 -3.710938 11.382812 -4.546875 11.875 -5.578125 C 13.539062 -9.046875 14.210938 -12.453125 13.890625 -15.796875 C 13.578125 -19.148438 12.46875 -22.441406 10.5625 -25.671875 Z M 10.5625 -25.671875 "/></g></g></g><g fill="#000000" fill-opacity="1"><g transform="translate(101.644058, 210.880652)"><g><path d="M 14.15625 -35.421875 C 14.15625 -35.617188 14.175781 -35.828125 14.21875 -36.046875 C 14.269531 -36.265625 14.25 -36.519531 14.15625 -36.8125 C 12.976562 -36.957031 11.789062 -37.09375 10.59375 -37.21875 C 9.394531 -37.34375 8.210938 -37.550781 7.046875 -37.84375 C 6.941406 -36.71875 6.835938 -35.628906 6.734375 -34.578125 C 6.640625 -33.523438 6.570312 -32.488281 6.53125 -31.46875 C 6.1875 -26.625 5.644531 -21.789062 4.90625 -16.96875 C 4.175781 -12.15625 3.300781 -7.351562 2.28125 -2.5625 C 2.28125 -2.46875 2.265625 -2.367188 2.234375 -2.265625 C 2.210938 -2.171875 2.175781 -2.078125 2.125 -1.984375 C 1.632812 0.0234375 0.4375 0.613281 -1.46875 -0.21875 C -1.757812 -0.3125 -1.925781 -0.46875 -1.96875 -0.6875 C -2.019531 -0.914062 -2.046875 -1.148438 -2.046875 -1.390625 C -2.003906 -2.316406 -1.921875 -3.242188 -1.796875 -4.171875 C -1.671875 -5.109375 -1.535156 -6.039062 -1.390625 -6.96875 C -0.753906 -10.488281 -0.253906 -14.03125 0.109375 -17.59375 C 0.472656 -21.164062 0.753906 -24.765625 0.953125 -28.390625 C 1.046875 -30.097656 1.164062 -31.796875 1.3125 -33.484375 C 1.46875 -35.171875 1.617188 -36.84375 1.765625 -38.5 C 1.765625 -38.800781 1.800781 -39.082031 1.875 -39.34375 C 1.945312 -39.613281 2.003906 -39.875 2.046875 -40.125 C 2.148438 -41.195312 2.765625 -41.632812 3.890625 -41.4375 C 4.765625 -41.34375 5.617188 -41.234375 6.453125 -41.109375 C 7.285156 -40.984375 8.09375 -40.703125 8.875 -40.265625 C 9.601562 -39.828125 10.367188 -39.535156 11.171875 -39.390625 C 11.984375 -39.242188 12.804688 -39.144531 13.640625 -39.09375 C 14.617188 -39.039062 15.597656 -39.015625 16.578125 -39.015625 C 17.554688 -39.015625 18.535156 -39.015625 19.515625 -39.015625 C 20.878906 -39.015625 21.84375 -38.707031 22.40625 -38.09375 C 22.96875 -37.488281 23.148438 -36.5 22.953125 -35.125 C 22.710938 -33.269531 22.429688 -31.398438 22.109375 -29.515625 C 21.796875 -27.640625 21.515625 -25.769531 21.265625 -23.90625 C 20.773438 -20.675781 20.429688 -17.460938 20.234375 -14.265625 C 20.046875 -11.066406 20.023438 -7.851562 20.171875 -4.625 C 20.222656 -3.300781 20.34375 -1.96875 20.53125 -0.625 C 20.726562 0.71875 21.023438 2.023438 21.421875 3.296875 C 21.660156 4.078125 21.9375 4.503906 22.25 4.578125 C 22.570312 4.648438 23.023438 4.421875 23.609375 3.890625 C 24.492188 3.148438 25.265625 2.316406 25.921875 1.390625 C 26.585938 0.460938 27.210938 -0.488281 27.796875 -1.46875 C 28.972656 -3.570312 29.988281 -5.722656 30.84375 -7.921875 C 31.695312 -10.117188 32.515625 -12.367188 33.296875 -14.671875 C 33.785156 -16.179688 34.3125 -17.707031 34.875 -19.25 C 35.4375 -20.789062 35.988281 -22.320312 36.53125 -23.84375 C 36.625 -24.082031 36.726562 -24.335938 36.84375 -24.609375 C 36.96875 -24.878906 37.179688 -25.035156 37.484375 -25.078125 C 37.921875 -25.078125 38.367188 -25.050781 38.828125 -25 C 39.296875 -24.957031 39.726562 -24.8125 40.125 -24.5625 C 40.269531 -24.46875 40.34375 -24.332031 40.34375 -24.15625 C 40.34375 -23.988281 40.316406 -23.804688 40.265625 -23.609375 C 40.171875 -23.222656 40.070312 -22.832031 39.96875 -22.4375 C 39.875 -22.050781 39.773438 -21.660156 39.671875 -21.265625 C 38.648438 -17.890625 37.5625 -14.5625 36.40625 -11.28125 C 35.257812 -8.007812 33.859375 -4.8125 32.203125 -1.6875 C 31.515625 -0.363281 30.742188 0.894531 29.890625 2.09375 C 29.035156 3.289062 28.066406 4.425781 26.984375 5.5 C 26.160156 6.332031 25.015625 6.878906 23.546875 7.140625 C 22.078125 7.410156 20.644531 7.398438 19.25 7.109375 C 17.851562 6.816406 16.816406 6.28125 16.140625 5.5 C 15.503906 4.769531 14.941406 3.960938 14.453125 3.078125 C 13.367188 1.078125 12.609375 -1.019531 12.171875 -3.21875 C 11.734375 -5.425781 11.488281 -7.65625 11.4375 -9.90625 C 11.394531 -18.40625 12.300781 -26.910156 14.15625 -35.421875 Z M 14.15625 -35.421875 "/></g></g></g><g fill="#000000" fill-opacity="1"><g transform="translate(136.702424, 210.880652)"><g><path d="M 21.5625 -21.484375 C 22.144531 -21.242188 22.425781 -20.9375 22.40625 -20.5625 C 22.382812 -20.195312 22.273438 -19.820312 22.078125 -19.4375 C 21.191406 -17.382812 20.296875 -15.304688 19.390625 -13.203125 C 18.492188 -11.097656 17.582031 -8.992188 16.65625 -6.890625 C 16.351562 -6.253906 16.054688 -5.628906 15.765625 -5.015625 C 15.472656 -4.410156 15.15625 -3.789062 14.8125 -3.15625 C 13.976562 -1.738281 12.816406 -0.757812 11.328125 -0.21875 C 9.835938 0.320312 8.3125 0.421875 6.75 0.078125 C 5.1875 -0.265625 3.914062 -1.097656 2.9375 -2.421875 C 2.300781 -3.253906 1.796875 -4.132812 1.421875 -5.0625 C 1.054688 -5.988281 0.753906 -6.941406 0.515625 -7.921875 C 0.117188 -9.429688 -0.132812 -10.96875 -0.25 -12.53125 C -0.375 -14.101562 -0.410156 -15.570312 -0.359375 -16.9375 C -0.410156 -19.96875 -0.226562 -22.875 0.1875 -25.65625 C 0.601562 -28.445312 1.175781 -31.210938 1.90625 -33.953125 C 1.957031 -34.242188 2.039062 -34.535156 2.15625 -34.828125 C 2.28125 -35.128906 2.394531 -35.425781 2.5 -35.71875 C 2.738281 -36.40625 3.203125 -36.722656 3.890625 -36.671875 C 4.035156 -36.671875 4.15625 -36.671875 4.25 -36.671875 C 4.351562 -36.671875 4.453125 -36.671875 4.546875 -36.671875 C 6.015625 -36.617188 6.878906 -36.457031 7.140625 -36.1875 C 7.410156 -35.925781 7.472656 -35.085938 7.328125 -33.671875 C 7.140625 -30.734375 6.945312 -27.820312 6.75 -24.9375 C 6.550781 -22.050781 6.5 -19.164062 6.59375 -16.28125 C 6.644531 -14.664062 6.695312 -13.0625 6.75 -11.46875 C 6.800781 -9.882812 6.972656 -8.3125 7.265625 -6.75 C 7.359375 -6.113281 7.503906 -5.5 7.703125 -4.90625 C 7.898438 -4.320312 8.144531 -3.765625 8.4375 -3.234375 C 9.070312 -2.109375 9.734375 -2.054688 10.421875 -3.078125 C 10.710938 -3.472656 10.96875 -3.890625 11.1875 -4.328125 C 11.40625 -4.765625 11.632812 -5.203125 11.875 -5.640625 C 13.101562 -7.992188 14.316406 -10.351562 15.515625 -12.71875 C 16.710938 -15.09375 17.921875 -17.453125 19.140625 -19.796875 C 19.191406 -19.941406 19.253906 -20.078125 19.328125 -20.203125 C 19.398438 -20.328125 19.460938 -20.460938 19.515625 -20.609375 C 19.847656 -21.242188 20.125 -21.597656 20.34375 -21.671875 C 20.570312 -21.742188 20.976562 -21.679688 21.5625 -21.484375 Z M 6.15625 -40.5625 C 4.101562 -40.507812 3.050781 -41.316406 3 -42.984375 C 2.957031 -43.910156 3.226562 -44.703125 3.8125 -45.359375 C 4.394531 -46.023438 5.101562 -46.359375 5.9375 -46.359375 C 6.96875 -46.359375 7.785156 -46.113281 8.390625 -45.625 C 9.003906 -45.132812 9.3125 -44.445312 9.3125 -43.5625 C 9.3125 -41.601562 8.257812 -40.601562 6.15625 -40.5625 Z M 6.15625 -40.5625 "/></g></g></g><g fill="#000000" fill-opacity="1"><g transform="translate(156.285238, 210.880652)"><g><path d="M 7.265625 -32.046875 C 7.160156 -32.191406 7.0625 -32.347656 6.96875 -32.515625 C 6.875 -32.691406 6.726562 -32.90625 6.53125 -33.15625 C 6.1875 -31.78125 5.90625 -30.457031 5.6875 -29.1875 C 5.46875 -27.914062 5.234375 -26.671875 4.984375 -25.453125 C 4.148438 -21.003906 3.070312 -16.640625 1.75 -12.359375 C 0.4375 -8.078125 -1.070312 -3.859375 -2.78125 0.296875 C -3.125 1.222656 -3.46875 1.769531 -3.8125 1.9375 C -4.15625 2.113281 -4.742188 2.128906 -5.578125 1.984375 C -6.410156 1.835938 -6.703125 1.375 -6.453125 0.59375 C -6.210938 -0.0390625 -5.992188 -0.6875 -5.796875 -1.34375 C -5.597656 -2.007812 -5.378906 -2.6875 -5.140625 -3.375 C -3.378906 -8.507812 -1.910156 -13.71875 -0.734375 -19 C 0.441406 -24.28125 1.59375 -29.582031 2.71875 -34.90625 C 2.90625 -35.789062 3.097656 -36.671875 3.296875 -37.546875 C 3.492188 -38.429688 3.691406 -39.289062 3.890625 -40.125 C 4.523438 -42.707031 5.894531 -43.21875 8 -41.65625 C 9.457031 -40.53125 10.628906 -39.257812 11.515625 -37.84375 C 13.273438 -35.007812 14.925781 -32.097656 16.46875 -29.109375 C 18.007812 -26.128906 19.289062 -23.023438 20.3125 -19.796875 C 20.601562 -18.972656 20.847656 -18.507812 21.046875 -18.40625 C 21.242188 -18.3125 21.78125 -18.4375 22.65625 -18.78125 C 23.78125 -19.269531 24.878906 -19.78125 25.953125 -20.3125 C 27.035156 -20.851562 28.066406 -21.46875 29.046875 -22.15625 C 29.285156 -22.34375 29.539062 -22.519531 29.8125 -22.6875 C 30.082031 -22.863281 30.363281 -23.003906 30.65625 -23.109375 C 31.539062 -23.296875 32.128906 -23.050781 32.421875 -22.375 C 32.566406 -22.082031 32.550781 -21.820312 32.375 -21.59375 C 32.207031 -21.375 32.023438 -21.164062 31.828125 -20.96875 C 30.992188 -20.382812 30.132812 -19.800781 29.25 -19.21875 C 28.375 -18.632812 27.472656 -18.117188 26.546875 -17.671875 C 26.054688 -17.429688 25.554688 -17.203125 25.046875 -16.984375 C 24.535156 -16.765625 24.035156 -16.554688 23.546875 -16.359375 C 22.566406 -16.015625 22.015625 -15.734375 21.890625 -15.515625 C 21.765625 -15.296875 21.800781 -14.71875 22 -13.78125 C 22.144531 -13.25 22.253906 -12.703125 22.328125 -12.140625 C 22.398438 -11.578125 22.488281 -11.023438 22.59375 -10.484375 C 22.789062 -9.410156 22.835938 -8.347656 22.734375 -7.296875 C 22.640625 -6.242188 22.46875 -5.179688 22.21875 -4.109375 C 21.632812 -1.910156 20.363281 -0.175781 18.40625 1.09375 C 16.695312 2.269531 14.898438 2.957031 13.015625 3.15625 C 11.128906 3.351562 9.234375 3.109375 7.328125 2.421875 C 5.617188 1.835938 4.3125 0.910156 3.40625 -0.359375 C 2.5 -1.640625 2.046875 -3.0625 2.046875 -4.625 C 2.046875 -6.1875 2.5625 -7.703125 3.59375 -9.171875 C 4.519531 -10.484375 5.609375 -11.554688 6.859375 -12.390625 C 8.109375 -13.222656 9.441406 -13.957031 10.859375 -14.59375 C 11.691406 -14.988281 12.265625 -15.304688 12.578125 -15.546875 C 12.898438 -15.796875 13.035156 -16.113281 12.984375 -16.5 C 12.929688 -16.894531 12.785156 -17.507812 12.546875 -18.34375 C 11.804688 -20.6875 10.972656 -22.992188 10.046875 -25.265625 C 9.117188 -27.535156 8.191406 -29.796875 7.265625 -32.046875 Z M 14.515625 -1.984375 C 14.765625 -2.660156 14.9375 -3.351562 15.03125 -4.0625 C 15.132812 -4.78125 15.1875 -5.429688 15.1875 -6.015625 C 15.1875 -7.140625 15.097656 -8.175781 14.921875 -9.125 C 14.753906 -10.082031 14.546875 -11.023438 14.296875 -11.953125 C 14.148438 -12.734375 13.757812 -12.953125 13.125 -12.609375 C 11.851562 -11.972656 10.703125 -11.210938 9.671875 -10.328125 C 8.648438 -9.453125 7.867188 -8.332031 7.328125 -6.96875 C 6.890625 -5.695312 6.828125 -4.484375 7.140625 -3.328125 C 7.460938 -2.179688 8.140625 -1.21875 9.171875 -0.4375 C 10.242188 0.34375 11.28125 0.585938 12.28125 0.296875 C 13.28125 0.00390625 14.023438 -0.753906 14.515625 -1.984375 Z M 14.515625 -1.984375 "/></g></g></g><g fill="#000000" fill-opacity="1"><g transform="translate(185.182722, 210.880652)"><g><path d="M 0.515625 -8.796875 C 0.0234375 -11.785156 -0.316406 -14.757812 -0.515625 -17.71875 C -0.710938 -20.675781 -0.710938 -23.570312 -0.515625 -26.40625 C -0.609375 -29.332031 -0.53125 -32.191406 -0.28125 -34.984375 C -0.0390625 -37.773438 0.25 -40.5625 0.59375 -43.34375 C 0.738281 -44.226562 0.734375 -44.742188 0.578125 -44.890625 C 0.429688 -45.035156 -0.101562 -45.109375 -1.03125 -45.109375 C -1.707031 -45.109375 -2.398438 -45.109375 -3.109375 -45.109375 C -3.828125 -45.109375 -4.523438 -45.109375 -5.203125 -45.109375 C -5.597656 -45.160156 -5.988281 -45.222656 -6.375 -45.296875 C -6.769531 -45.367188 -6.941406 -45.722656 -6.890625 -46.359375 C -6.890625 -46.941406 -6.800781 -47.351562 -6.625 -47.59375 C -6.457031 -47.84375 -6.054688 -48.015625 -5.421875 -48.109375 C -4.492188 -48.253906 -3.566406 -48.390625 -2.640625 -48.515625 C -1.710938 -48.640625 -0.785156 -48.726562 0.140625 -48.78125 C 1.117188 -48.875 1.707031 -49.410156 1.90625 -50.390625 C 2.101562 -51.316406 2.332031 -52.21875 2.59375 -53.09375 C 2.863281 -53.976562 3.148438 -54.859375 3.453125 -55.734375 C 3.785156 -56.710938 4.441406 -57.179688 5.421875 -57.140625 C 6.109375 -57.085938 6.78125 -57.070312 7.4375 -57.09375 C 8.101562 -57.125 8.753906 -57.140625 9.390625 -57.140625 C 10.117188 -57.085938 10.566406 -56.960938 10.734375 -56.765625 C 10.910156 -56.566406 11 -56.101562 11 -55.375 C 11.050781 -54.15625 11.023438 -52.910156 10.921875 -51.640625 C 10.828125 -50.660156 10.851562 -50.082031 11 -49.90625 C 11.144531 -49.738281 11.734375 -49.65625 12.765625 -49.65625 C 14.816406 -49.707031 16.878906 -49.804688 18.953125 -49.953125 C 21.035156 -50.097656 23.101562 -50.117188 25.15625 -50.015625 C 26.039062 -50.015625 26.929688 -50.015625 27.828125 -50.015625 C 28.734375 -50.015625 29.648438 -49.96875 30.578125 -49.875 C 31.367188 -49.820312 31.875 -49.648438 32.09375 -49.359375 C 32.3125 -49.066406 32.367188 -48.550781 32.265625 -47.8125 C 32.171875 -47.28125 31.925781 -46.988281 31.53125 -46.9375 C 31.195312 -46.882812 30.878906 -46.832031 30.578125 -46.78125 C 30.285156 -46.738281 29.96875 -46.71875 29.625 -46.71875 C 26.789062 -46.570312 23.941406 -46.425781 21.078125 -46.28125 C 18.222656 -46.132812 15.351562 -45.960938 12.46875 -45.765625 C 11.4375 -45.710938 10.820312 -45.601562 10.625 -45.4375 C 10.4375 -45.269531 10.269531 -44.644531 10.125 -43.5625 C 9.832031 -40.925781 9.597656 -38.273438 9.421875 -35.609375 C 9.253906 -32.941406 9.070312 -30.289062 8.875 -27.65625 C 8.675781 -24.664062 8.550781 -21.691406 8.5 -18.734375 C 8.457031 -15.773438 8.460938 -12.804688 8.515625 -9.828125 C 8.554688 -8.117188 8.710938 -6.429688 8.984375 -4.765625 C 9.253906 -3.109375 9.582031 -1.445312 9.96875 0.21875 C 10.113281 0.851562 10.335938 1.515625 10.640625 2.203125 C 11.128906 3.179688 11.640625 3.707031 12.171875 3.78125 C 12.710938 3.851562 13.347656 3.472656 14.078125 2.640625 C 14.367188 2.347656 14.625 2.03125 14.84375 1.6875 C 15.070312 1.34375 15.28125 1 15.46875 0.65625 C 16.5 -1.050781 17.34375 -2.804688 18 -4.609375 C 18.664062 -6.421875 19.335938 -8.234375 20.015625 -10.046875 C 20.554688 -11.460938 21.054688 -12.867188 21.515625 -14.265625 C 21.984375 -15.660156 22.460938 -17.066406 22.953125 -18.484375 C 23.054688 -18.773438 23.15625 -19.066406 23.25 -19.359375 C 23.34375 -19.648438 23.585938 -19.796875 23.984375 -19.796875 C 24.960938 -19.847656 25.796875 -19.601562 26.484375 -19.0625 C 26.628906 -18.914062 26.703125 -18.757812 26.703125 -18.59375 C 26.703125 -18.425781 26.675781 -18.265625 26.625 -18.109375 C 25.695312 -14.929688 24.789062 -11.765625 23.90625 -8.609375 C 23.03125 -5.460938 21.8125 -2.421875 20.25 0.515625 C 19.945312 1.097656 19.578125 1.6875 19.140625 2.28125 C 17.773438 4.28125 16.085938 5.507812 14.078125 5.96875 C 12.078125 6.4375 9.953125 6.328125 7.703125 5.640625 C 6.867188 5.398438 6.15625 4.960938 5.5625 4.328125 C 4.976562 3.691406 4.46875 2.984375 4.03125 2.203125 C 3.101562 0.492188 2.359375 -1.285156 1.796875 -3.140625 C 1.234375 -5.003906 0.804688 -6.890625 0.515625 -8.796875 Z M 0.515625 -8.796875 "/></g></g></g><g fill="#000000" fill-opacity="1"><g transform="translate(208.13936, 210.880652)"><g/></g></g><g fill="#000000" fill-opacity="1"><g transform="translate(231.169345, 210.880652)"><g><path d="M 10.5625 -4.546875 C 10.5625 -6.546875 10.5625 -8.523438 10.5625 -10.484375 C 10.5625 -12.441406 10.5625 -14.421875 10.5625 -16.421875 C 10.46875 -18.484375 10.492188 -20.550781 10.640625 -22.625 C 10.785156 -24.707031 10.878906 -26.773438 10.921875 -28.828125 C 10.921875 -29.703125 10.835938 -30.210938 10.671875 -30.359375 C 10.503906 -30.503906 10.003906 -30.457031 9.171875 -30.21875 C 7.453125 -29.675781 6.03125 -28.75 4.90625 -27.4375 C 4.757812 -27.332031 4.648438 -27.191406 4.578125 -27.015625 C 4.503906 -26.847656 4.394531 -26.71875 4.25 -26.625 C 3.90625 -26.332031 3.425781 -26.171875 2.8125 -26.140625 C 2.207031 -26.117188 1.785156 -26.253906 1.546875 -26.546875 C 1.242188 -26.890625 1.140625 -27.242188 1.234375 -27.609375 C 1.335938 -27.972656 1.488281 -28.328125 1.6875 -28.671875 C 1.976562 -29.160156 2.316406 -29.585938 2.703125 -29.953125 C 3.097656 -30.328125 3.539062 -30.6875 4.03125 -31.03125 C 5.695312 -32.195312 7.53125 -32.90625 9.53125 -33.15625 C 10.65625 -33.300781 11.21875 -33.9375 11.21875 -35.0625 C 11.21875 -35.40625 11.21875 -35.742188 11.21875 -36.078125 C 11.21875 -36.421875 11.21875 -36.765625 11.21875 -37.109375 C 11.269531 -39.648438 11.351562 -42.179688 11.46875 -44.703125 C 11.59375 -47.222656 11.828125 -49.726562 12.171875 -52.21875 C 12.273438 -53.25 12.398438 -53.972656 12.546875 -54.390625 C 12.691406 -54.804688 12.984375 -55.050781 13.421875 -55.125 C 13.859375 -55.195312 14.566406 -55.207031 15.546875 -55.15625 C 16.617188 -55.15625 17.375 -55.101562 17.8125 -55 C 18.257812 -54.90625 18.566406 -54.640625 18.734375 -54.203125 C 18.910156 -53.765625 19.070312 -53.03125 19.21875 -52 C 19.414062 -50.488281 19.5625 -48.972656 19.65625 -47.453125 C 19.75 -45.941406 19.796875 -44.425781 19.796875 -42.90625 C 19.753906 -41.539062 19.734375 -40.160156 19.734375 -38.765625 C 19.734375 -37.367188 19.707031 -35.988281 19.65625 -34.625 C 19.65625 -34.175781 19.738281 -33.816406 19.90625 -33.546875 C 20.082031 -33.285156 20.414062 -33.128906 20.90625 -33.078125 C 22.757812 -32.878906 24.613281 -32.769531 26.46875 -32.75 C 28.332031 -32.726562 30.191406 -32.71875 32.046875 -32.71875 C 32.585938 -32.71875 32.929688 -32.863281 33.078125 -33.15625 C 33.222656 -33.445312 33.320312 -33.8125 33.375 -34.25 C 33.570312 -36.84375 33.890625 -39.429688 34.328125 -42.015625 C 34.765625 -44.609375 35.226562 -47.203125 35.71875 -49.796875 C 35.914062 -50.679688 36.144531 -51.550781 36.40625 -52.40625 C 36.675781 -53.257812 36.960938 -54.101562 37.265625 -54.9375 C 37.648438 -56.007812 38.359375 -56.519531 39.390625 -56.46875 C 40.210938 -56.46875 41.015625 -56.476562 41.796875 -56.5 C 42.585938 -56.53125 43.375 -56.546875 44.15625 -56.546875 C 44.789062 -56.546875 45.164062 -56.472656 45.28125 -56.328125 C 45.40625 -56.179688 45.394531 -55.816406 45.25 -55.234375 C 44.375 -52.390625 43.691406 -49.5 43.203125 -46.5625 C 42.710938 -43.632812 42.148438 -40.703125 41.515625 -37.765625 C 41.410156 -37.234375 41.3125 -36.671875 41.21875 -36.078125 C 41.125 -35.492188 41.023438 -34.910156 40.921875 -34.328125 C 40.773438 -33.492188 41.144531 -33.175781 42.03125 -33.375 C 42.320312 -33.414062 42.613281 -33.472656 42.90625 -33.546875 C 43.195312 -33.628906 43.515625 -33.691406 43.859375 -33.734375 C 44.054688 -33.785156 44.25 -33.847656 44.4375 -33.921875 C 44.632812 -33.992188 44.832031 -34.03125 45.03125 -34.03125 C 45.375 -34.03125 45.71875 -34.015625 46.0625 -33.984375 C 46.40625 -33.960938 46.625 -33.707031 46.71875 -33.21875 C 46.8125 -32.832031 46.722656 -32.539062 46.453125 -32.34375 C 46.191406 -32.144531 45.914062 -32 45.625 -31.90625 C 45.175781 -31.757812 44.71875 -31.613281 44.25 -31.46875 C 43.789062 -31.320312 43.316406 -31.222656 42.828125 -31.171875 C 41.992188 -31.078125 41.394531 -30.976562 41.03125 -30.875 C 40.664062 -30.78125 40.421875 -30.535156 40.296875 -30.140625 C 40.179688 -29.753906 40.070312 -29.09375 39.96875 -28.15625 C 39.476562 -24.007812 39.195312 -19.867188 39.125 -15.734375 C 39.050781 -11.597656 39.382812 -7.476562 40.125 -3.375 C 40.3125 -2.25 40.5625 -1.160156 40.875 -0.109375 C 41.195312 0.941406 41.601562 1.957031 42.09375 2.9375 C 42.238281 3.28125 42.394531 3.617188 42.5625 3.953125 C 42.738281 4.296875 42.953125 4.613281 43.203125 4.90625 C 43.734375 5.695312 44.171875 6.101562 44.515625 6.125 C 44.859375 6.144531 45.375 5.816406 46.0625 5.140625 C 46.894531 4.304688 47.613281 3.382812 48.21875 2.375 C 48.832031 1.375 49.382812 0.335938 49.875 -0.734375 C 50.894531 -2.878906 51.832031 -5.066406 52.6875 -7.296875 C 53.550781 -9.523438 54.445312 -11.738281 55.375 -13.9375 C 55.46875 -14.226562 55.5625 -14.492188 55.65625 -14.734375 C 55.757812 -14.984375 55.882812 -15.226562 56.03125 -15.46875 C 56.664062 -16.988281 57.691406 -17.304688 59.109375 -16.421875 C 59.453125 -16.234375 59.585938 -16.003906 59.515625 -15.734375 C 59.441406 -15.460938 59.359375 -15.207031 59.265625 -14.96875 C 58.378906 -12.375 57.457031 -9.804688 56.5 -7.265625 C 55.550781 -4.722656 54.46875 -2.226562 53.25 0.21875 C 52.757812 1.25 52.195312 2.210938 51.5625 3.109375 C 50.925781 4.015625 50.265625 4.910156 49.578125 5.796875 C 47.960938 7.796875 45.835938 8.675781 43.203125 8.4375 C 42.117188 8.332031 41.1875 8.023438 40.40625 7.515625 C 39.625 7.003906 38.914062 6.359375 38.28125 5.578125 C 37.5 4.691406 36.851562 3.722656 36.34375 2.671875 C 35.832031 1.617188 35.378906 0.53125 34.984375 -0.59375 C 34.203125 -2.9375 33.628906 -5.316406 33.265625 -7.734375 C 32.898438 -10.160156 32.664062 -12.59375 32.5625 -15.03125 C 32.414062 -17.28125 32.390625 -19.503906 32.484375 -21.703125 C 32.585938 -23.910156 32.710938 -26.113281 32.859375 -28.3125 C 32.910156 -29.238281 32.859375 -29.785156 32.703125 -29.953125 C 32.554688 -30.128906 32.019531 -30.21875 31.09375 -30.21875 C 29.382812 -30.21875 27.6875 -30.21875 26 -30.21875 C 24.3125 -30.21875 22.613281 -30.21875 20.90625 -30.21875 C 20.21875 -30.21875 19.800781 -30.15625 19.65625 -30.03125 C 19.507812 -29.90625 19.410156 -29.476562 19.359375 -28.75 C 18.972656 -24.59375 18.65625 -20.421875 18.40625 -16.234375 C 18.164062 -12.054688 17.972656 -7.867188 17.828125 -3.671875 C 17.722656 -2.097656 17.570312 -0.96875 17.375 -0.28125 C 17.1875 0.394531 16.738281 0.804688 16.03125 0.953125 C 15.320312 1.097656 14.179688 1.125 12.609375 1.03125 C 11.785156 0.976562 11.273438 0.535156 11.078125 -0.296875 C 10.878906 -0.972656 10.742188 -1.675781 10.671875 -2.40625 C 10.597656 -3.144531 10.5625 -3.859375 10.5625 -4.546875 Z M 10.5625 -4.546875 "/></g></g></g><g fill="#000000" fill-opacity="1"><g transform="translate(286.030563, 210.880652)"><g><path d="M 22.21875 -20.46875 C 22.21875 -20.363281 22.195312 -20.289062 22.15625 -20.25 C 21.8125 -20 21.585938 -19.710938 21.484375 -19.390625 C 21.390625 -19.078125 21.269531 -18.773438 21.125 -18.484375 C 20.539062 -17.109375 19.953125 -15.738281 19.359375 -14.375 C 18.773438 -13.007812 18.191406 -11.640625 17.609375 -10.265625 C 16.867188 -8.648438 15.960938 -7.1875 14.890625 -5.875 C 13.765625 -4.445312 12.234375 -3.515625 10.296875 -3.078125 C 8.367188 -2.640625 6.597656 -2.8125 4.984375 -3.59375 C 4.296875 -3.9375 3.742188 -4.375 3.328125 -4.90625 C 2.921875 -5.445312 2.570312 -6.035156 2.28125 -6.671875 C 1.6875 -7.941406 1.265625 -9.257812 1.015625 -10.625 C 0.773438 -12 0.609375 -13.367188 0.515625 -14.734375 C 0.367188 -18.359375 0.351562 -21.976562 0.46875 -25.59375 C 0.59375 -29.21875 0.875 -32.835938 1.3125 -36.453125 C 1.363281 -36.742188 1.425781 -37.023438 1.5 -37.296875 C 1.570312 -37.566406 1.609375 -37.820312 1.609375 -38.0625 C 1.710938 -38.601562 2.054688 -38.898438 2.640625 -38.953125 C 3.421875 -39.046875 4.226562 -39.128906 5.0625 -39.203125 C 5.894531 -39.273438 6.722656 -39.335938 7.546875 -39.390625 C 8.191406 -39.390625 8.597656 -39.316406 8.765625 -39.171875 C 8.929688 -39.023438 8.992188 -38.609375 8.953125 -37.921875 C 8.847656 -36.160156 8.757812 -34.398438 8.6875 -32.640625 C 8.613281 -30.878906 8.503906 -29.117188 8.359375 -27.359375 C 8.117188 -24.710938 7.921875 -22.066406 7.765625 -19.421875 C 7.617188 -16.785156 7.71875 -14.125 8.0625 -11.4375 C 8.164062 -10.707031 8.273438 -9.988281 8.390625 -9.28125 C 8.515625 -8.570312 8.75 -7.898438 9.09375 -7.265625 C 9.53125 -6.234375 10.164062 -6.109375 11 -6.890625 C 11.25 -7.179688 11.46875 -7.484375 11.65625 -7.796875 C 11.851562 -8.117188 12.050781 -8.453125 12.25 -8.796875 C 13.570312 -11.046875 14.734375 -13.359375 15.734375 -15.734375 C 16.734375 -18.109375 17.722656 -20.515625 18.703125 -22.953125 C 19.484375 -24.910156 20.273438 -26.851562 21.078125 -28.78125 C 21.890625 -30.71875 22.6875 -32.6875 23.46875 -34.6875 C 23.664062 -35.226562 23.9375 -35.632812 24.28125 -35.90625 C 24.625 -36.175781 25.113281 -36.285156 25.75 -36.234375 C 26.238281 -36.179688 26.722656 -36.191406 27.203125 -36.265625 C 27.691406 -36.335938 28.179688 -36.398438 28.671875 -36.453125 C 29.554688 -36.503906 30.046875 -36.085938 30.140625 -35.203125 C 30.285156 -33.929688 30.335938 -32.6875 30.296875 -31.46875 C 30.097656 -26.96875 29.800781 -22.476562 29.40625 -18 C 29.019531 -13.53125 28.800781 -9.046875 28.75 -4.546875 C 28.75 -3.472656 28.757812 -2.375 28.78125 -1.25 C 28.8125 -0.125 28.828125 0.972656 28.828125 2.046875 C 28.828125 2.535156 28.863281 3.023438 28.9375 3.515625 C 29.007812 4.003906 29.144531 4.492188 29.34375 4.984375 C 29.78125 4.597656 30.070312 4.171875 30.21875 3.703125 C 30.363281 3.234375 30.507812 2.78125 30.65625 2.34375 C 31.582031 -0.4375 32.5 -3.195312 33.40625 -5.9375 C 34.3125 -8.675781 35.226562 -11.441406 36.15625 -14.234375 C 36.300781 -14.617188 36.445312 -15.03125 36.59375 -15.46875 C 36.738281 -15.914062 36.882812 -16.332031 37.03125 -16.71875 C 37.28125 -17.457031 37.820312 -17.773438 38.65625 -17.671875 C 39.925781 -17.578125 40.632812 -17.421875 40.78125 -17.203125 C 40.925781 -16.984375 40.828125 -16.257812 40.484375 -15.03125 C 39.554688 -11.957031 38.640625 -8.878906 37.734375 -5.796875 C 36.828125 -2.710938 35.835938 0.34375 34.765625 3.375 C 34.566406 3.863281 34.359375 4.363281 34.140625 4.875 C 33.921875 5.382812 33.6875 5.882812 33.4375 6.375 C 32.90625 7.550781 32.1875 8.347656 31.28125 8.765625 C 30.375 9.179688 29.332031 9.363281 28.15625 9.3125 C 25.863281 9.21875 24.300781 8.070312 23.46875 5.875 C 23.125 4.988281 22.851562 4.09375 22.65625 3.1875 C 22.46875 2.28125 22.300781 1.363281 22.15625 0.4375 C 21.8125 -2.050781 21.625 -4.53125 21.59375 -7 C 21.570312 -9.46875 21.660156 -11.953125 21.859375 -14.453125 C 21.910156 -15.429688 21.972656 -16.394531 22.046875 -17.34375 C 22.117188 -18.300781 22.128906 -19.269531 22.078125 -20.25 C 22.171875 -20.289062 22.21875 -20.335938 22.21875 -20.390625 C 22.21875 -20.390625 22.21875 -20.414062 22.21875 -20.46875 Z M 22.21875 -20.46875 "/></g></g></g><g fill="#000000" fill-opacity="1"><g transform="translate(323.289241, 210.880652)"><g><path d="M 41.515625 -18.34375 C 41.554688 -17.851562 41.457031 -17.53125 41.21875 -17.375 C 40.976562 -17.226562 40.6875 -17.109375 40.34375 -17.015625 C 39.019531 -16.773438 37.722656 -16.53125 36.453125 -16.28125 C 35.179688 -16.039062 33.882812 -15.769531 32.5625 -15.46875 C 32.269531 -15.425781 32.078125 -15.40625 31.984375 -15.40625 C 30.804688 -15.300781 29.863281 -14.957031 29.15625 -14.375 C 28.445312 -13.789062 27.796875 -12.957031 27.203125 -11.875 C 24.023438 -5.425781 18.796875 -1.6875 11.515625 -0.65625 C 10.484375 -0.507812 9.90625 -0.363281 9.78125 -0.21875 C 9.664062 -0.0703125 9.582031 0.460938 9.53125 1.390625 C 9.488281 2.023438 9.425781 2.648438 9.34375 3.265625 C 9.269531 3.878906 9.234375 4.503906 9.234375 5.140625 C 9.191406 6.066406 8.726562 6.53125 7.84375 6.53125 C 7.007812 6.570312 6.175781 6.601562 5.34375 6.625 C 4.519531 6.65625 3.691406 6.695312 2.859375 6.75 C 1.878906 6.84375 1.289062 6.328125 1.09375 5.203125 C 0.757812 3.003906 0.457031 0.796875 0.1875 -1.421875 C -0.0820312 -3.648438 -0.242188 -5.890625 -0.296875 -8.140625 C -0.535156 -14.835938 -0.390625 -21.5 0.140625 -28.125 C 0.679688 -34.75 1.734375 -41.335938 3.296875 -47.890625 C 3.492188 -48.816406 3.726562 -49.71875 4 -50.59375 C 4.269531 -51.476562 4.550781 -52.363281 4.84375 -53.25 C 5.1875 -54.375 5.867188 -54.9375 6.890625 -54.9375 C 7.484375 -54.882812 8.070312 -54.867188 8.65625 -54.890625 C 9.238281 -54.921875 9.828125 -54.910156 10.421875 -54.859375 C 11.203125 -54.765625 11.675781 -54.617188 11.84375 -54.421875 C 12.019531 -54.222656 12.128906 -53.707031 12.171875 -52.875 C 12.171875 -52.488281 12.160156 -52.109375 12.140625 -51.734375 C 12.117188 -51.367188 12.082031 -50.992188 12.03125 -50.609375 C 11.738281 -46.691406 11.457031 -42.789062 11.1875 -38.90625 C 10.914062 -35.019531 10.707031 -31.117188 10.5625 -27.203125 C 10.5625 -26.867188 10.5625 -26.53125 10.5625 -26.1875 C 10.5625 -25.84375 10.5625 -25.5 10.5625 -25.15625 C 11 -25.25 11.300781 -25.429688 11.46875 -25.703125 C 11.644531 -25.972656 11.832031 -26.207031 12.03125 -26.40625 C 12.757812 -27.238281 13.503906 -28.007812 14.265625 -28.71875 C 15.023438 -29.425781 15.867188 -30.070312 16.796875 -30.65625 C 17.523438 -31.09375 18.269531 -31.457031 19.03125 -31.75 C 19.789062 -32.050781 20.609375 -32.222656 21.484375 -32.265625 C 24.765625 -32.410156 27.066406 -30.992188 28.390625 -28.015625 C 28.972656 -26.742188 29.335938 -25.421875 29.484375 -24.046875 C 29.628906 -22.679688 29.65625 -21.289062 29.5625 -19.875 C 29.507812 -18.695312 29.582031 -18.070312 29.78125 -18 C 29.976562 -17.925781 30.613281 -17.960938 31.6875 -18.109375 C 33.050781 -18.304688 34.414062 -18.515625 35.78125 -18.734375 C 37.15625 -18.953125 38.53125 -19.160156 39.90625 -19.359375 C 40.289062 -19.410156 40.640625 -19.382812 40.953125 -19.28125 C 41.273438 -19.1875 41.460938 -18.875 41.515625 -18.34375 Z M 19.21875 -9.3125 C 19.507812 -9.707031 19.800781 -10.125 20.09375 -10.5625 C 20.382812 -11 20.582031 -11.5625 20.6875 -12.25 C 18.726562 -11.707031 16.867188 -11.066406 15.109375 -10.328125 C 13.347656 -9.597656 11.757812 -8.523438 10.34375 -7.109375 C 10.050781 -6.816406 9.878906 -6.488281 9.828125 -6.125 C 9.773438 -5.757812 9.75 -5.378906 9.75 -4.984375 C 9.707031 -4.148438 9.796875 -3.648438 10.015625 -3.484375 C 10.234375 -3.316406 10.734375 -3.351562 11.515625 -3.59375 C 13.128906 -4.082031 14.554688 -4.816406 15.796875 -5.796875 C 17.046875 -6.773438 18.1875 -7.945312 19.21875 -9.3125 Z M 22.65625 -16.875 C 23.144531 -18.382812 23.472656 -19.921875 23.640625 -21.484375 C 23.816406 -23.054688 23.6875 -24.625 23.25 -26.1875 C 22.757812 -27.988281 22.109375 -29 21.296875 -29.21875 C 20.492188 -29.445312 19.457031 -28.875 18.1875 -27.5 C 16.476562 -25.738281 14.988281 -23.804688 13.71875 -21.703125 C 12.445312 -19.609375 11.347656 -17.410156 10.421875 -15.109375 C 10.023438 -14.128906 9.972656 -13.003906 10.265625 -11.734375 C 12.128906 -12.710938 14.015625 -13.519531 15.921875 -14.15625 C 17.828125 -14.789062 19.734375 -15.378906 21.640625 -15.921875 C 22.222656 -16.109375 22.5625 -16.425781 22.65625 -16.875 Z M 22.65625 -16.875 "/></g></g></g></svg>