<svg xmlns="http://www.w3.org/2000/svg" xmlns:xlink="http://www.w3.org/1999/xlink" width="500" zoomAndPan="magnify" viewBox="0 0 375 374.999991" height="500" preserveAspectRatio="xMidYMid meet" version="1.0"><defs><clipPath id="5c153ee920"><path d="M 115.792969 102.441406 L 265.792969 102.441406 L 265.792969 252.441406 L 115.792969 252.441406 Z M 115.792969 102.441406 " clip-rule="nonzero"/></clipPath></defs><g clip-path="url(#5c153ee920)"><path fill="#000000" d="M 190.792969 102.441406 C 149.429688 102.441406 115.792969 136.082031 115.792969 177.441406 C 115.792969 218.804688 149.429688 252.441406 190.792969 252.441406 C 232.15625 252.441406 265.792969 218.804688 265.792969 177.441406 C 265.792969 136.082031 232.15625 102.441406 190.792969 102.441406 Z M 190.792969 247.183594 C 152.285156 247.183594 121.054688 215.949219 121.054688 177.441406 C 121.054688 138.9375 152.285156 107.703125 190.792969 107.703125 C 229.300781 107.703125 260.53125 138.9375 260.53125 177.441406 C 260.53125 215.949219 229.300781 247.183594 190.792969 247.183594 Z M 190.792969 247.183594 " fill-opacity="1" fill-rule="nonzero"/></g><path fill="#000000" d="M 228.554688 153.28125 L 203.160156 177.441406 L 228.554688 201.605469 C 229.234375 200.675781 229.667969 199.640625 229.859375 198.507812 L 229.859375 156.378906 C 229.667969 155.242188 229.234375 154.210938 228.554688 153.28125 Z M 228.554688 153.28125 " fill-opacity="1" fill-rule="nonzero"/><path fill="#000000" d="M 190.792969 189.214844 L 180.34375 179.273438 L 154.972656 203.414062 C 156.164062 204.199219 157.476562 204.59375 158.90625 204.589844 L 222.675781 204.589844 C 224.105469 204.59375 225.417969 204.199219 226.613281 203.414062 L 201.238281 179.273438 Z M 190.792969 189.214844 " fill-opacity="1" fill-rule="nonzero"/><path fill="#000000" d="M 153.03125 153.28125 C 152.351562 154.210938 151.914062 155.242188 151.726562 156.378906 L 151.726562 198.507812 C 151.914062 199.640625 152.351562 200.675781 153.03125 201.605469 L 178.421875 177.441406 Z M 153.03125 153.28125 " fill-opacity="1" fill-rule="nonzero"/><path fill="#000000" d="M 180.34375 175.613281 L 190.792969 185.578125 L 226.613281 151.472656 C 225.417969 150.6875 224.105469 150.292969 222.675781 150.296875 L 158.90625 150.296875 C 157.476562 150.292969 156.164062 150.6875 154.972656 151.472656 Z M 180.34375 175.613281 " fill-opacity="1" fill-rule="nonzero"/></svg>