<svg xmlns="http://www.w3.org/2000/svg" xmlns:xlink="http://www.w3.org/1999/xlink" width="500" zoomAndPan="magnify" viewBox="0 0 375 374.999991" height="500" preserveAspectRatio="xMidYMid meet" version="1.0"><defs><clipPath id="2b1d77f93d"><path d="M 119.140625 112.5 L 269.140625 112.5 L 269.140625 262.5 L 119.140625 262.5 Z M 119.140625 112.5 " clip-rule="nonzero"/></clipPath></defs><g clip-path="url(#2b1d77f93d)"><path fill="#000000" d="M 194.140625 112.5 C 152.777344 112.5 119.140625 146.136719 119.140625 187.5 C 119.140625 228.863281 152.777344 262.5 194.140625 262.5 C 235.503906 262.5 269.140625 228.863281 269.140625 187.5 C 269.140625 146.136719 235.503906 112.5 194.140625 112.5 Z M 194.140625 257.238281 C 155.632812 257.238281 124.402344 226.007812 124.402344 187.5 C 124.402344 148.992188 155.632812 117.761719 194.140625 117.761719 C 232.648438 117.761719 263.878906 148.992188 263.878906 187.5 C 263.878906 226.007812 232.648438 257.238281 194.140625 257.238281 Z M 194.140625 257.238281 " fill-opacity="1" fill-rule="nonzero"/></g><path fill="#000000" d="M 196.660156 232.890625 L 191.695312 232.890625 L 190.933594 232.742188 C 189.179688 232.519531 187.40625 232.386719 185.671875 232.050781 C 174.066406 229.757812 164.605469 223.878906 157.667969 214.347656 C 148.898438 202.277344 146.511719 188.878906 150.707031 174.570312 C 156.679688 154.140625 175.96875 140.839844 197.199219 142.203125 C 207.070312 142.855469 215.820312 146.378906 223.355469 152.761719 C 231.789062 159.886719 236.976562 168.910156 238.917969 179.832031 C 239.195312 181.472656 239.363281 183.152344 239.589844 184.8125 L 239.589844 190.128906 L 239.421875 191.082031 C 239.214844 192.707031 239.085938 194.367188 238.765625 195.988281 C 236.714844 206.472656 231.566406 215.1875 223.449219 222.125 C 220.386719 224.757812 217.027344 226.925781 213.367188 228.636719 C 209.707031 230.34375 205.886719 231.523438 201.902344 232.183594 C 200.167969 232.480469 198.414062 232.648438 196.660156 232.890625 Z M 174.941406 165.652344 L 162.515625 159.535156 C 156.023438 166.976562 152.460938 175.765625 151.957031 185.839844 L 170.746094 185.839844 C 170.941406 178.859375 172.339844 172.132812 174.941406 165.652344 Z M 225.855469 159.535156 L 213.414062 165.652344 C 216.007812 172.015625 217.386719 178.789062 217.628906 185.839844 L 236.398438 185.839844 C 235.894531 175.765625 232.347656 166.976562 225.855469 159.535156 Z M 170.746094 189.125 L 151.957031 189.125 C 152.441406 198.75 155.707031 207.21875 161.847656 214.644531 C 165.808594 211.972656 170.039062 209.820312 174.53125 208.191406 C 172.199219 202.046875 170.9375 195.691406 170.746094 189.125 Z M 226.714844 214.421875 C 232.667969 207.183594 235.949219 198.710938 236.398438 189.125 L 217.816406 189.125 C 217.386719 192.425781 217.105469 195.671875 216.492188 198.84375 C 215.875 202.015625 214.867188 205.074219 214.101562 207.984375 Z M 178.058594 166.363281 C 175.457031 172.59375 174.070312 179.085938 173.898438 185.839844 L 192.554688 185.839844 L 192.554688 168.601562 C 187.628906 168.46875 182.796875 167.722656 178.058594 166.363281 Z M 210.296875 166.363281 C 205.484375 167.761719 200.6875 168.433594 195.800781 168.636719 L 195.800781 185.839844 L 214.457031 185.839844 C 214.292969 179.085938 212.90625 172.59375 210.296875 166.363281 Z M 195.800781 189.105469 L 195.800781 204.777344 C 200.910156 204.921875 205.917969 205.71875 210.820312 207.164062 C 212.871094 202.59375 214.847656 192.445312 214.347656 189.105469 Z M 192.535156 204.664062 L 192.535156 189.105469 L 173.898438 189.105469 C 174.054688 195.296875 175.242188 201.285156 177.460938 207.070312 C 180.035156 206.53125 182.480469 205.894531 184.941406 205.503906 C 187.40625 205.113281 189.980469 204.945312 192.535156 204.664062 Z M 163.992188 216.996094 C 170.800781 223.824219 178.898438 227.949219 188.65625 229.367188 C 183.164062 224.105469 178.855469 218.011719 175.726562 211.082031 C 171.574219 212.574219 167.660156 214.546875 163.992188 216.996094 Z M 199.71875 229.367188 C 209.457031 227.949219 217.574219 223.84375 224.382812 216.996094 C 220.714844 214.53125 216.796875 212.566406 212.628906 211.101562 C 209.511719 218.027344 205.207031 224.113281 199.71875 229.367188 Z M 209.625 210.113281 C 205.125 208.773438 200.53125 208.039062 195.839844 207.910156 L 195.839844 228.65625 C 201.769531 223.46875 206.367188 217.285156 209.625 210.113281 Z M 178.730469 210.113281 C 182.003906 217.289062 186.609375 223.472656 192.554688 228.65625 L 192.554688 207.910156 C 187.851562 208.046875 183.242188 208.78125 178.730469 210.113281 Z M 176.097656 162.445312 C 178.003906 159.402344 179.683594 156.378906 181.695312 153.601562 C 183.710938 150.820312 186.097656 148.246094 188.300781 145.632812 C 179.382812 146.929688 171.589844 150.722656 164.925781 157.015625 C 168.4375 159.257812 172.164062 161.070312 176.097656 162.445312 Z M 199.71875 145.578125 C 204.90625 150.617188 208.972656 156.175781 212.015625 162.460938 C 214.496094 161.882812 220.839844 158.84375 223.414062 156.996094 C 216.789062 150.746094 209.011719 146.941406 199.71875 145.578125 Z M 192.554688 146.269531 C 186.957031 151.210938 182.609375 156.867188 179.402344 163.433594 C 182.554688 164.535156 190.671875 165.707031 192.554688 165.355469 Z M 208.992188 163.453125 C 205.753906 156.839844 201.355469 151.117188 195.800781 146.289062 L 195.800781 165.484375 C 200.28125 165.347656 204.679688 164.671875 208.992188 163.453125 Z M 208.992188 163.453125 " fill-opacity="1" fill-rule="nonzero"/></svg>