<svg xmlns="http://www.w3.org/2000/svg" xmlns:xlink="http://www.w3.org/1999/xlink" width="500" zoomAndPan="magnify" viewBox="0 0 375 374.999991" height="500" preserveAspectRatio="xMidYMid meet" version="1.0"><defs><clipPath id="5e49ad080d"><path d="M 112.5 112.5 L 262.5 112.5 L 262.5 262.5 L 112.5 262.5 Z M 112.5 112.5 " clip-rule="nonzero"/></clipPath></defs><g clip-path="url(#5e49ad080d)"><path fill="#000000" d="M 187.5 112.5 C 146.136719 112.5 112.5 146.136719 112.5 187.5 C 112.5 228.863281 146.136719 262.5 187.5 262.5 C 228.863281 262.5 262.5 228.863281 262.5 187.5 C 262.5 146.136719 228.863281 112.5 187.5 112.5 Z M 187.5 257.238281 C 148.992188 257.238281 117.761719 226.007812 117.761719 187.5 C 117.761719 148.992188 148.992188 117.761719 187.5 117.761719 C 226.007812 117.761719 257.238281 148.992188 257.238281 187.5 C 257.238281 226.007812 226.007812 257.238281 187.5 257.238281 Z M 187.5 257.238281 " fill-opacity="1" fill-rule="nonzero"/></g><path fill="#000000" d="M 219.292969 214.550781 C 223.957031 208.957031 220.523438 205.691406 217.425781 203.339844 C 214.328125 200.988281 207.035156 197.984375 204.792969 200.671875 C 202.554688 203.359375 198.972656 206.714844 196.210938 205.988281 C 191.546875 204.757812 185.597656 198.46875 181.0625 193.9375 C 176.53125 189.402344 170.242188 183.453125 169.011719 178.789062 C 168.285156 176.027344 171.398438 172.648438 174.328125 170.207031 C 177.257812 167.761719 174.179688 160.933594 171.660156 157.574219 C 169.140625 154.214844 166.042969 151.042969 160.449219 155.707031 C 154.851562 160.375 147.78125 172.78125 160.820312 191.699219 C 164.160156 196.546875 167.035156 199.347656 171.34375 203.65625 C 175.652344 207.964844 178.453125 210.839844 183.300781 214.179688 C 202.21875 227.21875 214.625 220.148438 219.292969 214.550781 Z M 219.292969 214.550781 " fill-opacity="1" fill-rule="nonzero"/><path fill="#000000" d="M 203.621094 190.429688 C 203.292969 190.429688 202.976562 190.371094 202.667969 190.253906 C 202.363281 190.136719 202.089844 189.964844 201.847656 189.746094 C 201.605469 189.523438 201.410156 189.265625 201.265625 188.972656 C 201.121094 188.679688 201.035156 188.367188 201.007812 188.042969 C 200.933594 187.226562 200.789062 186.421875 200.578125 185.632812 C 200.363281 184.84375 200.082031 184.078125 199.738281 183.335938 C 199.390625 182.597656 198.980469 181.890625 198.511719 181.222656 C 198.042969 180.550781 197.515625 179.925781 196.9375 179.347656 C 196.359375 178.769531 195.734375 178.246094 195.066406 177.777344 C 194.394531 177.304688 193.691406 176.898438 192.949219 176.550781 C 192.207031 176.203125 191.441406 175.925781 190.652344 175.710938 C 189.863281 175.496094 189.0625 175.351562 188.246094 175.28125 C 187.898438 175.25 187.570312 175.152344 187.261719 174.992188 C 186.953125 174.828125 186.683594 174.613281 186.460938 174.347656 C 186.238281 174.078125 186.074219 173.777344 185.96875 173.445312 C 185.863281 173.113281 185.828125 172.773438 185.859375 172.425781 C 185.890625 172.078125 185.984375 171.75 186.148438 171.441406 C 186.308594 171.128906 186.523438 170.863281 186.789062 170.640625 C 187.058594 170.417969 187.359375 170.253906 187.691406 170.148438 C 188.023438 170.042969 188.363281 170.007812 188.710938 170.039062 C 189.832031 170.140625 190.933594 170.335938 192.015625 170.632812 C 193.101562 170.925781 194.152344 171.308594 195.167969 171.785156 C 196.1875 172.261719 197.15625 172.824219 198.074219 173.46875 C 198.996094 174.113281 199.851562 174.832031 200.648438 175.628906 C 201.441406 176.421875 202.164062 177.277344 202.808594 178.195312 C 203.453125 179.117188 204.015625 180.082031 204.492188 181.101562 C 204.972656 182.117188 205.359375 183.167969 205.652344 184.253906 C 205.949219 185.335938 206.148438 186.4375 206.25 187.554688 C 206.28125 187.90625 206.246094 188.246094 206.140625 188.582031 C 206.035156 188.914062 205.871094 189.214844 205.648438 189.484375 C 205.425781 189.753906 205.160156 189.96875 204.847656 190.132812 C 204.539062 190.296875 204.210938 190.394531 203.863281 190.429688 Z M 203.621094 190.429688 " fill-opacity="1" fill-rule="nonzero"/><path fill="#000000" d="M 215.859375 190.578125 C 215.519531 190.578125 215.191406 190.515625 214.875 190.390625 C 214.5625 190.261719 214.28125 190.082031 214.035156 189.847656 C 213.792969 189.613281 213.597656 189.339844 213.460938 189.03125 C 213.320312 188.722656 213.242188 188.398438 213.226562 188.058594 C 213.1875 187.253906 213.113281 186.449219 213 185.648438 C 212.886719 184.847656 212.738281 184.054688 212.550781 183.265625 C 212.367188 182.480469 212.144531 181.703125 211.886719 180.9375 C 211.628906 180.171875 211.335938 179.417969 211.007812 178.679688 C 210.683594 177.941406 210.320312 177.21875 209.925781 176.511719 C 209.535156 175.804688 209.109375 175.117188 208.652344 174.453125 C 208.195312 173.785156 207.707031 173.140625 207.191406 172.519531 C 206.675781 171.898438 206.128906 171.300781 205.558594 170.730469 C 204.988281 170.15625 204.390625 169.613281 203.769531 169.097656 C 203.144531 168.578125 202.503906 168.09375 201.835938 167.636719 C 201.167969 167.179688 200.480469 166.753906 199.777344 166.359375 C 199.070312 165.964844 198.347656 165.605469 197.609375 165.277344 C 196.867188 164.949219 196.117188 164.660156 195.351562 164.402344 C 194.582031 164.144531 193.808594 163.921875 193.019531 163.734375 C 192.234375 163.550781 191.441406 163.398438 190.640625 163.285156 C 189.839844 163.175781 189.035156 163.097656 188.226562 163.058594 C 187.878906 163.042969 187.546875 162.960938 187.230469 162.8125 C 186.914062 162.664062 186.636719 162.460938 186.402344 162.203125 C 186.167969 161.945312 185.992188 161.652344 185.871094 161.324219 C 185.753906 160.996094 185.703125 160.65625 185.71875 160.308594 C 185.734375 159.960938 185.816406 159.625 185.964844 159.308594 C 186.113281 158.996094 186.316406 158.71875 186.574219 158.484375 C 186.832031 158.246094 187.125 158.070312 187.453125 157.953125 C 187.78125 157.832031 188.121094 157.78125 188.46875 157.796875 C 189.441406 157.84375 190.40625 157.9375 191.367188 158.074219 C 192.328125 158.210938 193.28125 158.390625 194.222656 158.613281 C 195.167969 158.835938 196.101562 159.101562 197.019531 159.414062 C 197.941406 159.722656 198.84375 160.074219 199.730469 160.46875 C 200.617188 160.859375 201.484375 161.292969 202.332031 161.765625 C 203.179688 162.238281 204.003906 162.75 204.804688 163.300781 C 205.605469 163.847656 206.378906 164.433594 207.125 165.054688 C 207.871094 165.671875 208.589844 166.328125 209.273438 167.011719 C 209.960938 167.699219 210.613281 168.414062 211.234375 169.160156 C 211.855469 169.910156 212.4375 170.683594 212.988281 171.480469 C 213.539062 172.28125 214.046875 173.105469 214.519531 173.953125 C 214.992188 174.800781 215.425781 175.667969 215.820312 176.554688 C 216.214844 177.445312 216.566406 178.347656 216.875 179.265625 C 217.183594 180.1875 217.449219 181.117188 217.675781 182.0625 C 217.898438 183.007812 218.078125 183.960938 218.214844 184.921875 C 218.351562 185.882812 218.441406 186.847656 218.488281 187.816406 C 218.503906 188.167969 218.453125 188.503906 218.332031 188.832031 C 218.210938 189.160156 218.035156 189.453125 217.796875 189.710938 C 217.5625 189.96875 217.285156 190.171875 216.96875 190.316406 C 216.652344 190.464844 216.320312 190.546875 215.96875 190.558594 Z M 215.859375 190.578125 " fill-opacity="1" fill-rule="nonzero"/></svg>