<svg xmlns="http://www.w3.org/2000/svg" xmlns:xlink="http://www.w3.org/1999/xlink" width="500" zoomAndPan="magnify" viewBox="0 0 375 374.999991" height="500" preserveAspectRatio="xMidYMid meet" version="1.0"><defs><g/><clipPath id="b8b7f55984"><path d="M 97 81 L 278 81 L 278 259.941406 L 97 259.941406 Z M 97 81 " clip-rule="nonzero"/></clipPath></defs><rect x="-37.5" width="450" fill="#ffffff" y="-37.499999" height="449.999989" fill-opacity="1"/><rect x="-37.5" width="450" fill="#ffffff" y="-37.499999" height="449.999989" fill-opacity="1"/><g clip-path="url(#b8b7f55984)"><path fill="#000000" d="M 277.101562 164.222656 L 260.253906 140.667969 C 259.636719 139.804688 258.757812 139.214844 257.796875 138.933594 L 257.796875 138.925781 L 213.101562 125.71875 C 218.96875 118.203125 223.675781 109.847656 223.675781 102.28125 C 223.675781 92.738281 218.171875 84.96875 209.648438 82.496094 C 201.84375 80.21875 193.691406 82.71875 187.625 88.882812 C 181.480469 82.699219 173.277344 80.230469 165.523438 82.511719 C 157.074219 85 151.621094 92.761719 151.621094 102.28125 C 151.621094 109.847656 156.328125 118.203125 162.191406 125.71875 L 117.5 138.925781 L 117.5 138.933594 C 116.535156 139.214844 115.65625 139.804688 115.039062 140.667969 L 98.191406 164.222656 C 96.464844 166.644531 97.421875 170.050781 100.164062 171.203125 L 114.175781 177.097656 L 114.175781 231.097656 C 114.175781 233.0625 115.417969 234.820312 117.265625 235.476562 L 186.101562 259.785156 C 187.089844 260.132812 188.167969 260.136719 189.183594 259.785156 L 258.019531 235.476562 C 259.871094 234.820312 261.105469 233.0625 261.105469 231.097656 L 261.105469 177.097656 L 275.117188 171.203125 C 277.875 170.046875 278.824219 166.636719 277.101562 164.222656 Z M 168.140625 91.40625 C 172.988281 89.984375 179.351562 91.953125 183.757812 98.804688 C 185.585938 101.652344 189.757812 101.632812 191.566406 98.773438 C 196.246094 91.371094 202.855469 90.183594 207.074219 91.402344 C 211.667969 92.738281 214.410156 96.800781 214.410156 102.277344 C 214.410156 113.402344 197.136719 130.464844 187.648438 138.566406 C 178.164062 130.464844 160.890625 113.402344 160.890625 102.277344 C 160.890625 96.808594 163.59375 92.742188 168.140625 91.40625 Z M 184.773438 148.214844 C 186.453125 149.558594 188.84375 149.558594 190.527344 148.214844 C 192.089844 146.980469 199.222656 141.171875 206.472656 133.433594 L 241.441406 143.761719 L 187.648438 162.757812 L 133.859375 143.761719 L 168.828125 133.433594 C 176.078125 141.171875 183.210938 146.980469 184.773438 148.214844 Z M 120.554688 148.902344 L 180.226562 169.972656 L 166.320312 188.960938 L 109.117188 164.890625 Z M 123.445312 180.992188 L 166.097656 198.9375 C 168.074219 199.765625 170.359375 199.136719 171.625 197.402344 L 183.019531 181.847656 L 183.019531 248.847656 L 123.445312 227.8125 Z M 251.855469 227.8125 L 192.28125 248.847656 L 192.28125 181.847656 L 203.675781 197.402344 C 204.941406 199.128906 207.226562 199.765625 209.203125 198.9375 L 251.855469 180.992188 Z M 208.988281 188.964844 L 195.078125 169.976562 L 254.75 148.910156 L 266.195312 164.90625 Z M 208.988281 188.964844 " fill-opacity="1" fill-rule="nonzero"/></g><g fill="#000000" fill-opacity="1"><g transform="translate(115.429684, 302.279834)"><g><path d="M 3.5 -0.046875 C 3.382812 0.296875 3.078125 0.46875 2.578125 0.46875 C 2.085938 0.46875 1.738281 0.320312 1.53125 0.03125 C 1.40625 -2.21875 1.296875 -4.164062 1.203125 -5.8125 C 1.117188 -7.46875 1.054688 -8.945312 1.015625 -10.25 C 0.972656 -11.550781 0.9375 -12.765625 0.90625 -13.890625 C 0.882812 -15.015625 0.875 -16.175781 0.875 -17.375 C 0.875 -17.757812 1.140625 -17.953125 1.671875 -17.953125 C 2.160156 -17.953125 2.535156 -17.832031 2.796875 -17.59375 C 3.179688 -17.226562 3.648438 -16.785156 4.203125 -16.265625 C 4.765625 -15.753906 5.421875 -15.164062 6.171875 -14.5 L 7.578125 -16.203125 L 8.71875 -17.59375 L 8.796875 -17.671875 C 9.078125 -17.859375 9.410156 -17.953125 9.796875 -17.953125 C 10.242188 -17.953125 10.535156 -17.785156 10.671875 -17.453125 C 10.671875 -16.335938 10.679688 -15.070312 10.703125 -13.65625 C 10.734375 -12.238281 10.765625 -10.660156 10.796875 -8.921875 C 10.828125 -7.242188 10.851562 -5.691406 10.875 -4.265625 C 10.894531 -2.835938 10.90625 -1.539062 10.90625 -0.375 C 10.78125 -0.0195312 10.421875 0.15625 9.828125 0.15625 C 9.554688 0.15625 9.335938 0.101562 9.171875 0 C 9.003906 -0.101562 8.921875 -0.253906 8.921875 -0.453125 C 8.921875 -1.035156 8.914062 -1.71875 8.90625 -2.5 C 8.90625 -3.28125 8.898438 -4.078125 8.890625 -4.890625 C 8.878906 -5.710938 8.863281 -6.46875 8.84375 -7.15625 C 8.832031 -7.851562 8.828125 -8.382812 8.828125 -8.75 L 8.796875 -10.046875 L 8.78125 -10.90625 L 8.703125 -14.953125 L 7.25 -13.15625 C 7.03125 -12.96875 6.859375 -12.835938 6.734375 -12.765625 C 6.609375 -12.703125 6.476562 -12.671875 6.34375 -12.671875 C 6 -12.671875 5.691406 -12.804688 5.421875 -13.078125 C 5.242188 -13.253906 5.03125 -13.457031 4.78125 -13.6875 C 4.53125 -13.925781 4.253906 -14.179688 3.953125 -14.453125 L 2.953125 -15.34375 L 3.15625 -9.46875 C 3.1875 -7.757812 3.226562 -6.117188 3.28125 -4.546875 C 3.34375 -2.984375 3.414062 -1.484375 3.5 -0.046875 Z M 3.5 -0.046875 "/></g></g></g><g fill="#000000" fill-opacity="1"><g transform="translate(127.227821, 302.279834)"><g><path d="M 7.90625 -10 C 7.90625 -9.582031 7.691406 -9.21875 7.265625 -8.90625 C 6.835938 -8.601562 6.300781 -8.375 5.65625 -8.21875 C 5.320312 -8.15625 5.019531 -8.109375 4.75 -8.078125 C 4.476562 -8.046875 4.242188 -8.03125 4.046875 -8.03125 C 3.535156 -8.03125 3.03125 -8.050781 2.53125 -8.09375 C 2.53125 -7.582031 2.59375 -6.988281 2.71875 -6.3125 C 2.851562 -5.632812 3.039062 -4.960938 3.28125 -4.296875 C 3.53125 -3.628906 3.8125 -3.03125 4.125 -2.5 C 4.601562 -1.664062 5.160156 -1.191406 5.796875 -1.078125 C 6.117188 -1.140625 6.382812 -1.40625 6.59375 -1.875 C 6.8125 -2.238281 7.019531 -2.5 7.21875 -2.65625 C 7.425781 -2.820312 7.695312 -2.90625 8.03125 -2.90625 C 8.59375 -2.90625 8.875 -2.738281 8.875 -2.40625 C 8.875 -2.320312 8.863281 -2.269531 8.84375 -2.25 C 8.394531 -1.5 7.945312 -0.941406 7.5 -0.578125 C 7.0625 -0.210938 6.53125 -0.03125 5.90625 -0.03125 C 5.382812 -0.03125 4.863281 -0.160156 4.34375 -0.421875 C 3.832031 -0.691406 3.394531 -1.035156 3.03125 -1.453125 C 2.5625 -2.015625 2.140625 -2.675781 1.765625 -3.4375 C 1.390625 -4.195312 1.085938 -4.992188 0.859375 -5.828125 C 0.640625 -6.660156 0.53125 -7.441406 0.53125 -8.171875 C 0.53125 -9.441406 0.820312 -10.410156 1.40625 -11.078125 C 1.988281 -11.753906 2.78125 -12.15625 3.78125 -12.28125 L 4.40625 -12.328125 C 5.019531 -12.328125 5.59375 -12.222656 6.125 -12.015625 C 6.65625 -11.804688 7.085938 -11.523438 7.421875 -11.171875 C 7.742188 -10.804688 7.90625 -10.414062 7.90625 -10 Z M 3.171875 -10.421875 C 2.972656 -10.109375 2.820312 -9.644531 2.71875 -9.03125 C 2.957031 -8.976562 3.332031 -8.953125 3.84375 -8.953125 C 4.425781 -8.953125 4.894531 -9.035156 5.25 -9.203125 C 5.613281 -9.367188 5.796875 -9.644531 5.796875 -10.03125 C 5.742188 -10.425781 5.585938 -10.734375 5.328125 -10.953125 C 5.078125 -11.171875 4.757812 -11.28125 4.375 -11.28125 C 3.894531 -11.28125 3.492188 -10.992188 3.171875 -10.421875 Z M 3.171875 -10.421875 "/></g></g></g><g fill="#000000" fill-opacity="1"><g transform="translate(137.30123, 302.279834)"><g><path d="M 2.5 -10 C 2.28125 -9.894531 1.972656 -9.84375 1.578125 -9.84375 C 0.992188 -9.84375 0.703125 -9.96875 0.703125 -10.21875 C 0.703125 -10.289062 0.742188 -10.394531 0.828125 -10.53125 C 0.828125 -10.53125 0.96875 -10.742188 1.25 -11.171875 C 1.5 -11.554688 1.898438 -11.875 2.453125 -12.125 C 3.003906 -12.375 3.632812 -12.5 4.34375 -12.5 C 5.78125 -12.5 6.796875 -11.921875 7.390625 -10.765625 C 7.984375 -9.609375 8.28125 -7.976562 8.28125 -5.875 C 8.28125 -4.90625 8.257812 -4.082031 8.21875 -3.40625 C 8.1875 -2.738281 8.128906 -2.125 8.046875 -1.5625 C 7.960938 -1 7.835938 -0.394531 7.671875 0.25 C 7.578125 0.601562 7.21875 0.78125 6.59375 0.78125 C 6.332031 0.78125 6.117188 0.726562 5.953125 0.625 C 5.785156 0.519531 5.703125 0.367188 5.703125 0.171875 C 5.734375 -0.0234375 5.773438 -0.148438 5.828125 -0.203125 C 5.878906 -0.285156 5.925781 -0.4375 5.96875 -0.65625 C 5.300781 -0.40625 4.6875 -0.28125 4.125 -0.28125 C 3.226562 -0.28125 2.492188 -0.570312 1.921875 -1.15625 C 1.359375 -1.75 1.078125 -2.597656 1.078125 -3.703125 C 1.078125 -4.816406 1.414062 -5.664062 2.09375 -6.25 C 2.78125 -6.832031 3.789062 -7.125 5.125 -7.125 C 5.320312 -7.125 5.515625 -7.109375 5.703125 -7.078125 C 5.898438 -7.054688 6.09375 -7.03125 6.28125 -7 C 6.175781 -8.476562 5.988281 -9.59375 5.71875 -10.34375 C 5.457031 -11.132812 5.007812 -11.585938 4.375 -11.703125 C 3.625 -11.703125 3.125 -11.457031 2.875 -10.96875 C 2.757812 -10.757812 2.632812 -10.4375 2.5 -10 Z M 6 -5.421875 C 5.851562 -5.703125 5.703125 -5.894531 5.546875 -6 C 5.398438 -6.113281 5.21875 -6.171875 5 -6.171875 C 4.382812 -6.171875 3.914062 -5.925781 3.59375 -5.4375 C 3.28125 -4.945312 3.125 -4.332031 3.125 -3.59375 C 3.125 -2.976562 3.210938 -2.445312 3.390625 -2 C 3.578125 -1.550781 3.890625 -1.3125 4.328125 -1.28125 C 4.859375 -1.28125 5.296875 -1.570312 5.640625 -2.15625 C 5.992188 -2.738281 6.171875 -3.40625 6.171875 -4.15625 C 6.171875 -4.664062 6.113281 -5.085938 6 -5.421875 Z M 6 -5.421875 "/></g></g></g><g fill="#000000" fill-opacity="1"><g transform="translate(146.749735, 302.279834)"><g><path d="M 6.625 -0.625 C 6.59375 -0.757812 6.5625 -1.015625 6.53125 -1.390625 C 6.507812 -1.773438 6.5 -2.285156 6.5 -2.921875 L 6.5 -4.046875 C 6.5 -5.078125 6.472656 -6.003906 6.421875 -6.828125 C 6.367188 -7.660156 6.285156 -8.367188 6.171875 -8.953125 C 5.953125 -10.171875 5.46875 -10.78125 4.71875 -10.78125 C 4.257812 -10.78125 3.78125 -10.285156 3.28125 -9.296875 L 3.28125 -8.28125 L 3.25 -4.46875 C 3.25 -3.875 3.257812 -3.273438 3.28125 -2.671875 C 3.3125 -2.078125 3.34375 -1.46875 3.375 -0.84375 C 3.257812 -0.5 2.953125 -0.328125 2.453125 -0.328125 C 2.234375 -0.328125 2.023438 -0.367188 1.828125 -0.453125 C 1.628906 -0.535156 1.488281 -0.644531 1.40625 -0.78125 C 1.363281 -1.425781 1.332031 -2.054688 1.3125 -2.671875 C 1.289062 -3.285156 1.28125 -3.878906 1.28125 -4.453125 L 1.296875 -8.125 C 1.296875 -8.789062 1.285156 -9.410156 1.265625 -9.984375 C 1.253906 -10.554688 1.234375 -11.101562 1.203125 -11.625 C 1.203125 -11.8125 1.285156 -11.957031 1.453125 -12.0625 C 1.628906 -12.164062 1.84375 -12.21875 2.09375 -12.21875 C 2.445312 -12.21875 2.691406 -12.164062 2.828125 -12.0625 C 2.972656 -11.957031 3.097656 -11.738281 3.203125 -11.40625 C 3.671875 -11.71875 4.15625 -11.875 4.65625 -11.875 C 5.65625 -11.875 6.4375 -11.566406 7 -10.953125 C 7.5625 -10.335938 7.957031 -9.453125 8.1875 -8.296875 C 8.425781 -7.148438 8.546875 -5.773438 8.546875 -4.171875 L 8.546875 -2.28125 C 8.546875 -2.15625 8.550781 -1.960938 8.5625 -1.703125 C 8.570312 -1.453125 8.582031 -1.117188 8.59375 -0.703125 C 8.476562 -0.347656 8.171875 -0.171875 7.671875 -0.171875 C 7.453125 -0.171875 7.242188 -0.210938 7.046875 -0.296875 C 6.847656 -0.378906 6.707031 -0.488281 6.625 -0.625 Z M 6.625 -0.625 "/></g></g></g><g fill="#000000" fill-opacity="1"><g transform="translate(156.823145, 302.279834)"><g><path d="M 2.03125 -14.796875 C 2.03125 -15.078125 2.171875 -15.347656 2.453125 -15.609375 C 2.734375 -15.867188 3.054688 -16 3.421875 -16 C 3.703125 -16 3.914062 -15.863281 4.0625 -15.59375 C 4.207031 -15.332031 4.28125 -14.984375 4.28125 -14.546875 C 4.28125 -14.203125 4.164062 -13.925781 3.9375 -13.71875 C 3.707031 -13.519531 3.421875 -13.421875 3.078125 -13.421875 C 2.828125 -13.421875 2.585938 -13.570312 2.359375 -13.875 C 2.140625 -14.1875 2.03125 -14.492188 2.03125 -14.796875 Z M 1.96875 -11.21875 C 2.050781 -11.351562 2.191406 -11.460938 2.390625 -11.546875 C 2.597656 -11.628906 2.8125 -11.671875 3.03125 -11.671875 C 3.53125 -11.671875 3.835938 -11.5 3.953125 -11.15625 C 3.878906 -10.28125 3.8125 -9.398438 3.75 -8.515625 C 3.6875 -7.640625 3.628906 -6.757812 3.578125 -5.875 L 3.171875 -0.578125 C 3.054688 -0.222656 2.695312 -0.046875 2.09375 -0.046875 C 1.832031 -0.046875 1.617188 -0.09375 1.453125 -0.1875 C 1.285156 -0.289062 1.203125 -0.445312 1.203125 -0.65625 C 1.265625 -1.488281 1.320312 -2.28125 1.375 -3.03125 C 1.4375 -3.789062 1.488281 -4.503906 1.53125 -5.171875 L 1.703125 -7.671875 C 1.710938 -7.835938 1.722656 -7.988281 1.734375 -8.125 C 1.742188 -8.257812 1.75 -8.382812 1.75 -8.5 C 1.769531 -8.6875 1.785156 -8.882812 1.796875 -9.09375 C 1.816406 -9.300781 1.832031 -9.507812 1.84375 -9.71875 C 1.863281 -9.957031 1.882812 -10.203125 1.90625 -10.453125 C 1.9375 -10.703125 1.957031 -10.957031 1.96875 -11.21875 Z M 1.96875 -11.21875 "/></g></g></g><g fill="#000000" fill-opacity="1"><g transform="translate(162.172296, 302.279834)"><g><path d="M 6.625 -0.625 C 6.59375 -0.757812 6.5625 -1.015625 6.53125 -1.390625 C 6.507812 -1.773438 6.5 -2.285156 6.5 -2.921875 L 6.5 -4.046875 C 6.5 -5.078125 6.472656 -6.003906 6.421875 -6.828125 C 6.367188 -7.660156 6.285156 -8.367188 6.171875 -8.953125 C 5.953125 -10.171875 5.46875 -10.78125 4.71875 -10.78125 C 4.257812 -10.78125 3.78125 -10.285156 3.28125 -9.296875 L 3.28125 -8.28125 L 3.25 -4.46875 C 3.25 -3.875 3.257812 -3.273438 3.28125 -2.671875 C 3.3125 -2.078125 3.34375 -1.46875 3.375 -0.84375 C 3.257812 -0.5 2.953125 -0.328125 2.453125 -0.328125 C 2.234375 -0.328125 2.023438 -0.367188 1.828125 -0.453125 C 1.628906 -0.535156 1.488281 -0.644531 1.40625 -0.78125 C 1.363281 -1.425781 1.332031 -2.054688 1.3125 -2.671875 C 1.289062 -3.285156 1.28125 -3.878906 1.28125 -4.453125 L 1.296875 -8.125 C 1.296875 -8.789062 1.285156 -9.410156 1.265625 -9.984375 C 1.253906 -10.554688 1.234375 -11.101562 1.203125 -11.625 C 1.203125 -11.8125 1.285156 -11.957031 1.453125 -12.0625 C 1.628906 -12.164062 1.84375 -12.21875 2.09375 -12.21875 C 2.445312 -12.21875 2.691406 -12.164062 2.828125 -12.0625 C 2.972656 -11.957031 3.097656 -11.738281 3.203125 -11.40625 C 3.671875 -11.71875 4.15625 -11.875 4.65625 -11.875 C 5.65625 -11.875 6.4375 -11.566406 7 -10.953125 C 7.5625 -10.335938 7.957031 -9.453125 8.1875 -8.296875 C 8.425781 -7.148438 8.546875 -5.773438 8.546875 -4.171875 L 8.546875 -2.28125 C 8.546875 -2.15625 8.550781 -1.960938 8.5625 -1.703125 C 8.570312 -1.453125 8.582031 -1.117188 8.59375 -0.703125 C 8.476562 -0.347656 8.171875 -0.171875 7.671875 -0.171875 C 7.453125 -0.171875 7.242188 -0.210938 7.046875 -0.296875 C 6.847656 -0.378906 6.707031 -0.488281 6.625 -0.625 Z M 6.625 -0.625 "/></g></g></g><g fill="#000000" fill-opacity="1"><g transform="translate(172.245705, 302.279834)"><g><path d="M 10.328125 -11.703125 C 9.671875 -11.703125 9.210938 -11.117188 8.953125 -9.953125 C 9.671875 -9.429688 10.03125 -8.671875 10.03125 -7.671875 C 10.03125 -6.835938 9.875 -6.179688 9.5625 -5.703125 C 9.25 -5.234375 8.71875 -4.832031 7.96875 -4.5 C 7.15625 -4.164062 6.359375 -4 5.578125 -4 L 4.875 -4.046875 C 4.875 -3.796875 4.863281 -3.640625 4.84375 -3.578125 C 4.832031 -3.503906 4.828125 -3.34375 4.828125 -3.09375 C 5.992188 -3.03125 7.023438 -2.835938 7.921875 -2.515625 C 8.828125 -2.203125 9.535156 -1.757812 10.046875 -1.1875 C 10.566406 -0.625 10.828125 0.0703125 10.828125 0.90625 C 10.828125 1.632812 10.582031 2.34375 10.09375 3.03125 C 9.613281 3.726562 8.984375 4.3125 8.203125 4.78125 C 7.429688 5.238281 6.644531 5.503906 5.84375 5.578125 C 5.445312 5.628906 5.039062 5.65625 4.625 5.65625 C 3.738281 5.65625 2.90625 5.507812 2.125 5.21875 C 1.34375 4.925781 0.707031 4.488281 0.21875 3.90625 C -0.289062 3.332031 -0.546875 2.582031 -0.546875 1.65625 C -0.546875 0.664062 -0.273438 -0.179688 0.265625 -0.890625 C 0.816406 -1.609375 1.632812 -2.238281 2.71875 -2.78125 C 2.769531 -2.78125 2.820312 -3.003906 2.875 -3.453125 C 2.894531 -3.679688 2.90625 -3.898438 2.90625 -4.109375 C 2.914062 -4.316406 2.921875 -4.515625 2.921875 -4.703125 C 2.359375 -5.066406 1.890625 -5.503906 1.515625 -6.015625 C 1.148438 -6.535156 0.96875 -7.140625 0.96875 -7.828125 C 0.96875 -8.085938 0.992188 -8.253906 1.046875 -8.328125 C 1.660156 -9.992188 3.132812 -10.828125 5.46875 -10.828125 C 5.800781 -10.828125 6.117188 -10.8125 6.421875 -10.78125 C 6.722656 -10.757812 6.988281 -10.71875 7.21875 -10.65625 C 7.46875 -11.269531 7.90625 -11.765625 8.53125 -12.140625 C 9.15625 -12.523438 9.820312 -12.71875 10.53125 -12.71875 C 11.207031 -12.71875 11.757812 -12.539062 12.1875 -12.1875 C 12.613281 -11.832031 12.828125 -11.3125 12.828125 -10.625 C 12.828125 -10.007812 12.457031 -9.703125 11.71875 -9.703125 C 11.457031 -9.703125 11.242188 -9.75 11.078125 -9.84375 C 10.910156 -9.945312 10.828125 -10.097656 10.828125 -10.296875 L 10.84375 -10.71875 C 10.84375 -10.96875 10.796875 -11.191406 10.703125 -11.390625 C 10.617188 -11.597656 10.492188 -11.703125 10.328125 -11.703125 Z M 2.96875 -7.71875 C 2.96875 -7.238281 3.097656 -6.796875 3.359375 -6.390625 C 3.617188 -5.984375 3.957031 -5.65625 4.375 -5.40625 C 4.8125 -5.15625 5.238281 -5.03125 5.65625 -5.03125 C 6.25 -5.03125 6.832031 -5.238281 7.40625 -5.65625 C 7.632812 -6.050781 7.796875 -6.390625 7.890625 -6.671875 C 7.984375 -6.953125 8.03125 -7.28125 8.03125 -7.65625 C 8.03125 -9.113281 7.144531 -9.84375 5.375 -9.84375 C 4.925781 -9.84375 4.519531 -9.742188 4.15625 -9.546875 C 3.800781 -9.347656 3.523438 -9.09375 3.328125 -8.78125 C 3.128906 -8.476562 3.007812 -8.191406 2.96875 -7.921875 Z M 8.90625 0.875 C 8.769531 -0.144531 8.367188 -0.910156 7.703125 -1.421875 C 7.046875 -1.941406 6.226562 -2.203125 5.25 -2.203125 C 4.769531 -2.203125 4.421875 -2.164062 4.203125 -2.09375 C 3.316406 -1.914062 2.628906 -1.488281 2.140625 -0.8125 C 1.660156 -0.132812 1.421875 0.6875 1.421875 1.65625 C 1.421875 2.15625 1.535156 2.632812 1.765625 3.09375 C 2.003906 3.550781 2.359375 3.921875 2.828125 4.203125 C 3.296875 4.515625 3.882812 4.671875 4.59375 4.671875 C 5.257812 4.671875 5.925781 4.492188 6.59375 4.140625 C 7.257812 3.796875 7.8125 3.332031 8.25 2.75 C 8.6875 2.164062 8.90625 1.539062 8.90625 0.875 Z M 8.90625 0.875 "/></g></g></g><g fill="#000000" fill-opacity="1"><g transform="translate(184.09383, 302.279834)"><g><path d="M 5.203125 -10.84375 C 5.378906 -10.832031 5.535156 -10.804688 5.671875 -10.765625 C 5.804688 -10.734375 5.90625 -10.703125 5.96875 -10.671875 C 6.15625 -10.578125 6.25 -10.46875 6.25 -10.34375 C 6.25 -10.195312 6.148438 -10.070312 5.953125 -9.96875 C 5.753906 -9.875 5.503906 -9.828125 5.203125 -9.828125 L 4.40625 -9.828125 C 4.40625 -6.960938 4.414062 -4.65625 4.4375 -2.90625 C 4.457031 -1.15625 4.488281 0.0351562 4.53125 0.671875 C 4.40625 1.023438 4.09375 1.203125 3.59375 1.203125 C 3.382812 1.203125 3.175781 1.160156 2.96875 1.078125 C 2.769531 0.992188 2.628906 0.882812 2.546875 0.75 C 2.515625 -0.5625 2.484375 -2.019531 2.453125 -3.625 C 2.429688 -5.226562 2.421875 -6.988281 2.421875 -8.90625 L 2.421875 -9.921875 C 2.359375 -9.941406 2.265625 -9.953125 2.140625 -9.953125 C 2.015625 -9.953125 1.84375 -9.953125 1.625 -9.953125 C 0.875 -9.984375 0.320312 -10.03125 -0.03125 -10.09375 C -0.394531 -10.144531 -0.578125 -10.28125 -0.578125 -10.5 C -0.578125 -10.601562 -0.492188 -10.703125 -0.328125 -10.796875 C -0.171875 -10.898438 0.046875 -10.96875 0.328125 -11 C 1.023438 -11 1.734375 -10.972656 2.453125 -10.921875 L 2.453125 -13.328125 C 2.453125 -15.003906 2.535156 -16.351562 2.703125 -17.375 C 2.867188 -18.394531 3.203125 -19.253906 3.703125 -19.953125 C 4.234375 -20.679688 5.023438 -21.046875 6.078125 -21.046875 C 6.523438 -21.046875 7.0625 -20.96875 7.6875 -20.8125 C 8.3125 -20.664062 8.84375 -20.476562 9.28125 -20.25 C 9.726562 -20.03125 9.953125 -19.804688 9.953125 -19.578125 C 9.953125 -19.441406 9.867188 -19.34375 9.703125 -19.28125 C 9.546875 -19.207031 9.3125 -19.171875 9 -19.171875 C 8.800781 -19.171875 8.609375 -19.203125 8.421875 -19.265625 C 8.242188 -19.335938 8.007812 -19.457031 7.71875 -19.625 C 7.4375 -19.789062 7.207031 -19.90625 7.03125 -19.96875 C 6.863281 -20.039062 6.6875 -20.078125 6.5 -20.078125 C 6.28125 -20.078125 6.03125 -20 5.75 -19.84375 C 5.25 -19.25 4.898438 -18.398438 4.703125 -17.296875 C 4.503906 -16.203125 4.40625 -14.84375 4.40625 -13.21875 L 4.40625 -10.84375 Z M 5.203125 -10.84375 "/></g></g></g><g fill="#000000" fill-opacity="1"><g transform="translate(190.99274, 302.279834)"><g><path d="M 3.09375 -11.125 C 3.132812 -10.9375 3.164062 -10.648438 3.1875 -10.265625 C 3.207031 -9.890625 3.21875 -9.410156 3.21875 -8.828125 L 3.21875 -7.703125 C 3.21875 -6.671875 3.242188 -5.738281 3.296875 -4.90625 C 3.347656 -4.082031 3.429688 -3.378906 3.546875 -2.796875 C 3.765625 -1.578125 4.25 -0.96875 5 -0.96875 C 5.46875 -0.96875 5.953125 -1.460938 6.453125 -2.453125 L 6.453125 -3.46875 L 6.46875 -7.28125 C 6.46875 -7.875 6.457031 -8.46875 6.4375 -9.0625 C 6.414062 -9.664062 6.382812 -10.28125 6.34375 -10.90625 C 6.476562 -11.25 6.789062 -11.421875 7.28125 -11.421875 C 7.488281 -11.421875 7.691406 -11.378906 7.890625 -11.296875 C 8.097656 -11.210938 8.242188 -11.101562 8.328125 -10.96875 C 8.359375 -10.320312 8.382812 -9.691406 8.40625 -9.078125 C 8.4375 -8.472656 8.453125 -7.878906 8.453125 -7.296875 L 8.421875 -3.625 C 8.421875 -2.957031 8.425781 -2.335938 8.4375 -1.765625 C 8.457031 -1.191406 8.488281 -0.644531 8.53125 -0.125 C 8.53125 0.0625 8.441406 0.207031 8.265625 0.3125 C 8.085938 0.414062 7.875 0.46875 7.625 0.46875 C 7.269531 0.46875 7.019531 0.414062 6.875 0.3125 C 6.738281 0.207031 6.625 -0.0078125 6.53125 -0.34375 C 6.0625 -0.03125 5.578125 0.125 5.078125 0.125 L 4.84375 0.09375 C 3.84375 -0.0507812 3.0625 -0.484375 2.5 -1.203125 C 1.945312 -1.921875 1.585938 -2.828125 1.421875 -3.921875 C 1.335938 -4.410156 1.273438 -4.960938 1.234375 -5.578125 C 1.191406 -6.191406 1.171875 -6.859375 1.171875 -7.578125 L 1.171875 -9.46875 C 1.171875 -9.59375 1.164062 -9.78125 1.15625 -10.03125 C 1.15625 -10.289062 1.144531 -10.628906 1.125 -11.046875 C 1.257812 -11.398438 1.566406 -11.578125 2.046875 -11.578125 C 2.265625 -11.578125 2.472656 -11.535156 2.671875 -11.453125 C 2.867188 -11.367188 3.007812 -11.257812 3.09375 -11.125 Z M 3.09375 -11.125 "/></g></g></g><g fill="#000000" fill-opacity="1"><g transform="translate(201.066149, 302.279834)"><g><path d="M 1.796875 -19.59375 C 1.878906 -19.726562 2.019531 -19.835938 2.21875 -19.921875 C 2.425781 -20.003906 2.632812 -20.046875 2.84375 -20.046875 C 3.34375 -20.046875 3.65625 -19.875 3.78125 -19.53125 C 3.738281 -18.570312 3.691406 -17.273438 3.640625 -15.640625 C 3.597656 -14.015625 3.5625 -12.039062 3.53125 -9.71875 C 3.488281 -7.40625 3.441406 -5.429688 3.390625 -3.796875 C 3.347656 -2.160156 3.3125 -0.867188 3.28125 0.078125 C 3.15625 0.421875 2.796875 0.59375 2.203125 0.59375 C 1.929688 0.59375 1.710938 0.539062 1.546875 0.4375 C 1.378906 0.34375 1.296875 0.195312 1.296875 0 C 1.296875 -2.78125 1.335938 -5.804688 1.421875 -9.078125 C 1.503906 -12.359375 1.628906 -15.863281 1.796875 -19.59375 Z M 1.796875 -19.59375 "/></g></g></g><g fill="#000000" fill-opacity="1"><g transform="translate(206.340319, 302.279834)"><g/></g></g><g fill="#000000" fill-opacity="1"><g transform="translate(218.838342, 302.279834)"><g><path d="M 12 -15.671875 C 12.132812 -15.535156 12.203125 -15.421875 12.203125 -15.328125 C 12.203125 -15.191406 12.117188 -15.09375 11.953125 -15.03125 C 11.796875 -14.957031 11.5625 -14.921875 11.25 -14.921875 C 10.863281 -14.921875 10.554688 -14.988281 10.328125 -15.125 C 9.546875 -15.707031 8.6875 -16 7.75 -16 C 6.269531 -16 5.101562 -15.445312 4.25 -14.34375 C 3.394531 -13.25 2.90625 -11.394531 2.78125 -8.78125 L 2.75 -8.171875 C 2.75 -6.972656 2.910156 -5.785156 3.234375 -4.609375 C 3.554688 -3.429688 4.003906 -2.425781 4.578125 -1.59375 C 5.128906 -0.8125 5.6875 -0.421875 6.25 -0.421875 C 6.644531 -0.421875 7.015625 -0.601562 7.359375 -0.96875 C 7.703125 -1.34375 7.972656 -1.835938 8.171875 -2.453125 C 8.367188 -3.085938 8.46875 -3.738281 8.46875 -4.40625 C 8.46875 -4.53125 8.457031 -4.703125 8.4375 -4.921875 C 8.414062 -5.140625 8.382812 -5.390625 8.34375 -5.671875 L 6.421875 -5.578125 C 5.828125 -5.660156 5.53125 -5.828125 5.53125 -6.078125 C 5.53125 -6.171875 5.613281 -6.269531 5.78125 -6.375 C 5.925781 -6.476562 6.140625 -6.546875 6.421875 -6.578125 L 9.21875 -6.703125 C 9.707031 -6.671875 10.023438 -6.550781 10.171875 -6.34375 C 10.328125 -6.144531 10.40625 -5.78125 10.40625 -5.25 C 10.40625 -5 10.394531 -4.84375 10.375 -4.78125 C 10.351562 -4.707031 10.34375 -4.632812 10.34375 -4.5625 C 10.34375 -4.488281 10.34375 -4.410156 10.34375 -4.328125 C 10.300781 -3.546875 10.1875 -2.867188 10 -2.296875 C 9.8125 -1.734375 9.53125 -1.21875 9.15625 -0.75 C 8.800781 -0.363281 8.359375 -0.0664062 7.828125 0.140625 C 7.304688 0.347656 6.75 0.453125 6.15625 0.453125 C 5.40625 0.453125 4.71875 0.296875 4.09375 -0.015625 C 3.46875 -0.335938 2.988281 -0.789062 2.65625 -1.375 C 2.632812 -1.40625 2.597656 -1.46875 2.546875 -1.5625 C 2.492188 -1.65625 2.425781 -1.785156 2.34375 -1.953125 C 2.164062 -2.253906 2.007812 -2.5625 1.875 -2.875 C 1.519531 -3.726562 1.25 -4.675781 1.0625 -5.71875 C 0.882812 -6.757812 0.796875 -7.8125 0.796875 -8.875 C 0.796875 -11.769531 1.40625 -13.90625 2.625 -15.28125 C 3.144531 -15.863281 3.851562 -16.289062 4.75 -16.5625 C 5.644531 -16.832031 6.628906 -16.96875 7.703125 -16.96875 C 9.398438 -16.96875 10.832031 -16.535156 12 -15.671875 Z M 12 -15.671875 "/></g></g></g><g fill="#000000" fill-opacity="1"><g transform="translate(230.961423, 302.279834)"><g><path d="M 2.03125 -14.796875 C 2.03125 -15.078125 2.171875 -15.347656 2.453125 -15.609375 C 2.734375 -15.867188 3.054688 -16 3.421875 -16 C 3.703125 -16 3.914062 -15.863281 4.0625 -15.59375 C 4.207031 -15.332031 4.28125 -14.984375 4.28125 -14.546875 C 4.28125 -14.203125 4.164062 -13.925781 3.9375 -13.71875 C 3.707031 -13.519531 3.421875 -13.421875 3.078125 -13.421875 C 2.828125 -13.421875 2.585938 -13.570312 2.359375 -13.875 C 2.140625 -14.1875 2.03125 -14.492188 2.03125 -14.796875 Z M 1.96875 -11.21875 C 2.050781 -11.351562 2.191406 -11.460938 2.390625 -11.546875 C 2.597656 -11.628906 2.8125 -11.671875 3.03125 -11.671875 C 3.53125 -11.671875 3.835938 -11.5 3.953125 -11.15625 C 3.878906 -10.28125 3.8125 -9.398438 3.75 -8.515625 C 3.6875 -7.640625 3.628906 -6.757812 3.578125 -5.875 L 3.171875 -0.578125 C 3.054688 -0.222656 2.695312 -0.046875 2.09375 -0.046875 C 1.832031 -0.046875 1.617188 -0.09375 1.453125 -0.1875 C 1.285156 -0.289062 1.203125 -0.445312 1.203125 -0.65625 C 1.265625 -1.488281 1.320312 -2.28125 1.375 -3.03125 C 1.4375 -3.789062 1.488281 -4.503906 1.53125 -5.171875 L 1.703125 -7.671875 C 1.710938 -7.835938 1.722656 -7.988281 1.734375 -8.125 C 1.742188 -8.257812 1.75 -8.382812 1.75 -8.5 C 1.769531 -8.6875 1.785156 -8.882812 1.796875 -9.09375 C 1.816406 -9.300781 1.832031 -9.507812 1.84375 -9.71875 C 1.863281 -9.957031 1.882812 -10.203125 1.90625 -10.453125 C 1.9375 -10.703125 1.957031 -10.957031 1.96875 -11.21875 Z M 1.96875 -11.21875 "/></g></g></g><g fill="#000000" fill-opacity="1"><g transform="translate(236.310574, 302.279834)"><g><path d="M 5.203125 -10.84375 C 5.378906 -10.832031 5.535156 -10.804688 5.671875 -10.765625 C 5.804688 -10.734375 5.90625 -10.703125 5.96875 -10.671875 C 6.15625 -10.578125 6.25 -10.46875 6.25 -10.34375 C 6.25 -10.195312 6.148438 -10.070312 5.953125 -9.96875 C 5.753906 -9.875 5.503906 -9.828125 5.203125 -9.828125 L 4.40625 -9.828125 C 4.40625 -6.960938 4.414062 -4.65625 4.4375 -2.90625 C 4.457031 -1.15625 4.488281 0.0351562 4.53125 0.671875 C 4.40625 1.023438 4.09375 1.203125 3.59375 1.203125 C 3.382812 1.203125 3.175781 1.160156 2.96875 1.078125 C 2.769531 0.992188 2.628906 0.882812 2.546875 0.75 C 2.515625 -0.5625 2.484375 -2.019531 2.453125 -3.625 C 2.429688 -5.226562 2.421875 -6.988281 2.421875 -8.90625 L 2.421875 -9.921875 C 2.359375 -9.941406 2.265625 -9.953125 2.140625 -9.953125 C 2.015625 -9.953125 1.84375 -9.953125 1.625 -9.953125 C 0.875 -9.984375 0.320312 -10.03125 -0.03125 -10.09375 C -0.394531 -10.144531 -0.578125 -10.28125 -0.578125 -10.5 C -0.578125 -10.601562 -0.492188 -10.703125 -0.328125 -10.796875 C -0.171875 -10.898438 0.046875 -10.96875 0.328125 -11 C 1.023438 -11 1.734375 -10.972656 2.453125 -10.921875 L 2.453125 -13.328125 C 2.453125 -15.003906 2.535156 -16.351562 2.703125 -17.375 C 2.867188 -18.394531 3.203125 -19.253906 3.703125 -19.953125 C 4.234375 -20.679688 5.023438 -21.046875 6.078125 -21.046875 C 6.523438 -21.046875 7.0625 -20.96875 7.6875 -20.8125 C 8.3125 -20.664062 8.84375 -20.476562 9.28125 -20.25 C 9.726562 -20.03125 9.953125 -19.804688 9.953125 -19.578125 C 9.953125 -19.441406 9.867188 -19.34375 9.703125 -19.28125 C 9.546875 -19.207031 9.3125 -19.171875 9 -19.171875 C 8.800781 -19.171875 8.609375 -19.203125 8.421875 -19.265625 C 8.242188 -19.335938 8.007812 -19.457031 7.71875 -19.625 C 7.4375 -19.789062 7.207031 -19.90625 7.03125 -19.96875 C 6.863281 -20.039062 6.6875 -20.078125 6.5 -20.078125 C 6.28125 -20.078125 6.03125 -20 5.75 -19.84375 C 5.25 -19.25 4.898438 -18.398438 4.703125 -17.296875 C 4.503906 -16.203125 4.40625 -14.84375 4.40625 -13.21875 L 4.40625 -10.84375 Z M 5.203125 -10.84375 "/></g></g></g><g fill="#000000" fill-opacity="1"><g transform="translate(243.209484, 302.279834)"><g><path d="M -0.5 -12.59375 C -1.101562 -12.675781 -1.40625 -12.84375 -1.40625 -13.09375 C -1.40625 -13.195312 -1.320312 -13.300781 -1.15625 -13.40625 C -1 -13.5 -0.78125 -13.5625 -0.5 -13.59375 L 1.328125 -13.59375 L 1.421875 -14.75 C 1.503906 -14.882812 1.644531 -14.992188 1.84375 -15.078125 C 2.050781 -15.160156 2.257812 -15.203125 2.46875 -15.203125 C 2.96875 -15.203125 3.28125 -15.023438 3.40625 -14.671875 L 3.328125 -13.65625 C 3.492188 -13.664062 3.753906 -13.671875 4.109375 -13.671875 C 4.472656 -13.671875 4.9375 -13.671875 5.5 -13.671875 C 5.851562 -13.671875 6.113281 -13.625 6.28125 -13.53125 C 6.457031 -13.425781 6.546875 -13.304688 6.546875 -13.171875 C 6.546875 -12.972656 6.347656 -12.832031 5.953125 -12.75 C 5.765625 -12.71875 5.53125 -12.691406 5.25 -12.671875 C 4.96875 -12.660156 4.644531 -12.65625 4.28125 -12.65625 L 3.21875 -12.65625 L 3.171875 -11.5 C 3.109375 -10.4375 3.054688 -9.519531 3.015625 -8.75 C 2.984375 -7.976562 2.96875 -7.351562 2.96875 -6.875 C 2.96875 -2.875 3.503906 -0.875 4.578125 -0.875 C 4.828125 -0.875 5.046875 -0.925781 5.234375 -1.03125 C 5.429688 -1.144531 5.71875 -1.367188 6.09375 -1.703125 L 6.5 -2.15625 C 6.695312 -2.351562 7.03125 -2.453125 7.5 -2.453125 C 8.082031 -2.453125 8.375 -2.285156 8.375 -1.953125 C 8.375 -1.867188 8.363281 -1.816406 8.34375 -1.796875 C 7.914062 -1.179688 7.351562 -0.703125 6.65625 -0.359375 C 5.96875 -0.015625 5.238281 0.15625 4.46875 0.15625 C 3.851562 0.15625 3.316406 0.0507812 2.859375 -0.15625 C 2.398438 -0.363281 2.082031 -0.695312 1.90625 -1.15625 C 1.320312 -2.75 1.03125 -4.875 1.03125 -7.53125 C 1.03125 -8.988281 1.101562 -10.675781 1.25 -12.59375 Z M -0.5 -12.59375 "/></g></g></g><g fill="#000000" fill-opacity="1"><g transform="translate(250.683299, 302.279834)"><g><path d="M 5.21875 -13 C 5.46875 -13 5.769531 -12.921875 6.125 -12.765625 C 6.476562 -12.617188 6.78125 -12.429688 7.03125 -12.203125 C 7.28125 -11.953125 7.40625 -11.6875 7.40625 -11.40625 C 7.40625 -11.25 7.320312 -11.128906 7.15625 -11.046875 C 7 -10.960938 6.796875 -10.921875 6.546875 -10.921875 C 6.328125 -10.921875 6.164062 -10.960938 6.0625 -11.046875 C 5.96875 -11.128906 5.875 -11.28125 5.78125 -11.5 C 5.65625 -11.769531 5.507812 -11.90625 5.34375 -11.90625 C 5.132812 -11.90625 4.929688 -11.800781 4.734375 -11.59375 C 4.546875 -11.382812 4.394531 -11.125 4.28125 -10.8125 C 4.175781 -10.5 4.125 -10.195312 4.125 -9.90625 C 4.125 -9.414062 4.210938 -9.054688 4.390625 -8.828125 C 4.566406 -8.609375 4.925781 -8.34375 5.46875 -8.03125 C 5.707031 -7.894531 5.832031 -7.820312 5.84375 -7.8125 C 5.863281 -7.800781 5.929688 -7.753906 6.046875 -7.671875 C 6.179688 -7.585938 6.335938 -7.488281 6.515625 -7.375 C 6.691406 -7.257812 6.78125 -7.203125 6.78125 -7.203125 C 7.625 -6.628906 8.046875 -5.503906 8.046875 -3.828125 C 8.046875 -2.390625 7.65625 -1.3125 6.875 -0.59375 C 6.09375 0.113281 5.101562 0.46875 3.90625 0.46875 C 2.78125 0.46875 1.921875 0.285156 1.328125 -0.078125 C 0.742188 -0.441406 0.453125 -1.070312 0.453125 -1.96875 L 0.453125 -2.25 C 0.453125 -2.882812 0.53125 -3.34375 0.6875 -3.625 C 0.84375 -3.90625 1.179688 -4.046875 1.703125 -4.046875 C 2.203125 -4.046875 2.507812 -3.875 2.625 -3.53125 C 2.476562 -3.007812 2.40625 -2.582031 2.40625 -2.25 C 2.40625 -1.71875 2.53125 -1.296875 2.78125 -0.984375 C 3.03125 -0.679688 3.394531 -0.53125 3.875 -0.53125 L 4.078125 -0.53125 C 4.492188 -0.625 4.847656 -0.867188 5.140625 -1.265625 C 5.441406 -1.671875 5.675781 -2.148438 5.84375 -2.703125 C 5.914062 -2.953125 5.96875 -3.179688 6 -3.390625 C 6.03125 -3.609375 6.046875 -3.800781 6.046875 -3.96875 C 6.046875 -4.882812 5.726562 -5.644531 5.09375 -6.25 C 4.925781 -6.382812 4.75 -6.519531 4.5625 -6.65625 C 4.382812 -6.800781 4.207031 -6.941406 4.03125 -7.078125 C 3.3125 -7.578125 2.804688 -8.019531 2.515625 -8.40625 C 2.234375 -8.800781 2.09375 -9.316406 2.09375 -9.953125 C 2.09375 -10.484375 2.242188 -10.984375 2.546875 -11.453125 C 2.847656 -11.929688 3.25 -12.3125 3.75 -12.59375 C 4.21875 -12.863281 4.707031 -13 5.21875 -13 Z M 5.21875 -13 "/></g></g></g></svg>