<svg xmlns="http://www.w3.org/2000/svg" xmlns:xlink="http://www.w3.org/1999/xlink" width="500" zoomAndPan="magnify" viewBox="0 0 375 374.999991" height="500" preserveAspectRatio="xMidYMid meet" version="1.0"><defs><g/><clipPath id="5c72819ef2"><path d="M 103.914062 85.253906 L 271 85.253906 L 271 290 L 103.914062 290 Z M 103.914062 85.253906 " clip-rule="nonzero"/></clipPath></defs><rect x="-37.5" width="450" fill="#ffffff" y="-37.499999" height="449.999989" fill-opacity="1"/><rect x="-37.5" width="450" fill="#ffffff" y="-37.499999" height="449.999989" fill-opacity="1"/><g fill="#000000" fill-opacity="1"><g transform="translate(121.529293, 321.355292)"><g><path d="M 1.84375 -5.71875 C 1.476562 -5.738281 1.195312 -5.816406 1 -5.953125 C 0.78125 -6.046875 0.671875 -6.171875 0.671875 -6.328125 C 0.671875 -6.472656 0.78125 -6.601562 1 -6.71875 C 1.144531 -6.84375 1.425781 -6.925781 1.84375 -6.96875 L 2.46875 -6.96875 L 2.703125 -8 C 3.035156 -9.632812 3.390625 -10.972656 3.765625 -12.015625 C 4.148438 -13.066406 4.6875 -13.992188 5.375 -14.796875 C 6.101562 -15.648438 7.035156 -16.078125 8.171875 -16.078125 C 11.140625 -16.078125 12.625 -12.101562 12.625 -4.15625 L 12.625 -2.921875 C 12.625 -2.359375 12.609375 -1.722656 12.578125 -1.015625 C 12.554688 -0.304688 12.53125 0.476562 12.5 1.34375 C 12.382812 1.695312 12.023438 1.875 11.421875 1.875 C 11.160156 1.875 10.945312 1.820312 10.78125 1.71875 C 10.613281 1.625 10.53125 1.476562 10.53125 1.28125 C 10.5625 0.738281 10.582031 0.125 10.59375 -0.5625 C 10.613281 -1.25 10.625 -2.003906 10.625 -2.828125 C 10.625 -3.960938 10.597656 -5.085938 10.546875 -6.203125 C 10.285156 -6.179688 9.847656 -6.15625 9.234375 -6.125 C 8.628906 -6.09375 7.851562 -6.035156 6.90625 -5.953125 L 4.21875 -5.78125 C 4.070312 -4.757812 3.953125 -3.796875 3.859375 -2.890625 C 3.765625 -1.984375 3.703125 -1.132812 3.671875 -0.34375 C 3.554688 0 3.195312 0.171875 2.59375 0.171875 C 2.332031 0.171875 2.117188 0.117188 1.953125 0.015625 C 1.785156 -0.078125 1.703125 -0.222656 1.703125 -0.421875 C 1.753906 -1.359375 1.820312 -2.269531 1.90625 -3.15625 C 2 -4.050781 2.113281 -4.90625 2.25 -5.71875 Z M 10.203125 -9.75 C 10.085938 -10.476562 9.960938 -11.148438 9.828125 -11.765625 C 9.691406 -12.390625 9.554688 -12.941406 9.421875 -13.421875 C 9.109375 -14.472656 8.644531 -15 8.03125 -15 C 7.820312 -15 7.597656 -14.878906 7.359375 -14.640625 C 7.117188 -14.398438 6.90625 -14.117188 6.71875 -13.796875 C 5.738281 -12.234375 4.972656 -9.984375 4.421875 -7.046875 C 4.609375 -7.066406 4.957031 -7.085938 5.46875 -7.109375 C 5.988281 -7.140625 6.65625 -7.1875 7.46875 -7.25 L 8.078125 -7.296875 L 10.453125 -7.453125 Z M 10.203125 -9.75 "/></g></g></g><g fill="#000000" fill-opacity="1"><g transform="translate(135.627063, 321.355292)"><g><path d="M 1.796875 -19.59375 C 1.878906 -19.726562 2.019531 -19.835938 2.21875 -19.921875 C 2.425781 -20.003906 2.632812 -20.046875 2.84375 -20.046875 C 3.34375 -20.046875 3.65625 -19.875 3.78125 -19.53125 C 3.738281 -18.570312 3.691406 -17.273438 3.640625 -15.640625 C 3.597656 -14.015625 3.5625 -12.039062 3.53125 -9.71875 C 3.488281 -7.40625 3.441406 -5.429688 3.390625 -3.796875 C 3.347656 -2.160156 3.3125 -0.867188 3.28125 0.078125 C 3.15625 0.421875 2.796875 0.59375 2.203125 0.59375 C 1.929688 0.59375 1.710938 0.539062 1.546875 0.4375 C 1.378906 0.34375 1.296875 0.195312 1.296875 0 C 1.296875 -2.78125 1.335938 -5.804688 1.421875 -9.078125 C 1.503906 -12.359375 1.628906 -15.863281 1.796875 -19.59375 Z M 1.796875 -19.59375 "/></g></g></g><g fill="#000000" fill-opacity="1"><g transform="translate(140.901233, 321.355292)"><g><path d="M 5.921875 -11 C 5.921875 -11.382812 6.1875 -11.578125 6.71875 -11.578125 C 7.207031 -11.578125 7.582031 -11.457031 7.84375 -11.21875 C 8.332031 -9.925781 8.769531 -8.78125 9.15625 -7.78125 C 9.550781 -6.789062 9.929688 -5.910156 10.296875 -5.140625 C 10.660156 -4.378906 11.035156 -3.671875 11.421875 -3.015625 C 11.804688 -2.367188 12.222656 -1.726562 12.671875 -1.09375 C 12.953125 -1.5625 13.1875 -2.03125 13.375 -2.5 C 13.570312 -2.976562 13.757812 -3.546875 13.9375 -4.203125 C 14.125 -4.867188 14.328125 -5.691406 14.546875 -6.671875 L 14.65625 -7.171875 L 14.75 -7.578125 C 14.832031 -7.710938 14.972656 -7.820312 15.171875 -7.90625 C 15.367188 -7.988281 15.578125 -8.03125 15.796875 -8.03125 C 16.296875 -8.03125 16.601562 -7.851562 16.71875 -7.5 C 16.320312 -5.601562 15.921875 -4.085938 15.515625 -2.953125 C 15.117188 -1.816406 14.695312 -1 14.25 -0.5 C 13.78125 0 13.253906 0.25 12.671875 0.25 C 11.953125 0.25 11.300781 -0.113281 10.71875 -0.84375 C 10.132812 -1.582031 9.503906 -2.675781 8.828125 -4.125 C 8.410156 -3.457031 8.015625 -2.859375 7.640625 -2.328125 C 7.273438 -1.804688 6.9375 -1.363281 6.625 -1 C 6.019531 -0.28125 5.4375 0.078125 4.875 0.078125 C 4.507812 0.078125 4.179688 -0.0664062 3.890625 -0.359375 C 3.597656 -0.648438 3.367188 -1.019531 3.203125 -1.46875 C 3.148438 -1.59375 3.070312 -1.785156 2.96875 -2.046875 C 2.875 -2.316406 2.757812 -2.664062 2.625 -3.09375 L 2.40625 -3.84375 L 2.125 -4.671875 C 1.3125 -7.023438 0.710938 -8.898438 0.328125 -10.296875 C 0.328125 -10.484375 0.410156 -10.628906 0.578125 -10.734375 C 0.753906 -10.847656 0.96875 -10.90625 1.21875 -10.90625 C 1.46875 -10.90625 1.695312 -10.851562 1.90625 -10.75 C 2.113281 -10.644531 2.242188 -10.519531 2.296875 -10.375 C 2.628906 -9.144531 3.03125 -7.820312 3.5 -6.40625 C 3.976562 -4.988281 4.53125 -3.46875 5.15625 -1.84375 L 6.078125 -3.28125 C 6.492188 -3.90625 6.851562 -4.445312 7.15625 -4.90625 C 7.46875 -5.363281 7.722656 -5.726562 7.921875 -6 C 7.441406 -7.113281 7.035156 -8.082031 6.703125 -8.90625 C 6.367188 -9.738281 6.109375 -10.4375 5.921875 -11 Z M 5.921875 -11 "/></g></g></g><g fill="#000000" fill-opacity="1"><g transform="translate(159.148344, 321.355292)"><g><path d="M 2.5 -10 C 2.28125 -9.894531 1.972656 -9.84375 1.578125 -9.84375 C 0.992188 -9.84375 0.703125 -9.96875 0.703125 -10.21875 C 0.703125 -10.289062 0.742188 -10.394531 0.828125 -10.53125 C 0.828125 -10.53125 0.96875 -10.742188 1.25 -11.171875 C 1.5 -11.554688 1.898438 -11.875 2.453125 -12.125 C 3.003906 -12.375 3.632812 -12.5 4.34375 -12.5 C 5.78125 -12.5 6.796875 -11.921875 7.390625 -10.765625 C 7.984375 -9.609375 8.28125 -7.976562 8.28125 -5.875 C 8.28125 -4.90625 8.257812 -4.082031 8.21875 -3.40625 C 8.1875 -2.738281 8.128906 -2.125 8.046875 -1.5625 C 7.960938 -1 7.835938 -0.394531 7.671875 0.25 C 7.578125 0.601562 7.21875 0.78125 6.59375 0.78125 C 6.332031 0.78125 6.117188 0.726562 5.953125 0.625 C 5.785156 0.519531 5.703125 0.367188 5.703125 0.171875 C 5.734375 -0.0234375 5.773438 -0.148438 5.828125 -0.203125 C 5.878906 -0.285156 5.925781 -0.4375 5.96875 -0.65625 C 5.300781 -0.40625 4.6875 -0.28125 4.125 -0.28125 C 3.226562 -0.28125 2.492188 -0.570312 1.921875 -1.15625 C 1.359375 -1.75 1.078125 -2.597656 1.078125 -3.703125 C 1.078125 -4.816406 1.414062 -5.664062 2.09375 -6.25 C 2.78125 -6.832031 3.789062 -7.125 5.125 -7.125 C 5.320312 -7.125 5.515625 -7.109375 5.703125 -7.078125 C 5.898438 -7.054688 6.09375 -7.03125 6.28125 -7 C 6.175781 -8.476562 5.988281 -9.59375 5.71875 -10.34375 C 5.457031 -11.132812 5.007812 -11.585938 4.375 -11.703125 C 3.625 -11.703125 3.125 -11.457031 2.875 -10.96875 C 2.757812 -10.757812 2.632812 -10.4375 2.5 -10 Z M 6 -5.421875 C 5.851562 -5.703125 5.703125 -5.894531 5.546875 -6 C 5.398438 -6.113281 5.21875 -6.171875 5 -6.171875 C 4.382812 -6.171875 3.914062 -5.925781 3.59375 -5.4375 C 3.28125 -4.945312 3.125 -4.332031 3.125 -3.59375 C 3.125 -2.976562 3.210938 -2.445312 3.390625 -2 C 3.578125 -1.550781 3.890625 -1.3125 4.328125 -1.28125 C 4.859375 -1.28125 5.296875 -1.570312 5.640625 -2.15625 C 5.992188 -2.738281 6.171875 -3.40625 6.171875 -4.15625 C 6.171875 -4.664062 6.113281 -5.085938 6 -5.421875 Z M 6 -5.421875 "/></g></g></g><g fill="#000000" fill-opacity="1"><g transform="translate(168.596849, 321.355292)"><g><path d="M 9.578125 -11.296875 C 9.742188 -11.566406 10.109375 -11.703125 10.671875 -11.703125 C 10.890625 -11.703125 11.085938 -11.65625 11.265625 -11.5625 C 11.453125 -11.46875 11.546875 -11.351562 11.546875 -11.21875 L 11.5 -11.046875 C 10.226562 -8.078125 9.007812 -5.207031 7.84375 -2.4375 C 6.675781 0.320312 5.5625 2.992188 4.5 5.578125 C 4.226562 5.804688 3.863281 5.921875 3.40625 5.921875 C 2.851562 5.921875 2.578125 5.722656 2.578125 5.328125 L 4.90625 -0.21875 L 4.828125 -0.328125 C 4.253906 -1.304688 3.703125 -2.207031 3.171875 -3.03125 L 2.59375 -3.96875 C 2.007812 -4.957031 1.515625 -5.804688 1.109375 -6.515625 C 0.703125 -7.222656 0.390625 -7.789062 0.171875 -8.21875 C 0.171875 -8.601562 0.4375 -8.796875 0.96875 -8.796875 C 1.457031 -8.796875 1.832031 -8.679688 2.09375 -8.453125 C 2.632812 -7.648438 3.21875 -6.75 3.84375 -5.75 C 4.46875 -4.75 5.132812 -3.65625 5.84375 -2.46875 C 6.164062 -3.238281 6.640625 -4.359375 7.265625 -5.828125 C 7.890625 -7.304688 8.660156 -9.128906 9.578125 -11.296875 Z M 9.578125 -11.296875 "/></g></g></g><g fill="#000000" fill-opacity="1"><g transform="translate(180.095025, 321.355292)"><g><path d="M 5.21875 -13 C 5.46875 -13 5.769531 -12.921875 6.125 -12.765625 C 6.476562 -12.617188 6.78125 -12.429688 7.03125 -12.203125 C 7.28125 -11.953125 7.40625 -11.6875 7.40625 -11.40625 C 7.40625 -11.25 7.320312 -11.128906 7.15625 -11.046875 C 7 -10.960938 6.796875 -10.921875 6.546875 -10.921875 C 6.328125 -10.921875 6.164062 -10.960938 6.0625 -11.046875 C 5.96875 -11.128906 5.875 -11.28125 5.78125 -11.5 C 5.65625 -11.769531 5.507812 -11.90625 5.34375 -11.90625 C 5.132812 -11.90625 4.929688 -11.800781 4.734375 -11.59375 C 4.546875 -11.382812 4.394531 -11.125 4.28125 -10.8125 C 4.175781 -10.5 4.125 -10.195312 4.125 -9.90625 C 4.125 -9.414062 4.210938 -9.054688 4.390625 -8.828125 C 4.566406 -8.609375 4.925781 -8.34375 5.46875 -8.03125 C 5.707031 -7.894531 5.832031 -7.820312 5.84375 -7.8125 C 5.863281 -7.800781 5.929688 -7.753906 6.046875 -7.671875 C 6.179688 -7.585938 6.335938 -7.488281 6.515625 -7.375 C 6.691406 -7.257812 6.78125 -7.203125 6.78125 -7.203125 C 7.625 -6.628906 8.046875 -5.503906 8.046875 -3.828125 C 8.046875 -2.390625 7.65625 -1.3125 6.875 -0.59375 C 6.09375 0.113281 5.101562 0.46875 3.90625 0.46875 C 2.78125 0.46875 1.921875 0.285156 1.328125 -0.078125 C 0.742188 -0.441406 0.453125 -1.070312 0.453125 -1.96875 L 0.453125 -2.25 C 0.453125 -2.882812 0.53125 -3.34375 0.6875 -3.625 C 0.84375 -3.90625 1.179688 -4.046875 1.703125 -4.046875 C 2.203125 -4.046875 2.507812 -3.875 2.625 -3.53125 C 2.476562 -3.007812 2.40625 -2.582031 2.40625 -2.25 C 2.40625 -1.71875 2.53125 -1.296875 2.78125 -0.984375 C 3.03125 -0.679688 3.394531 -0.53125 3.875 -0.53125 L 4.078125 -0.53125 C 4.492188 -0.625 4.847656 -0.867188 5.140625 -1.265625 C 5.441406 -1.671875 5.675781 -2.148438 5.84375 -2.703125 C 5.914062 -2.953125 5.96875 -3.179688 6 -3.390625 C 6.03125 -3.609375 6.046875 -3.800781 6.046875 -3.96875 C 6.046875 -4.882812 5.726562 -5.644531 5.09375 -6.25 C 4.925781 -6.382812 4.75 -6.519531 4.5625 -6.65625 C 4.382812 -6.800781 4.207031 -6.941406 4.03125 -7.078125 C 3.3125 -7.578125 2.804688 -8.019531 2.515625 -8.40625 C 2.234375 -8.800781 2.09375 -9.316406 2.09375 -9.953125 C 2.09375 -10.484375 2.242188 -10.984375 2.546875 -11.453125 C 2.847656 -11.929688 3.25 -12.3125 3.75 -12.59375 C 4.21875 -12.863281 4.707031 -13 5.21875 -13 Z M 5.21875 -13 "/></g></g></g><g fill="#000000" fill-opacity="1"><g transform="translate(188.968624, 321.355292)"><g/></g></g><g fill="#000000" fill-opacity="1"><g transform="translate(201.466647, 321.355292)"><g><path d="M 8.75 -10.328125 C 9.25 -10.210938 9.5 -10.0625 9.5 -9.875 C 9.5 -9.726562 9.425781 -9.597656 9.28125 -9.484375 C 9.144531 -9.378906 8.953125 -9.328125 8.703125 -9.328125 C 8.535156 -9.328125 8.441406 -9.332031 8.421875 -9.34375 C 7.703125 -9.425781 6.984375 -9.523438 6.265625 -9.640625 C 5.554688 -9.765625 4.84375 -9.894531 4.125 -10.03125 L 4.125 -7.46875 C 4.125 -6.15625 4.128906 -4.945312 4.140625 -3.84375 C 4.160156 -2.75 4.1875 -1.769531 4.21875 -0.90625 C 4.101562 -0.550781 3.796875 -0.375 3.296875 -0.375 C 3.078125 -0.375 2.867188 -0.414062 2.671875 -0.5 C 2.472656 -0.582031 2.332031 -0.691406 2.25 -0.828125 C 2.21875 -1.503906 2.191406 -2.269531 2.171875 -3.125 C 2.160156 -3.976562 2.15625 -4.910156 2.15625 -5.921875 L 2.171875 -7.46875 L 2.171875 -10.328125 C 1.835938 -10.390625 1.539062 -10.453125 1.28125 -10.515625 C 1.03125 -10.585938 0.8125 -10.664062 0.625 -10.75 C 0.289062 -10.894531 0.125 -11.035156 0.125 -11.171875 C 0.125 -11.273438 0.207031 -11.359375 0.375 -11.421875 C 0.539062 -11.492188 0.738281 -11.53125 0.96875 -11.53125 L 1.421875 -11.46875 L 2.203125 -11.34375 L 2.21875 -12.046875 C 2.21875 -13.117188 2.265625 -13.984375 2.359375 -14.640625 C 2.453125 -15.296875 2.640625 -15.765625 2.921875 -16.046875 C 4.003906 -17.078125 5.53125 -17.59375 7.5 -17.59375 C 7.832031 -17.59375 8.191406 -17.582031 8.578125 -17.5625 C 8.972656 -17.539062 9.394531 -17.492188 9.84375 -17.421875 C 10.332031 -17.359375 10.828125 -17.273438 11.328125 -17.171875 C 11.835938 -17.078125 12.265625 -16.96875 12.609375 -16.84375 C 12.953125 -16.71875 13.125 -16.578125 13.125 -16.421875 C 13.125 -16.273438 13.035156 -16.148438 12.859375 -16.046875 C 12.679688 -15.953125 12.46875 -15.90625 12.21875 -15.90625 C 12.1875 -15.90625 12.140625 -15.90625 12.078125 -15.90625 C 12.023438 -15.914062 11.957031 -15.929688 11.875 -15.953125 C 10.507812 -16.398438 9.039062 -16.625 7.46875 -16.625 C 6.789062 -16.625 6.222656 -16.546875 5.765625 -16.390625 C 5.316406 -16.242188 4.976562 -16 4.75 -15.65625 C 4.601562 -15.269531 4.488281 -14.882812 4.40625 -14.5 C 4.320312 -14.113281 4.257812 -13.671875 4.21875 -13.171875 C 4.1875 -12.671875 4.164062 -12.039062 4.15625 -11.28125 L 4.15625 -11.078125 C 6.269531 -10.691406 7.800781 -10.441406 8.75 -10.328125 Z M 8.75 -10.328125 "/></g></g></g><g fill="#000000" fill-opacity="1"><g transform="translate(213.664721, 321.355292)"><g><path d="M 6.328125 -8.65625 C 6.328125 -9.082031 6.226562 -9.429688 6.03125 -9.703125 C 5.84375 -9.984375 5.554688 -10.125 5.171875 -10.125 C 4.703125 -10.125 4.363281 -9.960938 4.15625 -9.640625 C 3.945312 -9.316406 3.785156 -8.800781 3.671875 -8.09375 C 3.671875 -7.476562 3.675781 -6.859375 3.6875 -6.234375 C 3.707031 -5.609375 3.738281 -4.960938 3.78125 -4.296875 C 3.8125 -3.660156 3.832031 -3.035156 3.84375 -2.421875 C 3.863281 -1.804688 3.875 -1.191406 3.875 -0.578125 C 3.757812 -0.222656 3.398438 -0.046875 2.796875 -0.046875 C 2.535156 -0.046875 2.320312 -0.09375 2.15625 -0.1875 C 1.988281 -0.289062 1.90625 -0.445312 1.90625 -0.65625 C 1.90625 -1.46875 1.894531 -2.304688 1.875 -3.171875 C 1.851562 -4.035156 1.828125 -4.9375 1.796875 -5.875 C 1.765625 -6.8125 1.738281 -7.710938 1.71875 -8.578125 C 1.707031 -9.441406 1.703125 -10.273438 1.703125 -11.078125 C 1.703125 -11.253906 1.785156 -11.394531 1.953125 -11.5 C 2.128906 -11.613281 2.34375 -11.671875 2.59375 -11.671875 C 2.84375 -11.671875 3.066406 -11.617188 3.265625 -11.515625 C 3.472656 -11.421875 3.609375 -11.300781 3.671875 -11.15625 L 3.671875 -10.78125 C 4.171875 -11.03125 4.722656 -11.15625 5.328125 -11.15625 C 6.253906 -11.15625 6.984375 -10.929688 7.515625 -10.484375 C 8.054688 -10.046875 8.328125 -9.453125 8.328125 -8.703125 C 8.328125 -8.015625 8.222656 -7.484375 8.015625 -7.109375 C 7.816406 -6.734375 7.460938 -6.546875 6.953125 -6.546875 C 6.679688 -6.546875 6.460938 -6.59375 6.296875 -6.6875 C 6.128906 -6.789062 6.046875 -6.945312 6.046875 -7.15625 C 6.234375 -7.738281 6.328125 -8.238281 6.328125 -8.65625 Z M 6.328125 -8.65625 "/></g></g></g><g fill="#000000" fill-opacity="1"><g transform="translate(222.53832, 321.355292)"><g><path d="M 7.90625 -10 C 7.90625 -9.582031 7.691406 -9.21875 7.265625 -8.90625 C 6.835938 -8.601562 6.300781 -8.375 5.65625 -8.21875 C 5.320312 -8.15625 5.019531 -8.109375 4.75 -8.078125 C 4.476562 -8.046875 4.242188 -8.03125 4.046875 -8.03125 C 3.535156 -8.03125 3.03125 -8.050781 2.53125 -8.09375 C 2.53125 -7.582031 2.59375 -6.988281 2.71875 -6.3125 C 2.851562 -5.632812 3.039062 -4.960938 3.28125 -4.296875 C 3.53125 -3.628906 3.8125 -3.03125 4.125 -2.5 C 4.601562 -1.664062 5.160156 -1.191406 5.796875 -1.078125 C 6.117188 -1.140625 6.382812 -1.40625 6.59375 -1.875 C 6.8125 -2.238281 7.019531 -2.5 7.21875 -2.65625 C 7.425781 -2.820312 7.695312 -2.90625 8.03125 -2.90625 C 8.59375 -2.90625 8.875 -2.738281 8.875 -2.40625 C 8.875 -2.320312 8.863281 -2.269531 8.84375 -2.25 C 8.394531 -1.5 7.945312 -0.941406 7.5 -0.578125 C 7.0625 -0.210938 6.53125 -0.03125 5.90625 -0.03125 C 5.382812 -0.03125 4.863281 -0.160156 4.34375 -0.421875 C 3.832031 -0.691406 3.394531 -1.035156 3.03125 -1.453125 C 2.5625 -2.015625 2.140625 -2.675781 1.765625 -3.4375 C 1.390625 -4.195312 1.085938 -4.992188 0.859375 -5.828125 C 0.640625 -6.660156 0.53125 -7.441406 0.53125 -8.171875 C 0.53125 -9.441406 0.820312 -10.410156 1.40625 -11.078125 C 1.988281 -11.753906 2.78125 -12.15625 3.78125 -12.28125 L 4.40625 -12.328125 C 5.019531 -12.328125 5.59375 -12.222656 6.125 -12.015625 C 6.65625 -11.804688 7.085938 -11.523438 7.421875 -11.171875 C 7.742188 -10.804688 7.90625 -10.414062 7.90625 -10 Z M 3.171875 -10.421875 C 2.972656 -10.109375 2.820312 -9.644531 2.71875 -9.03125 C 2.957031 -8.976562 3.332031 -8.953125 3.84375 -8.953125 C 4.425781 -8.953125 4.894531 -9.035156 5.25 -9.203125 C 5.613281 -9.367188 5.796875 -9.644531 5.796875 -10.03125 C 5.742188 -10.425781 5.585938 -10.734375 5.328125 -10.953125 C 5.078125 -11.171875 4.757812 -11.28125 4.375 -11.28125 C 3.894531 -11.28125 3.492188 -10.992188 3.171875 -10.421875 Z M 3.171875 -10.421875 "/></g></g></g><g fill="#000000" fill-opacity="1"><g transform="translate(232.61173, 321.355292)"><g><path d="M 5.21875 -13 C 5.46875 -13 5.769531 -12.921875 6.125 -12.765625 C 6.476562 -12.617188 6.78125 -12.429688 7.03125 -12.203125 C 7.28125 -11.953125 7.40625 -11.6875 7.40625 -11.40625 C 7.40625 -11.25 7.320312 -11.128906 7.15625 -11.046875 C 7 -10.960938 6.796875 -10.921875 6.546875 -10.921875 C 6.328125 -10.921875 6.164062 -10.960938 6.0625 -11.046875 C 5.96875 -11.128906 5.875 -11.28125 5.78125 -11.5 C 5.65625 -11.769531 5.507812 -11.90625 5.34375 -11.90625 C 5.132812 -11.90625 4.929688 -11.800781 4.734375 -11.59375 C 4.546875 -11.382812 4.394531 -11.125 4.28125 -10.8125 C 4.175781 -10.5 4.125 -10.195312 4.125 -9.90625 C 4.125 -9.414062 4.210938 -9.054688 4.390625 -8.828125 C 4.566406 -8.609375 4.925781 -8.34375 5.46875 -8.03125 C 5.707031 -7.894531 5.832031 -7.820312 5.84375 -7.8125 C 5.863281 -7.800781 5.929688 -7.753906 6.046875 -7.671875 C 6.179688 -7.585938 6.335938 -7.488281 6.515625 -7.375 C 6.691406 -7.257812 6.78125 -7.203125 6.78125 -7.203125 C 7.625 -6.628906 8.046875 -5.503906 8.046875 -3.828125 C 8.046875 -2.390625 7.65625 -1.3125 6.875 -0.59375 C 6.09375 0.113281 5.101562 0.46875 3.90625 0.46875 C 2.78125 0.46875 1.921875 0.285156 1.328125 -0.078125 C 0.742188 -0.441406 0.453125 -1.070312 0.453125 -1.96875 L 0.453125 -2.25 C 0.453125 -2.882812 0.53125 -3.34375 0.6875 -3.625 C 0.84375 -3.90625 1.179688 -4.046875 1.703125 -4.046875 C 2.203125 -4.046875 2.507812 -3.875 2.625 -3.53125 C 2.476562 -3.007812 2.40625 -2.582031 2.40625 -2.25 C 2.40625 -1.71875 2.53125 -1.296875 2.78125 -0.984375 C 3.03125 -0.679688 3.394531 -0.53125 3.875 -0.53125 L 4.078125 -0.53125 C 4.492188 -0.625 4.847656 -0.867188 5.140625 -1.265625 C 5.441406 -1.671875 5.675781 -2.148438 5.84375 -2.703125 C 5.914062 -2.953125 5.96875 -3.179688 6 -3.390625 C 6.03125 -3.609375 6.046875 -3.800781 6.046875 -3.96875 C 6.046875 -4.882812 5.726562 -5.644531 5.09375 -6.25 C 4.925781 -6.382812 4.75 -6.519531 4.5625 -6.65625 C 4.382812 -6.800781 4.207031 -6.941406 4.03125 -7.078125 C 3.3125 -7.578125 2.804688 -8.019531 2.515625 -8.40625 C 2.234375 -8.800781 2.09375 -9.316406 2.09375 -9.953125 C 2.09375 -10.484375 2.242188 -10.984375 2.546875 -11.453125 C 2.847656 -11.929688 3.25 -12.3125 3.75 -12.59375 C 4.21875 -12.863281 4.707031 -13 5.21875 -13 Z M 5.21875 -13 "/></g></g></g><g fill="#000000" fill-opacity="1"><g transform="translate(241.485329, 321.355292)"><g><path d="M 1.203125 -19.921875 C 1.203125 -20.109375 1.285156 -20.253906 1.453125 -20.359375 C 1.628906 -20.472656 1.84375 -20.53125 2.09375 -20.53125 C 2.34375 -20.53125 2.566406 -20.476562 2.765625 -20.375 C 2.972656 -20.269531 3.109375 -20.144531 3.171875 -20 L 3.84375 -8.421875 C 4.476562 -8.773438 5.171875 -8.953125 5.921875 -8.953125 C 7.160156 -8.953125 8.125 -8.769531 8.8125 -8.40625 C 9.5 -8.050781 9.96875 -7.507812 10.21875 -6.78125 C 10.46875 -6.0625 10.59375 -5.109375 10.59375 -3.921875 C 10.59375 -2.535156 10.445312 -1.203125 10.15625 0.078125 C 10.101562 0.222656 9.972656 0.34375 9.765625 0.4375 C 9.554688 0.539062 9.328125 0.59375 9.078125 0.59375 C 8.804688 0.59375 8.585938 0.539062 8.421875 0.4375 C 8.253906 0.34375 8.171875 0.195312 8.171875 0 C 8.472656 -1.332031 8.625 -2.664062 8.625 -4 C 8.625 -6.550781 7.738281 -7.859375 5.96875 -7.921875 C 5.15625 -7.953125 4.46875 -7.367188 3.90625 -6.171875 L 4.09375 -0.203125 C 3.976562 0.148438 3.671875 0.328125 3.171875 0.328125 C 2.953125 0.328125 2.742188 0.285156 2.546875 0.203125 C 2.347656 0.117188 2.207031 0.0078125 2.125 -0.125 C 2.0625 -2.101562 1.988281 -3.78125 1.90625 -5.15625 C 1.882812 -5.238281 1.875 -5.332031 1.875 -5.4375 C 1.875 -5.539062 1.875 -5.671875 1.875 -5.828125 C 1.707031 -8.710938 1.582031 -11.1875 1.5 -13.25 C 1.382812 -15.53125 1.285156 -17.753906 1.203125 -19.921875 Z M 1.203125 -19.921875 "/></g></g></g><g clip-path="url(#5c72819ef2)"><path fill="#000000" d="M 213.871094 221.152344 C 213.671875 221.183594 213.472656 221.214844 213.277344 221.269531 C 205.550781 223.410156 200.222656 228.347656 196.496094 235.105469 C 193.953125 239.710938 192.53125 244.726562 191.273438 249.796875 C 191.15625 250.273438 191.28125 250.894531 190.449219 251.308594 C 190.300781 242.617188 191.460938 234.171875 191.863281 225.695312 C 192.265625 217.183594 193.078125 208.6875 193.226562 200.117188 C 190.953125 203.464844 189.414062 207.113281 188.289062 210.945312 C 187.160156 214.800781 186.613281 218.765625 186.421875 222.859375 C 185.945312 222.636719 185.925781 222.421875 185.878906 222.210938 C 184.59375 216.144531 183.351562 210.070312 182 204.023438 C 180.902344 199.09375 179.8125 194.171875 179.0625 189.171875 C 178.6875 186.679688 179.726562 184.867188 180.964844 182.957031 C 182.699219 184.78125 184.03125 185.332031 186.253906 185.148438 C 187.59375 185.035156 188.804688 184.542969 189.964844 183.886719 C 191.75 182.878906 192.765625 181.46875 192.46875 179.316406 C 192.398438 178.828125 192.445312 178.324219 192.367188 177.839844 C 192.226562 176.980469 192.449219 176.25 192.851562 175.484375 C 193.234375 174.742188 193.871094 174.113281 194.105469 173.136719 C 191.367188 172.847656 188.832031 173.015625 186.375 173.960938 C 183.890625 174.917969 181.96875 176.527344 181.234375 179.140625 C 180.722656 180.976562 179.441406 182.324219 178.757812 184.253906 C 178.296875 182.875 178.011719 178.585938 178.222656 177.246094 C 182.867188 174.539062 184.460938 171.707031 183.730469 167.511719 C 183.226562 166.796875 182.371094 167.257812 181.714844 166.9375 C 181.617188 165.839844 181.484375 164.8125 180.988281 163.871094 C 180.144531 162.273438 179.300781 162.109375 177.859375 163.226562 C 177.199219 163.734375 176.894531 164.515625 176.246094 165.25 C 175.492188 163.867188 174.480469 163.027344 172.964844 162.773438 C 170.839844 164.421875 171.410156 166.644531 171.644531 168.789062 C 171.304688 169.214844 170.640625 168.839844 170.144531 169.609375 C 170.253906 173.558594 172.351562 176.257812 176.28125 177.617188 C 176.511719 182.472656 177.109375 187.222656 177.738281 192.371094 L 174.597656 189.589844 C 174.855469 187.8125 174.644531 186.210938 173.648438 184.679688 C 170.832031 180.359375 163.6875 181.28125 161.089844 184.390625 C 162.027344 185.308594 162.980469 186.222656 163.429688 187.398438 C 163.519531 187.953125 162.933594 188.246094 163.160156 188.734375 C 165.699219 192.722656 168.914062 193.488281 173.703125 191.175781 C 175.265625 192.128906 176.476562 193.578125 177.917969 194.746094 C 178.242188 195.007812 178.265625 195.402344 178.351562 195.78125 C 180.359375 204.554688 182.300781 213.339844 183.949219 222.1875 C 185.183594 228.832031 186.023438 235.535156 186.441406 242.277344 C 186.828125 248.472656 186.867188 254.679688 186.1875 260.867188 C 186.132812 261.371094 186.15625 261.929688 185.519531 262.503906 C 185.289062 259.507812 185.042969 256.730469 184.863281 253.949219 C 184.519531 248.636719 184.308594 243.3125 183.761719 238.011719 C 183.074219 231.347656 182.078125 224.730469 180.921875 218.128906 C 179.867188 212.105469 178.351562 206.226562 175.796875 200.644531 C 175.628906 200.273438 175.613281 199.765625 175.019531 199.597656 C 175.003906 201.492188 174.996094 203.347656 175.210938 205.199219 C 175.800781 210.289062 177.183594 215.214844 178.449219 220.152344 C 180.730469 229.035156 181.636719 238.074219 181.9375 247.203125 C 181.953125 247.597656 182.015625 248.019531 181.792969 248.417969 C 181.316406 248.125 181.347656 247.710938 181.25 247.351562 C 180.832031 245.757812 180.464844 244.152344 179.980469 242.582031 C 179.019531 239.472656 177.792969 236.480469 175.707031 233.921875 C 173.535156 231.257812 170.910156 229.261719 167.472656 228.535156 C 166.535156 228.339844 165.589844 228.214844 164.617188 228.535156 C 164.832031 229.082031 165.21875 229.21875 165.515625 229.4375 C 168.714844 231.800781 171.699219 234.414062 173.945312 237.707031 C 178.597656 244.519531 181.332031 251.777344 179.789062 260.316406 C 178.765625 265.980469 178.085938 271.710938 176.890625 277.351562 C 176.753906 277.996094 176.609375 278.648438 176.675781 279.308594 C 176.746094 280 177.160156 280.398438 177.859375 280.445312 C 178.496094 280.488281 178.90625 280.183594 179.054688 279.554688 C 179.117188 279.289062 179.167969 279.015625 179.210938 278.746094 L 181.304688 265.746094 C 181.351562 265.441406 181.277344 265.0625 181.789062 264.871094 C 182.621094 270.101562 182.277344 275.328125 182.019531 280.480469 C 181.984375 281.203125 182.488281 281.871094 183.203125 281.957031 C 183.8125 282.03125 184.167969 281.664062 184.4375 280.820312 C 184.6875 280.027344 184.839844 279.203125 185.078125 278.222656 C 185.515625 278.988281 185.382812 279.605469 185.371094 280.195312 C 185.320312 282.773438 185.234375 285.355469 185.160156 287.933594 C 185.113281 289.410156 185.378906 289.914062 186.242188 289.941406 C 187.0625 289.972656 187.421875 289.398438 187.460938 287.996094 C 187.667969 280.917969 187.863281 273.835938 188.527344 266.777344 C 188.652344 265.414062 188.679688 264.003906 189.160156 262.570312 C 189.546875 263.035156 189.464844 263.429688 189.480469 263.796875 C 189.613281 267.308594 189.996094 282.019531 190.09375 285.863281 C 190.121094 286.984375 190.613281 287.445312 191.550781 287.398438 C 192.484375 287.347656 192.96875 286.824219 192.996094 285.773438 C 193.007812 285.28125 192.957031 284.789062 192.914062 284.296875 C 192.710938 281.773438 192.71875 279.246094 192.882812 276.722656 C 192.917969 276.195312 192.847656 275.625 193.332031 275.066406 C 193.605469 276.5 193.851562 277.832031 194.121094 279.160156 C 194.25 279.800781 194.578125 280.347656 195.316406 280.273438 C 196.097656 280.191406 196.1875 279.546875 196.140625 278.90625 C 196.058594 277.808594 195.96875 276.714844 195.855469 275.625 C 195.636719 273.492188 195.363281 271.363281 195.46875 269.21875 C 195.558594 267.449219 195.761719 265.683594 195.914062 263.914062 L 196.273438 263.902344 L 198.453125 278.488281 C 198.570312 279.289062 199.390625 279.832031 200.152344 279.554688 C 200.707031 279.351562 200.789062 278.828125 200.707031 277.785156 C 200.667969 277.304688 200.59375 276.828125 200.496094 276.359375 C 199.492188 271.648438 198.859375 266.882812 198.097656 262.132812 C 197.355469 257.480469 197.667969 252.953125 199 248.457031 C 199.527344 246.671875 200.21875 244.933594 200.5625 242.992188 C 204.328125 240.527344 207.613281 237.46875 210.078125 233.628906 C 212.539062 229.789062 214.230469 225.609375 215.277344 221.191406 C 214.636719 220.90625 214.25 221.09375 213.871094 221.152344 Z M 193.199219 263.984375 C 192.730469 257.898438 194.121094 252.042969 195.132812 246.058594 L 198.40625 244.1875 C 196.339844 250.910156 194.503906 257.375 193.199219 263.984375 Z M 172.277344 224.460938 C 168.605469 222.6875 165.0625 220.652344 161.265625 219.113281 C 160.144531 218.65625 158.863281 218.855469 157.945312 219.644531 C 157.492188 220.03125 157.085938 220.476562 156.726562 220.984375 C 155.394531 222.867188 153.988281 224.691406 152.347656 226.320312 C 147.597656 231.042969 141.785156 232.796875 135.230469 232.421875 C 133.605469 232.328125 131.976562 232.15625 130.164062 231.679688 C 133.609375 227.621094 137.191406 223.992188 141.761719 221.46875 C 146.289062 218.972656 151.132812 217.546875 156.265625 217.351562 C 156.40625 216.703125 155.964844 216.675781 155.726562 216.550781 C 153.933594 215.601562 152.101562 214.722656 150.328125 213.738281 C 149.289062 213.160156 148.269531 213.074219 147.171875 213.449219 C 145.617188 213.984375 144.042969 214.46875 142.507812 215.054688 C 134.441406 218.144531 126.90625 217.183594 119.914062 212.105469 C 118.625 211.171875 117.382812 210.179688 116.125 209.203125 C 115.960938 209.074219 115.84375 208.878906 115.53125 208.503906 C 118.035156 207.523438 120.519531 207.042969 123.015625 206.617188 C 125.628906 206.175781 128.261719 206.117188 130.894531 206.332031 C 133.472656 206.542969 135.976562 207.132812 138.402344 208.066406 C 140.773438 208.980469 142.832031 210.625 145.496094 211.273438 C 145.5 210.449219 145.011719 210.152344 144.65625 209.789062 C 143.144531 208.273438 141.621094 206.769531 140.125 205.242188 C 137.773438 202.839844 135.601562 200.253906 133.921875 197.363281 C 131.519531 193.238281 127.855469 191.574219 123.375 191.054688 C 120.242188 190.695312 117.273438 189.757812 114.476562 188.273438 C 111.339844 186.609375 108.960938 184.136719 106.921875 181.300781 C 105.867188 179.839844 104.8125 178.371094 103.914062 176.519531 C 106.40625 176.097656 108.632812 176.328125 110.820312 176.804688 C 117.367188 178.234375 122.554688 181.808594 126.589844 187.144531 C 127.289062 188.070312 128.015625 188.980469 128.746094 189.882812 C 129.171875 190.410156 129.574219 190.976562 130.527344 191.113281 C 129.550781 187.851562 127.796875 185.011719 127.214844 181.816406 C 127.664062 181.40625 128.082031 181.488281 128.617188 181.671875 C 131.191406 188.320312 133.550781 195.175781 138.835938 200.777344 C 139.257812 199.484375 138.902344 198.542969 138.707031 197.625 C 138.257812 195.53125 137.820312 193.449219 137.738281 191.289062 C 137.429688 183.390625 140.074219 176.535156 144.992188 170.472656 C 145.5 169.847656 145.914062 169.117188 146.609375 168.738281 C 147.097656 168.828125 147.164062 169.183594 147.269531 169.480469 C 150.035156 177.128906 149.851562 184.660156 146.277344 192.019531 C 145.269531 194.09375 144 196.023438 142.484375 197.78125 C 141.40625 199.027344 140.375 200.316406 139.859375 202.117188 C 141.914062 204.625 144.222656 206.996094 146.953125 209.089844 C 146.34375 204.367188 146.585938 199.785156 148.445312 195.398438 C 150.273438 191.082031 152.734375 187.1875 156.25 183.574219 C 159.59375 194.054688 158.976562 203.4375 151.097656 211.378906 C 151.269531 212.207031 151.925781 212.363281 152.421875 212.652344 C 155.277344 214.304688 158.269531 215.671875 161.285156 216.992188 C 163.449219 217.9375 165.53125 219.039062 167.609375 220.160156 C 169.515625 221.191406 171.0625 222.621094 172.277344 224.460938 Z M 200.492188 138.117188 C 200.257812 138.71875 200.136719 139.367188 199.96875 139.972656 C 198.304688 140.246094 198.074219 140.5 198.167969 142.085938 C 198.207031 142.738281 198.292969 143.398438 198.449219 144.035156 C 198.691406 145.027344 199.007812 145.996094 199.386719 147.300781 C 198.554688 146.804688 198.011719 146.464844 197.457031 146.148438 C 196.234375 145.453125 194.929688 145.140625 193.511719 145.261719 C 192.046875 145.382812 191.023438 147.28125 192.015625 148.46875 C 192.210938 148.703125 192.558594 148.878906 192.464844 149.386719 C 191.925781 149.625 191.324219 149.851562 190.753906 150.148438 C 189.167969 150.976562 188.816406 152.394531 189.867188 153.84375 C 190.816406 155.148438 192.136719 155.875 193.726562 156.121094 C 194.121094 156.183594 194.558594 156.054688 194.953125 156.28125 C 194.683594 156.902344 194.160156 157.152344 193.792969 157.546875 C 193.1875 158.195312 192.65625 158.886719 192.363281 159.734375 C 191.75 161.496094 192.542969 162.65625 194.390625 162.734375 C 194.707031 162.75 195.046875 162.582031 195.328125 162.859375 C 195.953125 165.078125 197.433594 165.710938 199.359375 164.574219 C 199.929688 164.238281 200.414062 163.789062 200.851562 163.289062 C 201.652344 162.375 202.246094 161.324219 202.839844 160.273438 C 203.046875 159.910156 203.09375 159.417969 203.570312 159.261719 C 203.753906 159.445312 203.746094 159.671875 203.703125 159.878906 C 201.625 169.753906 199.636719 179.648438 198.5 189.691406 C 198.476562 189.902344 198.460938 190.117188 197.992188 190.347656 C 197.207031 187.699219 196.363281 185.066406 194.410156 182.96875 C 193.992188 183.449219 194.128906 183.84375 194.152344 184.199219 C 194.453125 188.160156 195.269531 192.015625 196.636719 195.746094 C 196.886719 196.417969 197.164062 197.050781 197.0625 197.800781 C 196.800781 199.703125 196.589844 201.613281 196.335938 203.519531 C 195.125 212.503906 194.179688 221.503906 194.445312 230.589844 C 194.460938 231.109375 194.347656 231.660156 194.597656 232.117188 C 195.070312 232.136719 195.117188 231.816406 195.25 231.601562 C 197.707031 227.582031 200.75 224.117188 204.539062 221.273438 C 206.6875 219.660156 208.519531 217.667969 210.171875 215.523438 C 213.082031 211.742188 215.832031 207.832031 219.132812 204.363281 C 220.15625 203.289062 221.152344 202.191406 222.132812 201.082031 C 222.351562 200.835938 222.773438 200.625 222.519531 200.070312 C 220.296875 200.527344 218.246094 201.421875 216.183594 202.273438 C 207.625 205.808594 201.878906 212.015625 198.78125 220.714844 C 198.15625 222.46875 197.625 224.261719 197.015625 226.023438 C 196.894531 226.378906 196.929688 226.949219 196.15625 226.925781 C 196.15625 225.945312 196.097656 224.972656 196.164062 224.007812 C 196.542969 218.367188 197.226562 212.753906 197.839844 207.132812 C 198.621094 199.929688 199.945312 192.804688 201.058594 185.648438 C 201.195312 184.761719 201.582031 184.152344 202.308594 183.648438 C 204.296875 182.265625 206.085938 180.640625 207.757812 178.894531 C 208.660156 177.953125 209.5625 176.988281 210.253906 175.464844 C 207.183594 176.128906 204.640625 177.394531 202.15625 179.019531 C 202.152344 176.15625 204.890625 162.679688 205.789062 161.121094 C 206.414062 162.765625 207.078125 164.316406 208.101562 165.675781 C 208.902344 166.742188 209.824219 167.675781 211.140625 168.089844 C 212.578125 168.542969 213.945312 167.78125 214.355469 166.351562 C 214.457031 165.984375 214.261719 165.566406 214.570312 165.246094 C 218.226562 166.203125 219.300781 164.617188 218.617188 162.253906 C 218.816406 161.800781 219.472656 161.773438 219.730469 160.960938 C 219.570312 157.910156 216.839844 156.898438 214.550781 155.363281 C 216.136719 155.21875 217.730469 155.292969 219.265625 154.820312 C 220.335938 154.488281 221.308594 154.003906 221.917969 153.003906 C 222.742188 151.660156 222.347656 150.425781 220.921875 149.757812 C 220.5 149.5625 219.910156 149.65625 219.683594 149.089844 C 221.949219 146.691406 221.261719 145.15625 218.1875 144.4375 C 217.25 142.203125 216.363281 141.871094 214.136719 142.859375 C 213.351562 143.210938 212.679688 143.757812 211.757812 144.363281 C 211.910156 143.414062 212.0625 142.726562 212.128906 142.03125 C 212.308594 140.054688 212.070312 139.714844 210.085938 139.074219 C 209.824219 137.914062 209.363281 136.792969 208.109375 136.292969 C 206.664062 135.71875 206.007812 137.074219 205.019531 137.6875 C 204.746094 137.453125 204.511719 137.226562 204.25 137.03125 C 202.640625 135.828125 201.226562 136.222656 200.492188 138.117188 Z M 206.300781 149.828125 C 208.09375 149.75 209.4375 151.023438 209.472656 152.835938 C 209.511719 154.542969 208.324219 155.765625 206.640625 155.761719 C 204.839844 155.757812 203.5 154.527344 203.5 152.882812 C 203.503906 151.234375 204.726562 149.894531 206.300781 149.828125 Z M 165.570312 126.09375 C 166.554688 126.886719 167.566406 127.636719 168.546875 128.429688 C 168.808594 128.640625 169.265625 128.796875 169.042969 129.339844 C 167.976562 129.335938 166.921875 128.371094 165.753906 129.265625 C 166.28125 130.027344 166.894531 130.574219 167.617188 130.960938 C 168.582031 131.476562 169.582031 131.933594 170.59375 132.355469 C 171.132812 132.578125 171.628906 132.828125 171.679688 133.453125 C 171.75 134.351562 172.074219 135.242188 171.902344 136.300781 C 169.886719 135.394531 167.929688 135.148438 165.890625 135.839844 C 163.976562 136.492188 162.214844 137.3125 161.046875 139.355469 C 164.042969 139.722656 166.332031 141.132812 168.648438 142.492188 C 171.207031 143.992188 173.730469 145.542969 176.203125 147.175781 C 178.214844 148.503906 180.382812 149.339844 182.84375 149.277344 C 183.261719 149.265625 183.730469 149.152344 184.128906 149.5625 L 187.28125 168.742188 C 188.007812 168.804688 188.464844 168.699219 188.824219 168.3125 C 188.957031 167.746094 188.804688 167.207031 188.722656 166.667969 C 188.054688 162.386719 187.332031 158.109375 186.71875 153.820312 C 186.464844 152.050781 185.949219 150.285156 186.207031 148.546875 C 192.589844 143.152344 196.847656 134.992188 196.945312 127.984375 C 192.03125 129.332031 189.910156 133.144531 188.566406 137.667969 C 188.203125 137.324219 188.238281 137.109375 188.257812 136.898438 C 188.417969 134.984375 188.617188 133.074219 188.730469 131.15625 C 188.859375 128.910156 188.921875 126.65625 188.539062 124.417969 C 188.4375 123.8125 188.34375 123.222656 187.71875 122.839844 C 186.382812 122.625 186.210938 124.175781 185.203125 124.679688 C 184.761719 123.335938 184.382812 122.085938 183.941406 120.855469 C 183.488281 119.589844 182.765625 118.488281 181.59375 117.773438 C 180.71875 117.242188 179.980469 117.480469 179.535156 118.34375 C 178.753906 119.855469 179.160156 121.996094 180.488281 123.085938 C 182.027344 124.355469 183.335938 125.832031 184.386719 127.519531 C 186.152344 130.359375 186.449219 133.441406 185.746094 136.671875 C 185.15625 131.6875 183.898438 127.109375 179.136719 124.484375 C 178.105469 124.984375 177.695312 125.777344 177.277344 126.539062 C 176.214844 128.492188 175.648438 130.601562 175.316406 132.789062 C 175.199219 133.542969 175.234375 134.339844 174.84375 135.316406 C 174.046875 133.34375 174.296875 131.585938 174.585938 129.878906 C 174.875 128.199219 175.402344 126.5625 175.855469 124.792969 C 174.484375 124.851562 174.054688 125.953125 173.101562 126.46875 C 172.824219 125.292969 172.546875 124.203125 172.617188 123.003906 C 173.574219 122.53125 174.511719 122.082031 175.433594 121.617188 C 176.257812 121.199219 176.601562 120.464844 176.570312 119.59375 C 176.554688 119.09375 176.316406 118.597656 175.769531 118.457031 C 174.96875 118.246094 174.421875 118.742188 173.898438 119.246094 C 173.738281 119.398438 173.59375 119.566406 173.421875 119.703125 C 173.0625 119.988281 172.824219 120.523438 172.214844 120.339844 C 171.554688 118.742188 171.636719 117.367188 173.21875 116.332031 C 173.515625 116.132812 173.734375 115.753906 173.894531 115.414062 C 174.308594 114.527344 174.097656 113.980469 173.144531 113.273438 C 172.402344 113.25 172.027344 114.21875 171.199219 113.976562 C 170.933594 113.445312 170.941406 112.933594 171.246094 112.441406 C 173.898438 110.808594 174.429688 109.492188 173.109375 107.898438 C 172 107.96875 171.679688 109.144531 170.777344 109.65625 C 170.40625 108.722656 170.417969 107.875 170.566406 107.050781 C 173.246094 105.433594 173.5625 104.796875 172.328125 103.574219 C 171.644531 103.40625 171.117188 104.257812 170.257812 103.902344 C 170.925781 103.070312 171.746094 102.355469 171.167969 101.390625 C 170.675781 100.847656 170.074219 101.554688 169.71875 101.011719 C 169.695312 99.6875 169.695312 99.6875 170.523438 98.445312 C 171.484375 97.015625 171.539062 96.015625 170.675781 94.851562 C 168.914062 95.066406 169.476562 96.933594 168.714844 97.832031 C 167.953125 97.546875 167.996094 96.832031 167.722656 96.328125 C 167.207031 95.378906 166.683594 95.019531 166.117188 95.304688 C 165.582031 95.570312 165.496094 96.296875 165.894531 97.222656 C 166.164062 97.847656 166.644531 98.265625 167.183594 98.675781 C 168.148438 99.398438 168.359375 100.378906 168.007812 101.550781 C 167.316406 101.335938 166.910156 100.816406 166.28125 100.746094 C 165.660156 100.679688 165.035156 100.609375 164.691406 101.265625 C 164.347656 101.921875 164.480469 102.5625 165.007812 103.070312 C 165.53125 103.574219 166.171875 103.886719 166.882812 104.046875 C 167.359375 104.15625 167.875 104.125 168.363281 104.5 C 168.757812 105.089844 169 105.757812 168.578125 106.519531 C 167.386719 106.539062 166.347656 105.109375 165.046875 106.441406 C 165.476562 108.507812 167.160156 108.917969 168.941406 109.199219 C 169.25 110.824219 169.492188 112.375 169.5625 114.132812 C 168.890625 113.636719 168.765625 113.066406 168.433594 112.644531 C 168.078125 112.1875 167.707031 111.761719 167.066406 112.054688 C 166.5 112.3125 166.296875 112.847656 166.359375 113.425781 C 166.488281 114.632812 167.019531 115.613281 168.128906 116.222656 C 168.554688 116.453125 169.101562 116.441406 169.527344 116.972656 C 170.402344 121.070312 170.757812 125.363281 171.519531 129.824219 C 170.40625 129.132812 170.414062 129.128906 170.105469 128.0625 C 169.539062 126.113281 168.960938 124.167969 168.378906 122.226562 C 168.09375 121.273438 167.671875 120.375 167.054688 119.59375 C 166.277344 118.609375 165.320312 117.914062 164 117.886719 C 162.976562 117.871094 162.492188 118.199219 162.148438 119.175781 C 161.699219 120.457031 161.957031 121.675781 162.601562 122.820312 C 163.339844 124.132812 164.40625 125.164062 165.570312 126.09375 Z M 267.074219 177.449219 C 264.007812 184.152344 259.332031 188.382812 251.925781 188.59375 C 248.839844 188.679688 246.453125 189.808594 244.25 191.78125 C 241.671875 194.097656 239.421875 196.699219 237.226562 199.34375 C 237.015625 199.601562 237.320312 199.957031 237.605469 199.785156 C 238.621094 199.183594 241.472656 198.074219 244.140625 196.421875 C 248.046875 194 252.296875 193.703125 256.605469 195.433594 C 258.117188 196.042969 259.5625 196.804688 260.957031 197.855469 C 257.261719 201.96875 252.851562 203.292969 247.640625 202.089844 C 246.132812 201.742188 244.722656 201.128906 243.335938 200.46875 C 242.378906 200.015625 241.472656 200.003906 240.488281 200.390625 C 236.671875 201.890625 233.605469 204.429688 230.800781 207.335938 C 230.089844 208.074219 229.402344 208.839844 228.4375 209.882812 C 230.875 209.261719 232.898438 208.660156 234.828125 207.773438 C 244.207031 203.453125 251.425781 209.910156 251.425781 209.910156 C 251.425781 209.910156 245.394531 214.015625 238.53125 211.625 C 238.425781 211.589844 238.320312 211.5625 238.21875 211.519531 C 233.320312 209.382812 229.027344 210.839844 224.992188 213.765625 C 223.710938 214.699219 222.59375 215.8125 221.527344 217.027344 C 222.058594 217.425781 222.457031 217.113281 222.84375 217.019531 C 225.933594 216.265625 229.007812 215.4375 232.246094 215.734375 C 235.332031 216.015625 238.125 217.023438 240.523438 219.019531 C 241.742188 220.03125 242.933594 221.070312 244.140625 222.09375 C 243.320312 223.386719 234.101562 227.320312 225.910156 221.222656 C 225.515625 220.925781 225.105469 220.65625 224.699219 220.371094 C 223.355469 219.425781 221.902344 218.90625 220.226562 219.050781 C 219.644531 219.097656 219.035156 219.25 218.453125 219.015625 C 218.015625 218.222656 218.601562 217.78125 219.003906 217.292969 C 221.734375 213.980469 224.8125 211.003906 227.835938 207.976562 C 230.75 205.0625 233.519531 202.078125 235.777344 198.582031 C 238.640625 194.144531 242.707031 190.832031 246.957031 187.777344 C 247.59375 187.316406 248.164062 186.871094 248.488281 186.125 C 251.179688 179.953125 256.191406 177.4375 262.625 177.1875 C 264.039062 177.136719 265.457031 177.109375 267.074219 177.449219 Z M 207.425781 119.667969 C 206.78125 116.167969 207.039062 112.667969 207.800781 109.203125 C 207.832031 109.058594 207.957031 108.929688 208.066406 108.738281 C 209.226562 108.6875 209.910156 109.574219 210.808594 110.140625 C 211.441406 109.476562 211.039062 108.546875 211.449219 107.746094 C 212.515625 107.777344 213.128906 108.574219 213.753906 109.273438 C 214.382812 109.976562 214.808594 110.832031 214.863281 111.792969 C 214.917969 112.757812 214.875 113.726562 214.976562 114.75 C 216.894531 111.230469 219.117188 108.058594 223.078125 106.546875 C 227.304688 110.566406 227.980469 115.089844 225.796875 120.25 C 226.804688 118.527344 227.625 116.78125 228.820312 115.273438 C 230.085938 113.679688 231.574219 112.445312 233.777344 112.238281 C 234.199219 113.0625 233.667969 113.949219 233.933594 114.875 C 234.875 114.84375 235.8125 114.371094 236.886719 114.679688 C 236.691406 119.601562 234.871094 123.804688 231.65625 127.359375 C 228.316406 131.054688 224.019531 132.554688 219.046875 132.128906 C 218.160156 134.148438 218.007812 136.246094 217.476562 138.222656 C 216.890625 138.476562 216.378906 138.476562 215.773438 138.226562 C 215.917969 136.035156 216.460938 133.910156 216.777344 131.664062 C 216.09375 131.328125 215.554688 131.070312 215.019531 130.792969 C 210.480469 128.460938 208.308594 124.480469 207.425781 119.667969 Z M 108.398438 125.773438 C 108.253906 125.09375 108.03125 124.40625 108.382812 123.707031 C 109.453125 123.65625 109.839844 124.410156 110.210938 125.140625 C 111.375 127.445312 112.699219 129.65625 114.085938 131.828125 C 114.550781 132.554688 115.015625 133.285156 115.824219 133.742188 C 113.882812 129.582031 111.984375 125.429688 111.132812 121.023438 C 111.714844 120.003906 112.609375 120.460938 113.410156 120.214844 C 113.644531 119.621094 113.882812 118.957031 114.167969 118.320312 C 114.777344 116.964844 115.203125 116.785156 116.617188 117.242188 C 117.027344 117.378906 117.433594 117.535156 117.773438 117.65625 C 118.394531 117.511719 118.347656 116.769531 119.066406 116.628906 C 123.328125 120.359375 126.398438 125.078125 129 130.171875 C 128.535156 127.601562 127.367188 125.332031 126.191406 123.070312 C 125.050781 120.878906 123.304688 118.988281 122.648438 116.417969 C 123.820312 116.09375 124.417969 116.710938 125.003906 117.230469 C 126.414062 118.488281 127.441406 120.054688 128.363281 121.675781 C 130.042969 124.621094 131.109375 127.773438 131.421875 131.160156 C 131.71875 134.375 131.109375 137.292969 128.375 139.664062 C 132.011719 147.105469 135.800781 154.449219 139.125 161.921875 C 138.972656 162.460938 138.675781 162.621094 138.058594 162.589844 C 137.695312 160.886719 136.121094 160.320312 134.792969 159.484375 C 129.769531 156.316406 125.089844 152.703125 120.71875 148.679688 C 120.523438 148.496094 120.277344 148.34375 120.3125 147.871094 C 124.949219 148.371094 128.894531 150.464844 132.722656 153.035156 C 130.902344 148.847656 128.808594 144.859375 126.636719 140.90625 C 126.269531 140.953125 126.046875 140.949219 125.847656 141.011719 C 121.898438 142.332031 118.550781 140.980469 115.703125 138.386719 C 111.972656 134.984375 109.46875 130.769531 108.398438 125.773438 Z M 233.726562 144.539062 C 232.816406 145.890625 232.390625 147.417969 232.308594 149.03125 C 232.261719 149.894531 232.300781 150.765625 232.300781 151.75 C 230.898438 151.378906 229.75 150.804688 228.453125 150.9375 C 226.601562 151.125 225.335938 152.253906 225.101562 153.992188 C 224.65625 157.292969 227.660156 157.960938 228.53125 158.554688 C 228.179688 158.839844 227.808594 159.140625 227.4375 159.445312 C 226.796875 159.976562 226.269531 160.597656 225.957031 161.382812 C 225.203125 163.300781 225.714844 165.832031 228.828125 165.691406 C 230.039062 165.636719 231.113281 165.152344 232.328125 164.808594 C 232.292969 166.238281 232.101562 167.554688 232.503906 168.839844 C 233.261719 171.234375 235.558594 172.015625 237.582031 170.527344 C 238.828125 169.609375 239.535156 168.328125 239.867188 166.832031 C 239.949219 166.476562 239.867188 166.035156 240.4375 165.867188 C 241.351562 166.832031 242.566406 167.296875 243.890625 167.511719 C 245.070312 167.699219 245.59375 167.402344 246.074219 166.292969 C 246.203125 165.996094 246.167969 165.632812 246.472656 165.417969 C 248.617188 164.804688 249.023438 163.914062 248.042969 161.957031 C 247.648438 161.164062 247.085938 160.492188 246.441406 159.886719 L 245.34375 158.859375 C 246.726562 158.480469 247.910156 158.066406 248.824219 157.128906 C 250.457031 155.453125 250.40625 154.109375 248.632812 152.558594 C 248.558594 152.492188 248.523438 152.378906 248.472656 152.285156 C 248.9375 150.691406 248.492188 149.851562 247 149.453125 C 246.453125 149.308594 245.917969 149.363281 245.375 149.453125 C 244.289062 149.632812 243.296875 150.082031 242.261719 150.597656 C 241.9375 150.046875 242.078125 149.660156 242.066406 149.285156 C 241.992188 147.300781 241.382812 145.5 240.027344 144.035156 C 238.097656 141.945312 235.3125 142.183594 233.726562 144.539062 Z M 235.417969 161.070312 C 234.914062 161.09375 234.390625 160.484375 234.488281 159.976562 C 234.589844 159.449219 234.925781 159.082031 235.488281 159.132812 C 236.035156 159.183594 236.320312 159.5625 236.328125 160.136719 C 236.242188 160.652344 235.996094 161.042969 235.417969 161.070312 Z M 238.414062 161.699219 C 237.910156 161.816406 237.3125 161.304688 237.300781 160.765625 C 237.292969 160.207031 237.558594 159.792969 238.121094 159.722656 C 238.769531 159.636719 239.121094 160.019531 239.238281 160.617188 C 239.230469 161.203125 238.949219 161.578125 238.414062 161.699219 Z M 241.296875 160.085938 C 240.96875 160.273438 240.667969 160.242188 240.367188 159.992188 C 239.640625 159.386719 240.496094 158.234375 241.296875 158.742188 C 241.304688 158.746094 241.316406 158.753906 241.324219 158.761719 C 241.808594 159.074219 241.796875 159.800781 241.296875 160.085938 Z M 241.957031 156.109375 C 242.378906 156.464844 242.394531 157.148438 241.988281 157.542969 C 241.601562 157.921875 241.183594 157.957031 240.667969 157.609375 C 240.203125 157.292969 240.167969 156.617188 240.605469 156.261719 C 241.132812 155.832031 241.574219 155.789062 241.957031 156.109375 Z M 238.289062 154.746094 C 238.34375 154.300781 238.578125 154.023438 238.894531 153.847656 C 239.257812 153.640625 239.71875 153.621094 240.050781 153.875 C 240.265625 154.035156 240.378906 154.277344 240.371094 154.621094 C 240.351562 155.230469 239.613281 155.914062 239.0625 155.804688 C 238.515625 155.695312 238.214844 155.308594 238.289062 154.746094 Z M 238.664062 157.726562 C 238.589844 158.378906 238.152344 158.621094 237.628906 158.683594 C 236.957031 158.65625 236.394531 158.101562 236.414062 157.542969 C 236.433594 156.964844 237.03125 156.460938 237.636719 156.511719 C 238.257812 156.5625 238.730469 157.113281 238.664062 157.726562 Z M 236.433594 153.710938 C 236.945312 153.742188 237.320312 154.160156 237.324219 154.707031 C 237.332031 155.292969 236.839844 155.820312 236.304688 155.75 C 235.742188 155.675781 235.4375 155.304688 235.402344 154.746094 C 235.367188 154.164062 235.871094 153.675781 236.433594 153.710938 Z M 235.355469 157.175781 C 235.363281 157.757812 235.007812 158.117188 234.441406 158.128906 C 233.839844 158.144531 233.324219 157.859375 233.289062 157.207031 C 233.257812 156.574219 233.6875 156.226562 234.320312 156.140625 C 234.957031 156.195312 235.347656 156.523438 235.355469 157.175781 Z M 270.492188 138.277344 C 270.074219 139.277344 269.347656 140.023438 268.464844 140.597656 C 264.679688 143.046875 260.527344 144.53125 256.089844 145.246094 C 255.996094 145.257812 255.890625 145.1875 255.695312 145.125 C 258.523438 143.324219 261.554688 141.90625 263.898438 139.503906 C 263.335938 138.773438 262.871094 139.207031 262.46875 139.371094 C 260.417969 140.199219 258.695312 141.582031 256.875 142.800781 C 255.4375 143.765625 254.964844 144.03125 253.691406 144.167969 C 256.328125 141.378906 259.15625 138.878906 261.15625 135.621094 C 260.207031 135.003906 259.738281 135.585938 259.3125 136.03125 C 257.90625 137.496094 256.546875 139.003906 255.15625 140.480469 C 254.710938 140.953125 254.3125 141.492188 253.449219 141.941406 C 254.726562 138.441406 257.703125 133.617188 256.949219 132.144531 C 256.175781 132.128906 255.988281 132.773438 255.730469 133.265625 C 254.710938 135.210938 253.871094 137.238281 253.023438 139.265625 C 252.710938 140.019531 252.367188 140.761719 251.957031 141.488281 C 252.199219 138.449219 252.382812 135.417969 252.886719 132.421875 C 252.988281 131.800781 253.226562 131.125 252.429688 130.675781 C 251.585938 131.027344 251.648438 131.851562 251.488281 132.484375 C 250.804688 135.15625 250.636719 137.898438 250.457031 140.636719 C 250.429688 141.050781 250.5625 141.492188 250.285156 141.886719 C 249.929688 141.628906 249.894531 141.238281 249.816406 140.867188 C 249.253906 138.300781 248.714844 135.730469 248.433594 133.109375 C 248.363281 132.453125 248.410156 131.683594 247.320312 131.285156 C 246.726562 134.636719 247.695312 137.652344 248.332031 140.746094 C 247.765625 140.613281 247.558594 140.140625 247.277344 139.785156 C 245.246094 137.214844 243.804688 134.332031 242.859375 131.203125 C 242.425781 129.773438 242.304688 128.285156 242.574219 126.804688 C 242.828125 125.398438 243.523438 124.28125 245.082031 124.183594 C 245.59375 124.152344 245.863281 123.882812 246.132812 123.597656 C 246.382812 123.332031 246.746094 123.191406 247.105469 123.25 C 248.390625 123.453125 249.160156 124.484375 250.039062 125.535156 C 250.347656 124.800781 250.589844 124.144531 250.890625 123.511719 C 251.566406 122.078125 252.597656 120.996094 254.273438 121.066406 C 255.933594 121.132812 256.914062 122.261719 257.539062 123.710938 C 257.863281 124.46875 257.917969 125.296875 258.066406 126.152344 C 259.054688 125.941406 259.746094 125.273438 260.617188 124.949219 C 263.855469 123.738281 266.210938 127.171875 265.734375 129.472656 C 265.515625 130.539062 265.078125 131.519531 264.519531 132.632812 C 266.183594 132.496094 267.636719 132.035156 268.949219 132.660156 C 269.398438 133.273438 268.878906 133.699219 268.90625 134.203125 C 269.019531 134.292969 269.140625 134.398438 269.273438 134.488281 C 270.777344 135.46875 271.160156 136.660156 270.492188 138.277344 Z M 154.414062 173.332031 C 154.207031 173.082031 153.9375 172.859375 154.015625 172.378906 C 158.542969 171.144531 162.207031 172.847656 165.53125 175.886719 C 164.984375 173.730469 163.949219 171.90625 162.484375 170.375 C 161.714844 169.566406 160.5625 169.425781 159.449219 169.296875 C 156.402344 168.949219 153.863281 167.945312 151.445312 164.765625 C 155.179688 163.820312 158.046875 165.507812 160.921875 167.464844 C 159.457031 164.734375 157.730469 162.238281 155.730469 159.917969 C 154.625 160.203125 153.671875 160.644531 152.628906 160.75 C 149.109375 161.109375 146.300781 159.796875 144.113281 157.082031 C 142.402344 154.964844 141.304688 152.535156 140.585938 149.808594 C 142.519531 149.359375 144.320312 149.984375 146.210938 150.066406 C 146.433594 148.445312 146.191406 146.789062 146.578125 145.101562 C 148.445312 145.179688 149.871094 146.183594 151.410156 147.191406 C 151.917969 145.230469 151.988281 143.292969 152.832031 141.621094 C 153.03125 141.621094 153.167969 141.574219 153.234375 141.625 C 156.375 144.054688 158.585938 147.121094 159.417969 151.042969 C 160.039062 153.953125 159.378906 156.601562 157.175781 158.945312 C 159.628906 162.21875 161.914062 165.585938 164.257812 169.351562 C 164.679688 168.207031 164.503906 167.496094 164.308594 166.777344 C 163.59375 164.183594 163.621094 161.675781 165.214844 159.363281 C 165.546875 158.882812 165.832031 158.332031 166.609375 158.136719 C 168.070312 162.566406 167.484375 166.777344 165.507812 170.988281 C 166.757812 173.699219 167.921875 176.523438 168.824219 179.472656 C 168.121094 179.871094 167.601562 179.835938 167.152344 179.261719 C 166.984375 179.046875 166.820312 178.820312 166.621094 178.632812 C 165.601562 177.664062 164.503906 177.03125 162.972656 177.089844 C 159.550781 177.21875 156.636719 176.015625 154.414062 173.332031 Z M 179.058594 92.167969 C 179 90.484375 178.988281 88.789062 179.304688 86.832031 C 182.445312 89.324219 182.855469 92.820312 183.746094 96.101562 C 184.070312 92.539062 184.496094 89.023438 185.164062 85.378906 C 186.453125 86.117188 187.023438 87.285156 187.929688 88.222656 C 188.820312 87.164062 189.445312 85.96875 190.820312 85.269531 C 191.59375 88.261719 191.75 91.097656 192.253906 93.96875 C 192.765625 92.703125 193.214844 91.410156 193.804688 90.183594 C 194.394531 88.953125 195.140625 87.804688 196.554688 87.070312 C 196.789062 87.773438 196.652344 88.417969 196.664062 89.035156 C 196.714844 91.78125 196.550781 94.515625 196.023438 97.21875 C 195.699219 98.902344 195.136719 100.496094 194.277344 101.984375 C 193.078125 104.070312 191.445312 105.601562 188.835938 106.15625 L 188.507812 118.207031 C 188.03125 118.667969 187.578125 118.628906 186.925781 118.339844 L 186.925781 106.402344 C 183.375 105.144531 181.394531 102.578125 180.214844 99.28125 C 179.390625 96.980469 179.140625 94.582031 179.058594 92.167969 Z M 136.792969 117.640625 C 136.96875 117.445312 137.21875 117.316406 137.394531 117.1875 C 137.710938 114.78125 138.335938 114.308594 140.363281 114.964844 L 141.125 114.050781 C 141.730469 113.878906 142.199219 113.984375 142.5625 114.378906 C 143.488281 115.390625 142.757812 116.308594 142.191406 117.402344 C 144.167969 119.070312 146.371094 120.355469 148.460938 121.792969 L 148.769531 121.523438 L 147.914062 116.609375 C 145.984375 114.917969 144.140625 113.035156 141.976562 111.582031 C 139.605469 112.796875 139.46875 112.796875 138.1875 111.535156 C 138 110.855469 138.484375 110.285156 138.546875 109.636719 C 138.570312 109.378906 141.75 107.257812 142.015625 107.257812 C 142.886719 107.253906 143.679688 108.28125 143.5 109.261719 C 143.421875 109.679688 143.191406 110.070312 143 110.550781 C 144.449219 112.121094 146.171875 113.351562 147.953125 114.980469 C 147.714844 112.914062 147.441406 111.203125 146.796875 109.507812 C 145.441406 109.109375 143.914062 108.859375 143.753906 107.035156 C 143.667969 106.066406 144.265625 105.492188 145.847656 104.871094 C 146.515625 104.949219 146.777344 105.605469 147.296875 105.882812 C 148.472656 104.71875 148.890625 104.601562 149.777344 105.195312 C 151.257812 106.183594 151.332031 107.378906 149.929688 108.488281 C 149.425781 108.890625 148.828125 109.175781 148.164062 109.578125 L 149.148438 115.765625 C 150.632812 113.660156 151.414062 111.597656 152.328125 109.511719 C 151.605469 108.3125 151.125 107.058594 152.304688 105.828125 C 153.324219 105.523438 154.25 105.988281 155.167969 106.230469 C 156.148438 106.488281 156.46875 107.53125 156.871094 108.320312 C 157.191406 108.945312 156.707031 109.5625 156.238281 109.855469 C 155.78125 109.984375 155.519531 109.914062 155.265625 109.796875 C 154.382812 109.386719 153.738281 109.765625 153.332031 110.507812 C 152.125 112.722656 150.964844 114.964844 149.808594 117.207031 C 149.691406 117.433594 149.648438 117.75 149.691406 118 C 149.921875 119.234375 150.191406 120.457031 150.515625 122.019531 C 152.183594 120.378906 153.273438 118.65625 154.585938 116.914062 C 153.125 116.0625 152.542969 114.894531 153.125 113.214844 C 153.972656 112.34375 154.816406 112.804688 155.578125 113.457031 C 157.214844 112.84375 158.320312 113.585938 159.441406 116.023438 C 158.765625 117.804688 157.15625 117.5 155.71875 117.53125 L 151.003906 123.394531 L 152.441406 131.292969 C 152.136719 131.78125 151.800781 131.722656 151.480469 131.71875 C 150.898438 131.230469 150.980469 130.503906 150.796875 129.898438 C 150.496094 128.898438 150.191406 127.882812 150.074219 126.855469 C 149.828125 124.664062 148.769531 123.152344 146.839844 122.066406 C 145.03125 121.046875 143.347656 119.796875 141.683594 118.695312 C 141.265625 118.753906 141.140625 119.003906 140.96875 119.21875 C 139.988281 120.453125 139.878906 120.488281 138.367188 119.824219 C 138.054688 119.6875 137.742188 119.660156 137.421875 119.59375 C 136.175781 119.332031 135.933594 118.582031 136.792969 117.640625 Z M 266.964844 164.195312 C 266.515625 163.820312 265.972656 163.777344 265.425781 163.703125 C 264.820312 163.625 264.160156 163.625 263.671875 163.148438 C 263.964844 162.636719 264.414062 162.507812 264.746094 162.234375 C 265.171875 161.890625 265.644531 161.59375 266.019531 161.203125 C 266.75 160.4375 266.859375 159.589844 266.390625 158.984375 C 265.9375 158.398438 265.085938 158.332031 264.132812 158.785156 C 263.523438 159.074219 263.074219 159.554688 262.617188 160.027344 C 262.207031 160.445312 261.867188 160.957031 261.160156 161.1875 C 260.964844 160.503906 261.082031 159.863281 261.070312 159.226562 C 261.050781 158.351562 261.035156 157.46875 260.621094 156.660156 C 260.324219 156.082031 259.886719 155.644531 259.226562 155.671875 C 258.550781 155.695312 258.191406 156.222656 257.957031 156.808594 C 257.613281 157.660156 257.703125 158.519531 257.878906 159.398438 C 257.992188 159.957031 258.320312 160.5 258.167969 161.109375 C 257.441406 161.167969 256.964844 160.75 256.429688 160.496094 C 255.832031 160.214844 255.21875 159.960938 254.558594 159.902344 C 253.671875 159.828125 252.917969 160.292969 252.730469 160.976562 C 252.523438 161.722656 252.855469 162.449219 253.671875 162.867188 C 254.105469 163.089844 254.589844 163.226562 255.066406 163.347656 C 255.75 163.519531 256.445312 163.640625 257.21875 163.800781 C 256.835938 164.5625 256.210938 164.867188 255.566406 165.15625 C 254.417969 165.675781 253.496094 166.378906 253.304688 167.746094 C 253.222656 168.320312 252.757812 168.675781 252.402344 169.089844 C 251.367188 170.292969 250.214844 171.40625 249.378906 172.710938 C 249.273438 172.875 249.253906 173.085938 249.320312 173.269531 C 249.324219 173.277344 249.328125 173.285156 249.332031 173.292969 C 249.5 173.71875 250.070312 173.804688 250.382812 173.464844 C 251.539062 172.207031 252.738281 170.910156 253.921875 169.59375 C 254.53125 168.917969 255.199219 168.402344 256.15625 168.378906 C 256.925781 168.359375 257.457031 167.875 258.003906 167.410156 C 258.355469 167.109375 258.542969 166.542969 259.160156 166.617188 C 259.492188 167.058594 259.34375 167.570312 259.378906 168.046875 C 259.433594 168.875 259.59375 169.675781 259.890625 170.449219 C 260.144531 171.097656 260.539062 171.613281 261.324219 171.589844 C 262.117188 171.566406 262.449219 170.980469 262.699219 170.355469 C 262.976562 169.667969 262.867188 168.949219 262.730469 168.246094 C 262.585938 167.519531 262.410156 166.796875 262.167969 165.71875 C 263.542969 166.667969 264.761719 167.042969 266.109375 166.984375 C 266.855469 166.949219 267.394531 166.699219 267.582031 165.949219 C 267.757812 165.242188 267.519531 164.660156 266.964844 164.195312 Z M 260.253906 165.445312 C 259.292969 165.402344 258.550781 164.578125 258.582031 163.582031 C 258.613281 162.632812 259.328125 161.964844 260.296875 161.992188 C 261.226562 162.019531 262.003906 162.882812 261.96875 163.855469 C 261.9375 164.796875 261.195312 165.484375 260.253906 165.445312 Z M 227.019531 177.1875 C 228.054688 177.035156 228.925781 176.289062 229 175.488281 C 229.078125 174.667969 228.355469 173.875 227.191406 173.695312 C 226.476562 173.585938 225.742188 173.625 225.011719 173.621094 C 224.828125 173.621094 224.683594 173.464844 224.691406 173.28125 C 224.714844 172.917969 225.015625 172.65625 225.230469 172.351562 C 225.59375 171.847656 225.972656 171.339844 226.148438 170.742188 C 226.28125 170.300781 226.199219 169.820312 225.953125 169.433594 C 225.515625 168.753906 224.921875 168.257812 224.015625 168.371094 C 222.945312 168.503906 222.648438 169.519531 222.304688 170.390625 C 222.222656 170.589844 222.203125 170.816406 222.144531 171.027344 C 222.070312 171.285156 222.027344 171.570312 221.832031 171.726562 C 221.691406 171.839844 221.492188 171.816406 221.359375 171.699219 C 221.097656 171.464844 221.027344 171.140625 220.886719 170.867188 C 220.6875 170.476562 220.550781 170.054688 220.347656 169.667969 C 219.734375 168.519531 218.886719 168.1875 217.945312 168.710938 C 216.804688 169.339844 216.605469 170.289062 217.339844 171.476562 C 217.703125 172.0625 218.316406 172.5 218.472656 173.277344 C 217.511719 173.539062 216.554688 173.292969 215.660156 173.625 C 214.933594 173.894531 214.367188 174.304688 214.328125 175.113281 C 214.285156 175.964844 214.746094 176.570312 215.507812 176.925781 C 216.238281 177.261719 216.988281 177.273438 217.757812 177.0625 C 217.992188 177 218.222656 176.808594 218.496094 176.832031 C 218.726562 176.851562 218.851562 177.121094 218.734375 177.316406 C 218.296875 178.046875 217.605469 178.605469 217.160156 179.328125 C 216.617188 180.210938 216.769531 181.171875 217.496094 181.675781 C 218.304688 182.238281 219.386719 182.109375 219.992188 181.308594 C 220.320312 180.875 220.519531 180.351562 220.800781 179.882812 C 221.03125 179.507812 221.054688 179.007812 221.402344 178.667969 C 221.519531 178.554688 221.714844 178.605469 221.773438 178.757812 C 222.054688 179.488281 222.320312 180.21875 222.625 180.929688 C 222.894531 181.546875 223.289062 182.078125 224.03125 182.183594 C 224.859375 182.296875 225.566406 182.0625 226.046875 181.355469 C 226.542969 180.613281 226.371094 179.878906 225.878906 179.21875 C 225.394531 178.566406 224.675781 178.0625 224.554688 177.046875 C 224.546875 176.988281 224.605469 176.933594 224.667969 176.945312 C 225.492188 177.097656 226.246094 177.300781 227.019531 177.1875 Z M 211.035156 200.253906 C 211.617188 199.136719 212.238281 198.035156 212.863281 196.9375 C 213.929688 195.066406 216.742188 194.363281 218.648438 195.496094 C 219.285156 195.878906 219.949219 196.050781 220.6875 195.972656 C 221.765625 195.859375 222.359375 195.414062 222.488281 194.613281 C 222.628906 193.738281 222.199219 193.0625 221.195312 192.609375 C 221 192.519531 220.765625 192.515625 220.652344 192.28125 C 220.832031 191.910156 221.238281 191.8125 221.519531 191.570312 C 222.136719 191.035156 222.269531 190.222656 221.699219 189.703125 C 221.078125 189.140625 220.605469 188.53125 220.257812 187.777344 C 220.09375 187.425781 219.683594 187.289062 219.160156 187.289062 C 217.355469 188.753906 216.265625 190.816406 215.234375 192.941406 C 215.597656 191.027344 216.605469 189.417969 217.453125 187.835938 C 217.296875 187.160156 217.078125 186.6875 216.296875 186.511719 C 215.054688 188.316406 214.628906 190.546875 213.480469 192.808594 C 213.1875 191.65625 212.867188 190.8125 213.222656 190.015625 C 213.613281 189.148438 213.761719 188.234375 213.976562 187.335938 C 214.289062 186.015625 214 185.582031 212.808594 184.785156 C 211.777344 184.09375 211.203125 184.730469 210.585938 185.441406 C 209.851562 185.179688 209.113281 184.738281 208.441406 185.472656 C 207.890625 186.070312 207.898438 186.773438 208.101562 187.480469 C 208.1875 187.78125 208.421875 188.042969 208.59375 188.320312 C 208.777344 188.625 209.144531 188.855469 208.964844 189.367188 C 208.578125 189.128906 208.242188 188.863281 207.863281 188.699219 C 207.078125 188.363281 206.269531 188.640625 205.859375 189.320312 C 205.433594 190.027344 205.773438 190.585938 206.21875 191.105469 C 206.585938 191.53125 207.113281 191.726562 207.605469 191.964844 C 208.691406 192.492188 209.792969 192.984375 210.863281 193.539062 C 211.429688 193.835938 212.074219 194.09375 212.28125 194.886719 C 211.464844 196.867188 210.1875 198.671875 209.414062 200.734375 C 210.207031 201.230469 210.664062 200.960938 211.035156 200.253906 Z M 245.007812 172.742188 C 248.625 178.222656 245.996094 186.679688 239.605469 190.125 C 235.808594 184.109375 238.5 175.445312 245.007812 172.742188 Z M 159.625 206.640625 C 167.15625 208.167969 172.84375 212.003906 175.703125 219.429688 C 176.832031 222.359375 177.730469 225.332031 178.003906 228.472656 C 178.027344 228.738281 178.097656 229.015625 177.917969 229.261719 C 177.640625 229.21875 177.597656 228.972656 177.519531 228.785156 C 175.015625 222.964844 170.992188 218.304688 166.367188 214.097656 C 164.421875 212.324219 162.480469 210.546875 160.558594 208.75 C 159.929688 208.164062 159.320312 207.539062 158.855469 206.636719 C 159.203125 206.636719 159.421875 206.601562 159.625 206.640625 Z M 191.171875 189.53125 L 190.21875 191.566406 C 190.308594 192.246094 190.738281 192.699219 191.019531 193.222656 C 191.785156 194.644531 191.546875 196.007812 190.339844 197.054688 C 187.894531 199.179688 184.171875 198.570312 182.554688 195.78125 C 180.304688 191.902344 182.492188 188.082031 187 188.074219 C 188.496094 188.070312 189.917969 188.414062 191.171875 189.53125 Z M 227.5 204.648438 C 227.523438 200.492188 227.269531 196.675781 228.375 192.941406 C 229.203125 190.152344 230.671875 187.765625 232.765625 185.503906 C 232.84375 185.617188 235.742188 190.863281 233.164062 196.691406 C 231.863281 199.632812 229.765625 201.988281 227.5 204.648438 Z M 109.921875 165.929688 C 111.269531 165.421875 115.921875 166.144531 119.378906 169.804688 C 121.703125 172.265625 123.078125 175.304688 124.476562 178.300781 C 123.238281 178.0625 122.449219 177.617188 118.523438 175.667969 C 112.792969 172.738281 109.808594 166.996094 109.921875 165.929688 Z M 114.570312 194.015625 C 120.765625 192.722656 126.75 194.691406 131.910156 200.570312 C 125.023438 201.371094 119.074219 199.839844 114.570312 194.015625 Z M 134.296875 168.007812 C 135.296875 169.175781 135.636719 170.632812 136.003906 172.023438 C 136.855469 175.246094 136.738281 178.421875 135.171875 181.457031 C 134.53125 182.707031 133.964844 183.992188 133.335938 185.324219 C 130.667969 181.152344 129.796875 172.890625 134.296875 168.007812 Z M 173.332031 196.238281 C 173.875 200.261719 170.300781 202.921875 166.835938 202.148438 L 163.566406 201.417969 C 163.8125 200.066406 164.175781 198.808594 164.6875 197.617188 C 165.441406 195.851562 166.753906 194.703125 168.691406 194.304688 C 170.367188 193.957031 172.042969 193.964844 174.050781 194.015625 C 173.1875 194.753906 173.226562 195.464844 173.332031 196.238281 Z M 109.992188 152.144531 C 112.425781 152.6875 114.425781 153.890625 116.054688 155.726562 C 117.046875 156.839844 117.75 158.144531 118.207031 159.5625 C 118.753906 161.261719 119.234375 162.984375 119.484375 164.824219 C 113.417969 162.441406 109.421875 156.265625 109.992188 152.144531 Z M 127.421875 176.71875 C 124.191406 171.5625 121.390625 166.308594 122.5625 159.800781 C 123.277344 159.917969 123.648438 160.40625 124.050781 160.824219 C 126.230469 163.089844 127.320312 165.832031 127.664062 168.933594 C 127.949219 171.539062 127.6875 174.121094 127.421875 176.71875 Z M 141.925781 132.382812 C 141.707031 131.589844 140.988281 131.332031 140.511719 130.878906 C 139.664062 130.070312 138.898438 129.234375 138.707031 128.015625 C 138.617188 127.433594 138.679688 126.902344 139.191406 126.546875 C 139.71875 126.1875 140.238281 126.390625 140.738281 126.664062 C 140.832031 126.714844 140.929688 126.777344 141.003906 126.855469 C 142.667969 128.632812 143.851562 130.710938 144.730469 132.96875 C 144.777344 133.085938 144.652344 133.269531 144.621094 133.375 C 144.105469 133.84375 143.746094 133.269531 143.375 133.535156 C 143.261719 134.019531 143.882812 134.207031 143.832031 134.78125 C 142.542969 135.175781 141.21875 135.242188 139.894531 134.78125 C 139.234375 134.550781 138.695312 134.109375 138.820312 133.328125 C 138.9375 132.605469 139.574219 132.4375 140.195312 132.390625 C 140.738281 132.351562 141.285156 132.382812 141.925781 132.382812 Z M 160.035156 128.742188 C 160.566406 128.5625 161.113281 128.488281 161.65625 128.59375 C 164.75 129.183594 166.570312 131.332031 168.144531 133.828125 C 166.289062 133.699219 164.476562 133.839844 162.722656 133.347656 C 161.367188 132.964844 160.183594 132.296875 159.273438 131.222656 C 158.339844 130.121094 158.648438 129.21875 160.035156 128.742188 Z M 197.757812 114.9375 C 198.429688 113.957031 199.476562 113.566406 200.101562 113.902344 C 200.808594 114.28125 200.953125 115.398438 200.441406 116.566406 C 200.152344 117.222656 199.769531 117.828125 199.238281 118.304688 C 198.191406 119.246094 197.109375 120.144531 196.039062 121.0625 C 195.902344 118.722656 196.53125 116.722656 197.757812 114.9375 Z M 205.238281 199.523438 C 205.609375 202.234375 203.601562 206.234375 200.921875 208.667969 C 201.070312 204.957031 202.308594 201.984375 205.238281 199.523438 Z M 192.832031 122.800781 C 193.78125 124.246094 192.578125 127.3125 189.960938 130 C 190.101562 127.074219 190.300781 124.480469 192.832031 122.800781 Z M 200.003906 120.214844 C 200.992188 120.214844 201.675781 120.636719 201.726562 121.363281 C 201.789062 122.304688 201.066406 122.574219 200.367188 122.71875 C 199.105469 122.980469 197.824219 123.238281 196.363281 122.863281 C 196.957031 121.785156 197.707031 121.238281 198.46875 120.707031 C 198.921875 120.390625 199.429688 120.210938 200.003906 120.214844 Z M 169.21875 152.109375 C 169.25 152.960938 168.570312 153.699219 167.726562 153.726562 C 166.875 153.753906 166.164062 153.078125 166.136719 152.21875 C 166.105469 151.335938 166.75 150.628906 167.609375 150.605469 C 168.453125 150.582031 169.1875 151.269531 169.21875 152.109375 Z M 226.859375 142.144531 C 226.078125 142.109375 225.382812 141.300781 225.402344 140.449219 C 225.417969 139.597656 226.015625 138.996094 226.84375 138.992188 C 227.71875 138.988281 228.378906 139.664062 228.386719 140.5625 C 228.390625 141.457031 227.691406 142.183594 226.859375 142.144531 Z M 175.6875 154.492188 C 176.511719 154.453125 177.265625 155.171875 177.257812 155.996094 C 177.253906 156.710938 176.652344 157.328125 175.921875 157.363281 C 175.148438 157.40625 174.4375 156.785156 174.371094 156.015625 C 174.300781 155.195312 174.875 154.527344 175.6875 154.492188 Z M 146.957031 137.34375 C 146.886719 136.523438 147.460938 135.855469 148.273438 135.820312 C 149.097656 135.78125 149.851562 136.5 149.84375 137.324219 C 149.839844 138.039062 149.238281 138.65625 148.507812 138.691406 C 147.734375 138.734375 147.023438 138.113281 146.957031 137.34375 Z M 146.957031 137.34375 " fill-opacity="1" fill-rule="nonzero"/></g></svg>