<svg xmlns="http://www.w3.org/2000/svg" xmlns:xlink="http://www.w3.org/1999/xlink" width="500" zoomAndPan="magnify" viewBox="0 0 375 374.999991" height="500" preserveAspectRatio="xMidYMid meet" version="1.0"><defs><g/><clipPath id="3cba330b04"><path d="M 144 102 L 270.738281 102 L 270.738281 241 L 144 241 Z M 144 102 " clip-rule="nonzero"/></clipPath></defs><rect x="-37.5" width="450" fill="#ffffff" y="-37.499999" height="449.999989" fill-opacity="1"/><rect x="-37.5" width="450" fill="#ffffff" y="-37.499999" height="449.999989" fill-opacity="1"/><g fill="#000000" fill-opacity="1"><g transform="translate(122.090394, 294.04709)"><g><path d="M 1.84375 -5.71875 C 1.476562 -5.738281 1.195312 -5.816406 1 -5.953125 C 0.78125 -6.046875 0.671875 -6.171875 0.671875 -6.328125 C 0.671875 -6.472656 0.78125 -6.601562 1 -6.71875 C 1.144531 -6.84375 1.425781 -6.925781 1.84375 -6.96875 L 2.46875 -6.96875 L 2.703125 -8 C 3.035156 -9.632812 3.390625 -10.972656 3.765625 -12.015625 C 4.148438 -13.066406 4.6875 -13.992188 5.375 -14.796875 C 6.101562 -15.648438 7.035156 -16.078125 8.171875 -16.078125 C 11.140625 -16.078125 12.625 -12.101562 12.625 -4.15625 L 12.625 -2.921875 C 12.625 -2.359375 12.609375 -1.722656 12.578125 -1.015625 C 12.554688 -0.304688 12.53125 0.476562 12.5 1.34375 C 12.382812 1.695312 12.023438 1.875 11.421875 1.875 C 11.160156 1.875 10.945312 1.820312 10.78125 1.71875 C 10.613281 1.625 10.53125 1.476562 10.53125 1.28125 C 10.5625 0.738281 10.582031 0.125 10.59375 -0.5625 C 10.613281 -1.25 10.625 -2.003906 10.625 -2.828125 C 10.625 -3.960938 10.597656 -5.085938 10.546875 -6.203125 C 10.285156 -6.179688 9.847656 -6.15625 9.234375 -6.125 C 8.628906 -6.09375 7.851562 -6.035156 6.90625 -5.953125 L 4.21875 -5.78125 C 4.070312 -4.757812 3.953125 -3.796875 3.859375 -2.890625 C 3.765625 -1.984375 3.703125 -1.132812 3.671875 -0.34375 C 3.554688 0 3.195312 0.171875 2.59375 0.171875 C 2.332031 0.171875 2.117188 0.117188 1.953125 0.015625 C 1.785156 -0.078125 1.703125 -0.222656 1.703125 -0.421875 C 1.753906 -1.359375 1.820312 -2.269531 1.90625 -3.15625 C 2 -4.050781 2.113281 -4.90625 2.25 -5.71875 Z M 10.203125 -9.75 C 10.085938 -10.476562 9.960938 -11.148438 9.828125 -11.765625 C 9.691406 -12.390625 9.554688 -12.941406 9.421875 -13.421875 C 9.109375 -14.472656 8.644531 -15 8.03125 -15 C 7.820312 -15 7.597656 -14.878906 7.359375 -14.640625 C 7.117188 -14.398438 6.90625 -14.117188 6.71875 -13.796875 C 5.738281 -12.234375 4.972656 -9.984375 4.421875 -7.046875 C 4.609375 -7.066406 4.957031 -7.085938 5.46875 -7.109375 C 5.988281 -7.140625 6.65625 -7.1875 7.46875 -7.25 L 8.078125 -7.296875 L 10.453125 -7.453125 Z M 10.203125 -9.75 "/></g></g></g><g fill="#000000" fill-opacity="1"><g transform="translate(136.188164, 294.04709)"><g><path d="M 6.625 -0.625 C 6.59375 -0.757812 6.5625 -1.015625 6.53125 -1.390625 C 6.507812 -1.773438 6.5 -2.285156 6.5 -2.921875 L 6.5 -4.046875 C 6.5 -5.078125 6.472656 -6.003906 6.421875 -6.828125 C 6.367188 -7.660156 6.285156 -8.367188 6.171875 -8.953125 C 5.953125 -10.171875 5.46875 -10.78125 4.71875 -10.78125 C 4.425781 -10.78125 4.148438 -10.644531 3.890625 -10.375 C 3.628906 -10.101562 3.425781 -9.742188 3.28125 -9.296875 L 3.28125 -8.28125 L 3.25 -4.46875 C 3.25 -3.875 3.257812 -3.273438 3.28125 -2.671875 C 3.3125 -2.078125 3.34375 -1.46875 3.375 -0.84375 C 3.257812 -0.5 2.953125 -0.328125 2.453125 -0.328125 C 2.234375 -0.328125 2.023438 -0.367188 1.828125 -0.453125 C 1.628906 -0.535156 1.488281 -0.644531 1.40625 -0.78125 C 1.363281 -1.425781 1.332031 -2.054688 1.3125 -2.671875 C 1.289062 -3.285156 1.28125 -3.878906 1.28125 -4.453125 L 1.296875 -8.125 C 1.296875 -8.789062 1.285156 -9.410156 1.265625 -9.984375 C 1.253906 -10.554688 1.234375 -11.101562 1.203125 -11.625 C 1.203125 -11.8125 1.285156 -11.957031 1.453125 -12.0625 C 1.628906 -12.164062 1.84375 -12.21875 2.09375 -12.21875 C 2.445312 -12.21875 2.691406 -12.164062 2.828125 -12.0625 C 2.972656 -11.957031 3.097656 -11.738281 3.203125 -11.40625 C 3.785156 -11.738281 4.34375 -11.90625 4.875 -11.90625 C 6.09375 -11.90625 6.96875 -11.460938 7.5 -10.578125 C 8.632812 -11.273438 9.660156 -11.625 10.578125 -11.625 C 11.910156 -11.625 12.863281 -11.140625 13.4375 -10.171875 C 14.007812 -9.203125 14.296875 -7.835938 14.296875 -6.078125 C 14.296875 -4.941406 14.195312 -3.789062 14 -2.625 C 13.8125 -1.457031 13.546875 -0.375 13.203125 0.625 C 13.085938 0.976562 12.726562 1.15625 12.125 1.15625 C 11.851562 1.15625 11.632812 1.101562 11.46875 1 C 11.300781 0.894531 11.21875 0.742188 11.21875 0.546875 C 11.457031 -0.0859375 11.660156 -0.796875 11.828125 -1.578125 C 11.992188 -2.359375 12.125 -3.160156 12.21875 -3.984375 C 12.320312 -4.804688 12.375 -5.585938 12.375 -6.328125 C 12.375 -7.128906 12.296875 -7.851562 12.140625 -8.5 C 11.992188 -9.144531 11.769531 -9.660156 11.46875 -10.046875 C 11.175781 -10.429688 10.800781 -10.625 10.34375 -10.625 C 10 -10.625 9.65625 -10.523438 9.3125 -10.328125 C 8.96875 -10.140625 8.554688 -9.804688 8.078125 -9.328125 C 8.273438 -8.585938 8.414062 -7.769531 8.5 -6.875 C 8.582031 -5.988281 8.625 -4.9375 8.625 -3.71875 L 8.59375 -0.703125 C 8.476562 -0.347656 8.171875 -0.171875 7.671875 -0.171875 C 7.453125 -0.171875 7.242188 -0.210938 7.046875 -0.296875 C 6.847656 -0.378906 6.707031 -0.488281 6.625 -0.625 Z M 6.625 -0.625 "/></g></g></g><g fill="#000000" fill-opacity="1"><g transform="translate(152.035656, 294.04709)"><g><path d="M 2.5 -10 C 2.28125 -9.894531 1.972656 -9.84375 1.578125 -9.84375 C 0.992188 -9.84375 0.703125 -9.96875 0.703125 -10.21875 C 0.703125 -10.289062 0.742188 -10.394531 0.828125 -10.53125 C 0.828125 -10.53125 0.96875 -10.742188 1.25 -11.171875 C 1.5 -11.554688 1.898438 -11.875 2.453125 -12.125 C 3.003906 -12.375 3.632812 -12.5 4.34375 -12.5 C 5.78125 -12.5 6.796875 -11.921875 7.390625 -10.765625 C 7.984375 -9.609375 8.28125 -7.976562 8.28125 -5.875 C 8.28125 -4.90625 8.257812 -4.082031 8.21875 -3.40625 C 8.1875 -2.738281 8.128906 -2.125 8.046875 -1.5625 C 7.960938 -1 7.835938 -0.394531 7.671875 0.25 C 7.578125 0.601562 7.21875 0.78125 6.59375 0.78125 C 6.332031 0.78125 6.117188 0.726562 5.953125 0.625 C 5.785156 0.519531 5.703125 0.367188 5.703125 0.171875 C 5.734375 -0.0234375 5.773438 -0.148438 5.828125 -0.203125 C 5.878906 -0.285156 5.925781 -0.4375 5.96875 -0.65625 C 5.300781 -0.40625 4.6875 -0.28125 4.125 -0.28125 C 3.226562 -0.28125 2.492188 -0.570312 1.921875 -1.15625 C 1.359375 -1.75 1.078125 -2.597656 1.078125 -3.703125 C 1.078125 -4.816406 1.414062 -5.664062 2.09375 -6.25 C 2.78125 -6.832031 3.789062 -7.125 5.125 -7.125 C 5.320312 -7.125 5.515625 -7.109375 5.703125 -7.078125 C 5.898438 -7.054688 6.09375 -7.03125 6.28125 -7 C 6.175781 -8.476562 5.988281 -9.59375 5.71875 -10.34375 C 5.457031 -11.132812 5.007812 -11.585938 4.375 -11.703125 C 3.625 -11.703125 3.125 -11.457031 2.875 -10.96875 C 2.757812 -10.757812 2.632812 -10.4375 2.5 -10 Z M 6 -5.421875 C 5.851562 -5.703125 5.703125 -5.894531 5.546875 -6 C 5.398438 -6.113281 5.21875 -6.171875 5 -6.171875 C 4.382812 -6.171875 3.914062 -5.925781 3.59375 -5.4375 C 3.28125 -4.945312 3.125 -4.332031 3.125 -3.59375 C 3.125 -2.976562 3.210938 -2.445312 3.390625 -2 C 3.578125 -1.550781 3.890625 -1.3125 4.328125 -1.28125 C 4.859375 -1.28125 5.296875 -1.570312 5.640625 -2.15625 C 5.992188 -2.738281 6.171875 -3.40625 6.171875 -4.15625 C 6.171875 -4.664062 6.113281 -5.085938 6 -5.421875 Z M 6 -5.421875 "/></g></g></g><g fill="#000000" fill-opacity="1"><g transform="translate(161.48416, 294.04709)"><g><path d="M 3.421875 -10.671875 C 2.828125 -10.753906 2.53125 -10.921875 2.53125 -11.171875 C 2.53125 -11.273438 2.613281 -11.375 2.78125 -11.46875 C 2.925781 -11.570312 3.140625 -11.640625 3.421875 -11.671875 L 7.375 -11.59375 C 7.65625 -11.59375 7.898438 -11.550781 8.109375 -11.46875 C 8.316406 -11.382812 8.421875 -11.257812 8.421875 -11.09375 C 8.421875 -11 8.414062 -10.941406 8.40625 -10.921875 L 3.875 -1.421875 C 4.0625 -1.410156 4.285156 -1.398438 4.546875 -1.390625 C 4.816406 -1.378906 5.125 -1.359375 5.46875 -1.328125 C 5.539062 -1.328125 5.671875 -1.320312 5.859375 -1.3125 C 6.054688 -1.300781 6.320312 -1.289062 6.65625 -1.28125 C 7.332031 -1.226562 7.957031 -1.203125 8.53125 -1.203125 C 8.875 -1.203125 9.128906 -1.148438 9.296875 -1.046875 C 9.484375 -0.953125 9.578125 -0.835938 9.578125 -0.703125 C 9.578125 -0.566406 9.484375 -0.445312 9.296875 -0.34375 C 9.128906 -0.25 8.875 -0.203125 8.53125 -0.203125 C 8.007812 -0.203125 7.40625 -0.226562 6.71875 -0.28125 C 6.382812 -0.289062 6.113281 -0.300781 5.90625 -0.3125 C 5.695312 -0.320312 5.5625 -0.328125 5.5 -0.328125 C 4.1875 -0.421875 3.160156 -0.46875 2.421875 -0.46875 C 2.367188 -0.507812 2.257812 -0.535156 2.09375 -0.546875 C 1.75 -0.597656 1.578125 -0.765625 1.578125 -1.046875 C 1.972656 -1.679688 2.332031 -2.304688 2.65625 -2.921875 C 2.988281 -3.535156 3.328125 -4.234375 3.671875 -5.015625 C 4.023438 -5.804688 4.4375 -6.75 4.90625 -7.84375 C 5.28125 -8.75 5.675781 -9.675781 6.09375 -10.625 Z M 3.421875 -10.671875 "/></g></g></g><g fill="#000000" fill-opacity="1"><g transform="translate(172.132475, 294.04709)"><g><path d="M 2.03125 -14.796875 C 2.03125 -15.078125 2.171875 -15.347656 2.453125 -15.609375 C 2.734375 -15.867188 3.054688 -16 3.421875 -16 C 3.703125 -16 3.914062 -15.863281 4.0625 -15.59375 C 4.207031 -15.332031 4.28125 -14.984375 4.28125 -14.546875 C 4.28125 -14.203125 4.164062 -13.925781 3.9375 -13.71875 C 3.707031 -13.519531 3.421875 -13.421875 3.078125 -13.421875 C 2.828125 -13.421875 2.585938 -13.570312 2.359375 -13.875 C 2.140625 -14.1875 2.03125 -14.492188 2.03125 -14.796875 Z M 1.96875 -11.21875 C 2.050781 -11.351562 2.191406 -11.460938 2.390625 -11.546875 C 2.597656 -11.628906 2.8125 -11.671875 3.03125 -11.671875 C 3.53125 -11.671875 3.835938 -11.5 3.953125 -11.15625 C 3.878906 -10.28125 3.8125 -9.398438 3.75 -8.515625 C 3.6875 -7.640625 3.628906 -6.757812 3.578125 -5.875 L 3.171875 -0.578125 C 3.054688 -0.222656 2.695312 -0.046875 2.09375 -0.046875 C 1.832031 -0.046875 1.617188 -0.09375 1.453125 -0.1875 C 1.285156 -0.289062 1.203125 -0.445312 1.203125 -0.65625 C 1.265625 -1.488281 1.320312 -2.28125 1.375 -3.03125 C 1.4375 -3.789062 1.488281 -4.503906 1.53125 -5.171875 L 1.703125 -7.671875 C 1.710938 -7.835938 1.722656 -7.988281 1.734375 -8.125 C 1.742188 -8.257812 1.75 -8.382812 1.75 -8.5 C 1.769531 -8.6875 1.785156 -8.882812 1.796875 -9.09375 C 1.816406 -9.300781 1.832031 -9.507812 1.84375 -9.71875 C 1.863281 -9.957031 1.882812 -10.203125 1.90625 -10.453125 C 1.9375 -10.703125 1.957031 -10.957031 1.96875 -11.21875 Z M 1.96875 -11.21875 "/></g></g></g><g fill="#000000" fill-opacity="1"><g transform="translate(177.481626, 294.04709)"><g><path d="M 6.625 -0.625 C 6.59375 -0.757812 6.5625 -1.015625 6.53125 -1.390625 C 6.507812 -1.773438 6.5 -2.285156 6.5 -2.921875 L 6.5 -4.046875 C 6.5 -5.078125 6.472656 -6.003906 6.421875 -6.828125 C 6.367188 -7.660156 6.285156 -8.367188 6.171875 -8.953125 C 5.953125 -10.171875 5.46875 -10.78125 4.71875 -10.78125 C 4.257812 -10.78125 3.78125 -10.285156 3.28125 -9.296875 L 3.28125 -8.28125 L 3.25 -4.46875 C 3.25 -3.875 3.257812 -3.273438 3.28125 -2.671875 C 3.3125 -2.078125 3.34375 -1.46875 3.375 -0.84375 C 3.257812 -0.5 2.953125 -0.328125 2.453125 -0.328125 C 2.234375 -0.328125 2.023438 -0.367188 1.828125 -0.453125 C 1.628906 -0.535156 1.488281 -0.644531 1.40625 -0.78125 C 1.363281 -1.425781 1.332031 -2.054688 1.3125 -2.671875 C 1.289062 -3.285156 1.28125 -3.878906 1.28125 -4.453125 L 1.296875 -8.125 C 1.296875 -8.789062 1.285156 -9.410156 1.265625 -9.984375 C 1.253906 -10.554688 1.234375 -11.101562 1.203125 -11.625 C 1.203125 -11.8125 1.285156 -11.957031 1.453125 -12.0625 C 1.628906 -12.164062 1.84375 -12.21875 2.09375 -12.21875 C 2.445312 -12.21875 2.691406 -12.164062 2.828125 -12.0625 C 2.972656 -11.957031 3.097656 -11.738281 3.203125 -11.40625 C 3.671875 -11.71875 4.15625 -11.875 4.65625 -11.875 C 5.65625 -11.875 6.4375 -11.566406 7 -10.953125 C 7.5625 -10.335938 7.957031 -9.453125 8.1875 -8.296875 C 8.425781 -7.148438 8.546875 -5.773438 8.546875 -4.171875 L 8.546875 -2.28125 C 8.546875 -2.15625 8.550781 -1.960938 8.5625 -1.703125 C 8.570312 -1.453125 8.582031 -1.117188 8.59375 -0.703125 C 8.476562 -0.347656 8.171875 -0.171875 7.671875 -0.171875 C 7.453125 -0.171875 7.242188 -0.210938 7.046875 -0.296875 C 6.847656 -0.378906 6.707031 -0.488281 6.625 -0.625 Z M 6.625 -0.625 "/></g></g></g><g fill="#000000" fill-opacity="1"><g transform="translate(187.555036, 294.04709)"><g><path d="M 10.328125 -11.703125 C 9.671875 -11.703125 9.210938 -11.117188 8.953125 -9.953125 C 9.671875 -9.429688 10.03125 -8.671875 10.03125 -7.671875 C 10.03125 -6.835938 9.875 -6.179688 9.5625 -5.703125 C 9.25 -5.234375 8.71875 -4.832031 7.96875 -4.5 C 7.15625 -4.164062 6.359375 -4 5.578125 -4 L 4.875 -4.046875 C 4.875 -3.796875 4.863281 -3.640625 4.84375 -3.578125 C 4.832031 -3.503906 4.828125 -3.34375 4.828125 -3.09375 C 5.992188 -3.03125 7.023438 -2.835938 7.921875 -2.515625 C 8.828125 -2.203125 9.535156 -1.757812 10.046875 -1.1875 C 10.566406 -0.625 10.828125 0.0703125 10.828125 0.90625 C 10.828125 1.632812 10.582031 2.34375 10.09375 3.03125 C 9.613281 3.726562 8.984375 4.3125 8.203125 4.78125 C 7.429688 5.238281 6.644531 5.503906 5.84375 5.578125 C 5.445312 5.628906 5.039062 5.65625 4.625 5.65625 C 3.738281 5.65625 2.90625 5.507812 2.125 5.21875 C 1.34375 4.925781 0.707031 4.488281 0.21875 3.90625 C -0.289062 3.332031 -0.546875 2.582031 -0.546875 1.65625 C -0.546875 0.664062 -0.273438 -0.179688 0.265625 -0.890625 C 0.816406 -1.609375 1.632812 -2.238281 2.71875 -2.78125 C 2.769531 -2.78125 2.820312 -3.003906 2.875 -3.453125 C 2.894531 -3.679688 2.90625 -3.898438 2.90625 -4.109375 C 2.914062 -4.316406 2.921875 -4.515625 2.921875 -4.703125 C 2.359375 -5.066406 1.890625 -5.503906 1.515625 -6.015625 C 1.148438 -6.535156 0.96875 -7.140625 0.96875 -7.828125 C 0.96875 -8.085938 0.992188 -8.253906 1.046875 -8.328125 C 1.660156 -9.992188 3.132812 -10.828125 5.46875 -10.828125 C 5.800781 -10.828125 6.117188 -10.8125 6.421875 -10.78125 C 6.722656 -10.757812 6.988281 -10.71875 7.21875 -10.65625 C 7.46875 -11.269531 7.90625 -11.765625 8.53125 -12.140625 C 9.15625 -12.523438 9.820312 -12.71875 10.53125 -12.71875 C 11.207031 -12.71875 11.757812 -12.539062 12.1875 -12.1875 C 12.613281 -11.832031 12.828125 -11.3125 12.828125 -10.625 C 12.828125 -10.007812 12.457031 -9.703125 11.71875 -9.703125 C 11.457031 -9.703125 11.242188 -9.75 11.078125 -9.84375 C 10.910156 -9.945312 10.828125 -10.097656 10.828125 -10.296875 L 10.84375 -10.71875 C 10.84375 -10.96875 10.796875 -11.191406 10.703125 -11.390625 C 10.617188 -11.597656 10.492188 -11.703125 10.328125 -11.703125 Z M 2.96875 -7.71875 C 2.96875 -7.238281 3.097656 -6.796875 3.359375 -6.390625 C 3.617188 -5.984375 3.957031 -5.65625 4.375 -5.40625 C 4.8125 -5.15625 5.238281 -5.03125 5.65625 -5.03125 C 6.25 -5.03125 6.832031 -5.238281 7.40625 -5.65625 C 7.632812 -6.050781 7.796875 -6.390625 7.890625 -6.671875 C 7.984375 -6.953125 8.03125 -7.28125 8.03125 -7.65625 C 8.03125 -9.113281 7.144531 -9.84375 5.375 -9.84375 C 4.925781 -9.84375 4.519531 -9.742188 4.15625 -9.546875 C 3.800781 -9.347656 3.523438 -9.09375 3.328125 -8.78125 C 3.128906 -8.476562 3.007812 -8.191406 2.96875 -7.921875 Z M 8.90625 0.875 C 8.769531 -0.144531 8.367188 -0.910156 7.703125 -1.421875 C 7.046875 -1.941406 6.226562 -2.203125 5.25 -2.203125 C 4.769531 -2.203125 4.421875 -2.164062 4.203125 -2.09375 C 3.316406 -1.914062 2.628906 -1.488281 2.140625 -0.8125 C 1.660156 -0.132812 1.421875 0.6875 1.421875 1.65625 C 1.421875 2.15625 1.535156 2.632812 1.765625 3.09375 C 2.003906 3.550781 2.359375 3.921875 2.828125 4.203125 C 3.296875 4.515625 3.882812 4.671875 4.59375 4.671875 C 5.257812 4.671875 5.925781 4.492188 6.59375 4.140625 C 7.257812 3.796875 7.8125 3.332031 8.25 2.75 C 8.6875 2.164062 8.90625 1.539062 8.90625 0.875 Z M 8.90625 0.875 "/></g></g></g><g fill="#000000" fill-opacity="1"><g transform="translate(199.40316, 294.04709)"><g/></g></g><g fill="#000000" fill-opacity="1"><g transform="translate(211.901184, 294.04709)"><g><path d="M 6.40625 -16.296875 C 7.050781 -16.179688 7.550781 -16.007812 7.90625 -15.78125 C 8.601562 -15.3125 9.117188 -14.554688 9.453125 -13.515625 C 9.785156 -12.484375 9.953125 -11.253906 9.953125 -9.828125 C 9.953125 -6.753906 9.273438 -4.078125 7.921875 -1.796875 C 7.171875 -0.546875 6.101562 0.078125 4.71875 0.078125 C 3.550781 0.078125 2.640625 -0.300781 1.984375 -1.0625 C 1.328125 -1.820312 0.90625 -2.789062 0.71875 -3.96875 C 0.632812 -4.488281 0.570312 -5.050781 0.53125 -5.65625 C 0.488281 -6.269531 0.46875 -6.9375 0.46875 -7.65625 C 0.46875 -9.6875 0.734375 -11.40625 1.265625 -12.8125 C 1.804688 -14.21875 2.703125 -15.253906 3.953125 -15.921875 C 4.484375 -16.191406 5.164062 -16.328125 6 -16.328125 Z M 7.875 -11.40625 C 7.488281 -13.988281 6.796875 -15.28125 5.796875 -15.28125 C 5.742188 -15.28125 5.570312 -15.238281 5.28125 -15.15625 C 4.207031 -14.6875 3.46875 -13.726562 3.0625 -12.28125 C 2.664062 -10.84375 2.46875 -9.015625 2.46875 -6.796875 C 2.46875 -5.960938 2.519531 -5.195312 2.625 -4.5 C 2.726562 -3.800781 2.921875 -3.078125 3.203125 -2.328125 C 3.503906 -1.492188 3.976562 -1.035156 4.625 -0.953125 L 4.84375 -1 C 5.507812 -1.4375 6.070312 -2.097656 6.53125 -2.984375 C 6.988281 -3.878906 7.34375 -4.910156 7.59375 -6.078125 C 7.84375 -7.253906 7.96875 -8.460938 7.96875 -9.703125 C 7.96875 -10.066406 7.957031 -10.390625 7.9375 -10.671875 C 7.925781 -10.953125 7.90625 -11.195312 7.875 -11.40625 Z M 7.875 -11.40625 "/></g></g></g><g fill="#000000" fill-opacity="1"><g transform="translate(222.62448, 294.04709)"><g><path d="M 5.203125 -10.84375 C 5.378906 -10.832031 5.535156 -10.804688 5.671875 -10.765625 C 5.804688 -10.734375 5.90625 -10.703125 5.96875 -10.671875 C 6.15625 -10.578125 6.25 -10.46875 6.25 -10.34375 C 6.25 -10.195312 6.148438 -10.070312 5.953125 -9.96875 C 5.753906 -9.875 5.503906 -9.828125 5.203125 -9.828125 L 4.40625 -9.828125 C 4.40625 -6.960938 4.414062 -4.65625 4.4375 -2.90625 C 4.457031 -1.15625 4.488281 0.0351562 4.53125 0.671875 C 4.40625 1.023438 4.09375 1.203125 3.59375 1.203125 C 3.382812 1.203125 3.175781 1.160156 2.96875 1.078125 C 2.769531 0.992188 2.628906 0.882812 2.546875 0.75 C 2.515625 -0.5625 2.484375 -2.019531 2.453125 -3.625 C 2.429688 -5.226562 2.421875 -6.988281 2.421875 -8.90625 L 2.421875 -9.921875 C 2.359375 -9.941406 2.265625 -9.953125 2.140625 -9.953125 C 2.015625 -9.953125 1.84375 -9.953125 1.625 -9.953125 C 0.875 -9.984375 0.320312 -10.03125 -0.03125 -10.09375 C -0.394531 -10.144531 -0.578125 -10.28125 -0.578125 -10.5 C -0.578125 -10.601562 -0.492188 -10.703125 -0.328125 -10.796875 C -0.171875 -10.898438 0.046875 -10.96875 0.328125 -11 C 1.023438 -11 1.734375 -10.972656 2.453125 -10.921875 L 2.453125 -13.328125 C 2.453125 -15.003906 2.535156 -16.351562 2.703125 -17.375 C 2.867188 -18.394531 3.203125 -19.253906 3.703125 -19.953125 C 4.234375 -20.679688 5.023438 -21.046875 6.078125 -21.046875 C 6.523438 -21.046875 7.0625 -20.96875 7.6875 -20.8125 C 8.3125 -20.664062 8.84375 -20.476562 9.28125 -20.25 C 9.726562 -20.03125 9.953125 -19.804688 9.953125 -19.578125 C 9.953125 -19.441406 9.867188 -19.34375 9.703125 -19.28125 C 9.546875 -19.207031 9.3125 -19.171875 9 -19.171875 C 8.800781 -19.171875 8.609375 -19.203125 8.421875 -19.265625 C 8.242188 -19.335938 8.007812 -19.457031 7.71875 -19.625 C 7.4375 -19.789062 7.207031 -19.90625 7.03125 -19.96875 C 6.863281 -20.039062 6.6875 -20.078125 6.5 -20.078125 C 6.28125 -20.078125 6.03125 -20 5.75 -19.84375 C 5.25 -19.25 4.898438 -18.398438 4.703125 -17.296875 C 4.503906 -16.203125 4.40625 -14.84375 4.40625 -13.21875 L 4.40625 -10.84375 Z M 5.203125 -10.84375 "/></g></g></g><g fill="#000000" fill-opacity="1"><g transform="translate(229.52339, 294.04709)"><g><path d="M 5.203125 -10.84375 C 5.378906 -10.832031 5.535156 -10.804688 5.671875 -10.765625 C 5.804688 -10.734375 5.90625 -10.703125 5.96875 -10.671875 C 6.15625 -10.578125 6.25 -10.46875 6.25 -10.34375 C 6.25 -10.195312 6.148438 -10.070312 5.953125 -9.96875 C 5.753906 -9.875 5.503906 -9.828125 5.203125 -9.828125 L 4.40625 -9.828125 C 4.40625 -6.960938 4.414062 -4.65625 4.4375 -2.90625 C 4.457031 -1.15625 4.488281 0.0351562 4.53125 0.671875 C 4.40625 1.023438 4.09375 1.203125 3.59375 1.203125 C 3.382812 1.203125 3.175781 1.160156 2.96875 1.078125 C 2.769531 0.992188 2.628906 0.882812 2.546875 0.75 C 2.515625 -0.5625 2.484375 -2.019531 2.453125 -3.625 C 2.429688 -5.226562 2.421875 -6.988281 2.421875 -8.90625 L 2.421875 -9.921875 C 2.359375 -9.941406 2.265625 -9.953125 2.140625 -9.953125 C 2.015625 -9.953125 1.84375 -9.953125 1.625 -9.953125 C 0.875 -9.984375 0.320312 -10.03125 -0.03125 -10.09375 C -0.394531 -10.144531 -0.578125 -10.28125 -0.578125 -10.5 C -0.578125 -10.601562 -0.492188 -10.703125 -0.328125 -10.796875 C -0.171875 -10.898438 0.046875 -10.96875 0.328125 -11 C 1.023438 -11 1.734375 -10.972656 2.453125 -10.921875 L 2.453125 -13.328125 C 2.453125 -15.003906 2.535156 -16.351562 2.703125 -17.375 C 2.867188 -18.394531 3.203125 -19.253906 3.703125 -19.953125 C 4.234375 -20.679688 5.023438 -21.046875 6.078125 -21.046875 C 6.523438 -21.046875 7.0625 -20.96875 7.6875 -20.8125 C 8.3125 -20.664062 8.84375 -20.476562 9.28125 -20.25 C 9.726562 -20.03125 9.953125 -19.804688 9.953125 -19.578125 C 9.953125 -19.441406 9.867188 -19.34375 9.703125 -19.28125 C 9.546875 -19.207031 9.3125 -19.171875 9 -19.171875 C 8.800781 -19.171875 8.609375 -19.203125 8.421875 -19.265625 C 8.242188 -19.335938 8.007812 -19.457031 7.71875 -19.625 C 7.4375 -19.789062 7.207031 -19.90625 7.03125 -19.96875 C 6.863281 -20.039062 6.6875 -20.078125 6.5 -20.078125 C 6.28125 -20.078125 6.03125 -20 5.75 -19.84375 C 5.25 -19.25 4.898438 -18.398438 4.703125 -17.296875 C 4.503906 -16.203125 4.40625 -14.84375 4.40625 -13.21875 L 4.40625 -10.84375 Z M 5.203125 -10.84375 "/></g></g></g><g fill="#000000" fill-opacity="1"><g transform="translate(236.4223, 294.04709)"><g><path d="M 7.90625 -10 C 7.90625 -9.582031 7.691406 -9.21875 7.265625 -8.90625 C 6.835938 -8.601562 6.300781 -8.375 5.65625 -8.21875 C 5.320312 -8.15625 5.019531 -8.109375 4.75 -8.078125 C 4.476562 -8.046875 4.242188 -8.03125 4.046875 -8.03125 C 3.535156 -8.03125 3.03125 -8.050781 2.53125 -8.09375 C 2.53125 -7.582031 2.59375 -6.988281 2.71875 -6.3125 C 2.851562 -5.632812 3.039062 -4.960938 3.28125 -4.296875 C 3.53125 -3.628906 3.8125 -3.03125 4.125 -2.5 C 4.601562 -1.664062 5.160156 -1.191406 5.796875 -1.078125 C 6.117188 -1.140625 6.382812 -1.40625 6.59375 -1.875 C 6.8125 -2.238281 7.019531 -2.5 7.21875 -2.65625 C 7.425781 -2.820312 7.695312 -2.90625 8.03125 -2.90625 C 8.59375 -2.90625 8.875 -2.738281 8.875 -2.40625 C 8.875 -2.320312 8.863281 -2.269531 8.84375 -2.25 C 8.394531 -1.5 7.945312 -0.941406 7.5 -0.578125 C 7.0625 -0.210938 6.53125 -0.03125 5.90625 -0.03125 C 5.382812 -0.03125 4.863281 -0.160156 4.34375 -0.421875 C 3.832031 -0.691406 3.394531 -1.035156 3.03125 -1.453125 C 2.5625 -2.015625 2.140625 -2.675781 1.765625 -3.4375 C 1.390625 -4.195312 1.085938 -4.992188 0.859375 -5.828125 C 0.640625 -6.660156 0.53125 -7.441406 0.53125 -8.171875 C 0.53125 -9.441406 0.820312 -10.410156 1.40625 -11.078125 C 1.988281 -11.753906 2.78125 -12.15625 3.78125 -12.28125 L 4.40625 -12.328125 C 5.019531 -12.328125 5.59375 -12.222656 6.125 -12.015625 C 6.65625 -11.804688 7.085938 -11.523438 7.421875 -11.171875 C 7.742188 -10.804688 7.90625 -10.414062 7.90625 -10 Z M 3.171875 -10.421875 C 2.972656 -10.109375 2.820312 -9.644531 2.71875 -9.03125 C 2.957031 -8.976562 3.332031 -8.953125 3.84375 -8.953125 C 4.425781 -8.953125 4.894531 -9.035156 5.25 -9.203125 C 5.613281 -9.367188 5.796875 -9.644531 5.796875 -10.03125 C 5.742188 -10.425781 5.585938 -10.734375 5.328125 -10.953125 C 5.078125 -11.171875 4.757812 -11.28125 4.375 -11.28125 C 3.894531 -11.28125 3.492188 -10.992188 3.171875 -10.421875 Z M 3.171875 -10.421875 "/></g></g></g><g fill="#000000" fill-opacity="1"><g transform="translate(246.49571, 294.04709)"><g><path d="M 6.328125 -8.65625 C 6.328125 -9.082031 6.226562 -9.429688 6.03125 -9.703125 C 5.84375 -9.984375 5.554688 -10.125 5.171875 -10.125 C 4.703125 -10.125 4.363281 -9.960938 4.15625 -9.640625 C 3.945312 -9.316406 3.785156 -8.800781 3.671875 -8.09375 C 3.671875 -7.476562 3.675781 -6.859375 3.6875 -6.234375 C 3.707031 -5.609375 3.738281 -4.960938 3.78125 -4.296875 C 3.8125 -3.660156 3.832031 -3.035156 3.84375 -2.421875 C 3.863281 -1.804688 3.875 -1.191406 3.875 -0.578125 C 3.757812 -0.222656 3.398438 -0.046875 2.796875 -0.046875 C 2.535156 -0.046875 2.320312 -0.09375 2.15625 -0.1875 C 1.988281 -0.289062 1.90625 -0.445312 1.90625 -0.65625 C 1.90625 -1.46875 1.894531 -2.304688 1.875 -3.171875 C 1.851562 -4.035156 1.828125 -4.9375 1.796875 -5.875 C 1.765625 -6.8125 1.738281 -7.710938 1.71875 -8.578125 C 1.707031 -9.441406 1.703125 -10.273438 1.703125 -11.078125 C 1.703125 -11.253906 1.785156 -11.394531 1.953125 -11.5 C 2.128906 -11.613281 2.34375 -11.671875 2.59375 -11.671875 C 2.84375 -11.671875 3.066406 -11.617188 3.265625 -11.515625 C 3.472656 -11.421875 3.609375 -11.300781 3.671875 -11.15625 L 3.671875 -10.78125 C 4.171875 -11.03125 4.722656 -11.15625 5.328125 -11.15625 C 6.253906 -11.15625 6.984375 -10.929688 7.515625 -10.484375 C 8.054688 -10.046875 8.328125 -9.453125 8.328125 -8.703125 C 8.328125 -8.015625 8.222656 -7.484375 8.015625 -7.109375 C 7.816406 -6.734375 7.460938 -6.546875 6.953125 -6.546875 C 6.679688 -6.546875 6.460938 -6.59375 6.296875 -6.6875 C 6.128906 -6.789062 6.046875 -6.945312 6.046875 -7.15625 C 6.234375 -7.738281 6.328125 -8.238281 6.328125 -8.65625 Z M 6.328125 -8.65625 "/></g></g></g><g fill="#000000" fill-opacity="1"><g transform="translate(255.369309, 294.04709)"><g><path d="M 5.21875 -13 C 5.46875 -13 5.769531 -12.921875 6.125 -12.765625 C 6.476562 -12.617188 6.78125 -12.429688 7.03125 -12.203125 C 7.28125 -11.953125 7.40625 -11.6875 7.40625 -11.40625 C 7.40625 -11.25 7.320312 -11.128906 7.15625 -11.046875 C 7 -10.960938 6.796875 -10.921875 6.546875 -10.921875 C 6.328125 -10.921875 6.164062 -10.960938 6.0625 -11.046875 C 5.96875 -11.128906 5.875 -11.28125 5.78125 -11.5 C 5.65625 -11.769531 5.507812 -11.90625 5.34375 -11.90625 C 5.132812 -11.90625 4.929688 -11.800781 4.734375 -11.59375 C 4.546875 -11.382812 4.394531 -11.125 4.28125 -10.8125 C 4.175781 -10.5 4.125 -10.195312 4.125 -9.90625 C 4.125 -9.414062 4.210938 -9.054688 4.390625 -8.828125 C 4.566406 -8.609375 4.925781 -8.34375 5.46875 -8.03125 C 5.707031 -7.894531 5.832031 -7.820312 5.84375 -7.8125 C 5.863281 -7.800781 5.929688 -7.753906 6.046875 -7.671875 C 6.179688 -7.585938 6.335938 -7.488281 6.515625 -7.375 C 6.691406 -7.257812 6.78125 -7.203125 6.78125 -7.203125 C 7.625 -6.628906 8.046875 -5.503906 8.046875 -3.828125 C 8.046875 -2.390625 7.65625 -1.3125 6.875 -0.59375 C 6.09375 0.113281 5.101562 0.46875 3.90625 0.46875 C 2.78125 0.46875 1.921875 0.285156 1.328125 -0.078125 C 0.742188 -0.441406 0.453125 -1.070312 0.453125 -1.96875 L 0.453125 -2.25 C 0.453125 -2.882812 0.53125 -3.34375 0.6875 -3.625 C 0.84375 -3.90625 1.179688 -4.046875 1.703125 -4.046875 C 2.203125 -4.046875 2.507812 -3.875 2.625 -3.53125 C 2.476562 -3.007812 2.40625 -2.582031 2.40625 -2.25 C 2.40625 -1.71875 2.53125 -1.296875 2.78125 -0.984375 C 3.03125 -0.679688 3.394531 -0.53125 3.875 -0.53125 L 4.078125 -0.53125 C 4.492188 -0.625 4.847656 -0.867188 5.140625 -1.265625 C 5.441406 -1.671875 5.675781 -2.148438 5.84375 -2.703125 C 5.914062 -2.953125 5.96875 -3.179688 6 -3.390625 C 6.03125 -3.609375 6.046875 -3.800781 6.046875 -3.96875 C 6.046875 -4.882812 5.726562 -5.644531 5.09375 -6.25 C 4.925781 -6.382812 4.75 -6.519531 4.5625 -6.65625 C 4.382812 -6.800781 4.207031 -6.941406 4.03125 -7.078125 C 3.3125 -7.578125 2.804688 -8.019531 2.515625 -8.40625 C 2.234375 -8.800781 2.09375 -9.316406 2.09375 -9.953125 C 2.09375 -10.484375 2.242188 -10.984375 2.546875 -11.453125 C 2.847656 -11.929688 3.25 -12.3125 3.75 -12.59375 C 4.21875 -12.863281 4.707031 -13 5.21875 -13 Z M 5.21875 -13 "/></g></g></g><g clip-path="url(#3cba330b04)"><path fill="#000000" d="M 268.867188 196.433594 L 246.640625 213.113281 L 241.316406 217.105469 L 210.402344 240.324219 C 208.929688 241.4375 206.859375 241.125 205.746094 239.65625 L 145.832031 159.65625 C 145.675781 159.5 145.566406 159.320312 145.453125 159.144531 C 144.652344 158.074219 144.585938 156.667969 145.1875 155.554688 L 152.113281 105.441406 C 152.359375 103.609375 154.027344 102.339844 155.855469 102.585938 L 159.777344 103.164062 C 161.78125 105.285156 163.207031 107.804688 164.164062 110.570312 L 158.238281 109.699219 L 151.800781 156.511719 L 209.066406 233.007812 L 237.328125 211.777344 L 242.652344 207.785156 L 262.230469 193.085938 L 204.945312 116.613281 L 176.367188 112.375 C 175.902344 109.921875 175.253906 107.558594 174.363281 105.328125 C 184.875 106.867188 195.367188 108.429688 205.878906 109.988281 C 207.105469 109.722656 208.441406 110.167969 209.242188 111.261719 C 209.398438 111.417969 209.511719 111.574219 209.621094 111.75 L 269.535156 191.773438 C 270.648438 193.242188 270.335938 195.316406 268.867188 196.433594 Z M 268.867188 196.433594 " fill-opacity="1" fill-rule="nonzero"/></g><path fill="#000000" d="M 251.496094 225.15625 L 193.027344 269.050781 C 191.558594 270.164062 189.464844 269.875 188.375 268.402344 L 128.460938 188.382812 C 128.304688 188.226562 128.191406 188.046875 128.082031 187.890625 C 127.257812 186.796875 127.214844 185.394531 127.8125 184.277344 L 134.71875 134.164062 C 134.984375 132.335938 136.65625 131.066406 138.484375 131.308594 L 150.976562 132.917969 C 152.980469 135.039062 149.652344 136.984375 150.609375 139.75 L 140.867188 138.425781 L 134.40625 185.238281 L 191.691406 261.734375 L 244.835938 221.8125 L 241.316406 217.105469 L 246.640625 213.113281 L 252.164062 220.496094 C 253.277344 221.96875 252.964844 224.042969 251.496094 225.15625 Z M 251.496094 225.15625 " fill-opacity="1" fill-rule="nonzero"/><path fill="#000000" d="M 171.007812 139.609375 C 170.402344 139.609375 169.792969 139.566406 169.183594 139.476562 C 165.820312 138.996094 162.847656 137.234375 160.808594 134.511719 C 156.605469 128.894531 157.746094 120.902344 163.355469 116.6875 C 166.070312 114.648438 169.417969 113.789062 172.78125 114.269531 C 176.144531 114.753906 179.117188 116.515625 181.15625 119.238281 C 183.191406 121.957031 184.050781 125.308594 183.570312 128.675781 C 183.085938 132.042969 181.328125 135.019531 178.609375 137.058594 C 176.386719 138.730469 173.738281 139.609375 171.007812 139.609375 Z M 166.15625 130.496094 C 167.121094 131.789062 168.53125 132.625 170.128906 132.855469 C 171.71875 133.085938 173.3125 132.675781 174.601562 131.707031 C 175.890625 130.738281 176.726562 129.324219 176.953125 127.730469 C 177.183594 126.132812 176.773438 124.542969 175.808594 123.25 C 174.839844 121.960938 173.429688 121.121094 171.835938 120.894531 C 170.238281 120.664062 168.652344 121.074219 167.363281 122.042969 C 164.699219 124.039062 164.160156 127.832031 166.15625 130.496094 Z M 166.15625 130.496094 " fill-opacity="1" fill-rule="nonzero"/><path fill="#000000" d="M 174.273438 127.449219 C 173.957031 129.265625 172.226562 130.484375 170.410156 130.167969 C 168.59375 129.851562 167.378906 128.117188 167.695312 126.300781 C 167.707031 126.242188 171.320312 106.375 156.945312 97.902344 C 154.273438 96.328125 148.671875 96.230469 142.753906 96.128906 C 136.769531 96.027344 130.492188 95.921875 125.386719 94.261719 C 116.824219 91.484375 111.824219 85.203125 116.621094 70.382812 C 117.183594 68.628906 119.058594 67.664062 120.808594 68.226562 C 122.5625 68.789062 123.523438 70.667969 122.964844 72.421875 C 119.761719 82.316406 122.507812 86.316406 127.421875 87.914062 C 131.613281 89.273438 137.375 89.375 142.859375 89.46875 C 149.683594 89.582031 156.140625 89.695312 160.3125 92.15625 C 178.722656 103.007812 174.285156 127.382812 174.273438 127.449219 Z M 174.273438 127.449219 " fill-opacity="1" fill-rule="nonzero"/><path fill="#000000" d="M 213.730469 147.339844 C 217.144531 151.898438 216.914062 157.390625 211.59375 161.382812 C 206.277344 165.375 200.949219 164.054688 197.535156 159.496094 C 194.125 154.9375 194.316406 149.398438 199.632812 145.40625 C 204.953125 141.414062 210.320312 142.78125 213.730469 147.339844 Z M 203.871094 151.066406 C 201.621094 152.757812 201.261719 154.375 202.339844 155.816406 C 203.417969 157.257812 205.105469 157.414062 207.355469 155.722656 C 209.65625 153.996094 209.980469 152.328125 208.902344 150.886719 C 207.824219 149.449219 206.171875 149.339844 203.871094 151.066406 Z M 227.210938 166.445312 C 229.1875 169.082031 227.617188 172.875 224.359375 173.34375 L 186.574219 178.785156 C 185.007812 179.011719 183.441406 178.363281 182.488281 177.09375 C 180.515625 174.453125 182.082031 170.660156 185.339844 170.191406 L 223.125 164.753906 C 224.695312 164.527344 226.261719 165.175781 227.210938 166.445312 Z M 212.203125 184.089844 C 215.613281 188.644531 215.433594 194.101562 210.066406 198.132812 C 204.746094 202.125 199.417969 200.804688 196.007812 196.246094 C 192.59375 191.6875 192.824219 186.195312 198.140625 182.203125 C 203.507812 178.171875 208.789062 179.53125 212.203125 184.089844 Z M 202.34375 187.816406 C 200.089844 189.507812 199.730469 191.125 200.808594 192.566406 C 201.886719 194.003906 203.578125 194.160156 205.828125 192.46875 C 208.082031 190.777344 208.453125 189.074219 207.375 187.636719 C 206.296875 186.199219 204.597656 186.125 202.34375 187.816406 Z M 202.34375 187.816406 " fill-opacity="1" fill-rule="nonzero"/></svg>